<svg id="vector" xmlns="http://www.w3.org/2000/svg" width="11.338989d" height="11.338989d" viewBox="0 0 11.339 11.339"><path fill="@color/yellow" d="M9.213,5.669L7.57,3.335l0,0L5.669,0.634L4.027,2.968l0,0L2.126,5.669l1.642,2.334l0,0l1.901,2.701l0.173,-0.246L7.57,8.004l0,0L9.213,5.669zM5.669,1.369l1.384,1.967L6.228,4.509L5.669,5.302l0,0l0,0L4.285,3.335L5.669,1.369zM5.669,9.97L4.285,8.004l0.572,-0.812l0.812,-1.154l0.732,1.04l0.652,0.927L5.669,9.97zM5.928,5.669L6.518,4.83l0.794,-1.128l1.384,1.967L7.312,7.636L5.928,5.669z" id="path_0"/></svg>