<svg id="vector" xmlns="http://www.w3.org/2000/svg" width="11.338989d" height="11.338989d" viewBox="0 0 11.339 11.339"><path fill="@color/yellow" d="M 1.033,4.096 V 4.115 C 1.03,4.124 1.026,4.131 1.022,4.137 1.026,4.124 1.03,4.11 1.033,4.096 Z" id="path_0"/><path fill="@color/yellow" d="M 8.59,5.827 C 8.611,5.83 8.67,5.806 8.669,5.78 8.653,5.786 8.639,5.811 8.622,5.802 8.614,5.784 8.615,5.765 8.596,5.76 8.603,5.768 8.59,5.774 8.583,5.775 8.599,5.791 8.611,5.808 8.59,5.827 Z" id="path_1"/><path fill="@color/yellow" d="m 5.825,4.904 c 0,-0.001 10e-4,0 0.002,0 C 5.826,4.905 5.826,4.906 5.825,4.906 L 5.827,4.91 5.829,4.909 c -10e-4,-10e-4 0,-0.002 0,-0.002 0.001,0 0.001,0 0.002,0.001 L 5.833,4.907 5.831,4.904 c -0.001,0 -0.002,0.001 -0.003,0 0,-0.002 10e-4,-0.002 0.002,-0.002 L 5.829,4.898 5.828,4.899 C 5.826,4.899 5.826,4.896 5.826,4.895 l -0.003,0 10e-4,0.003 c 0,0.001 0,0.002 0,0.002 z" id="path_2"/><path fill="@color/yellow" d="m 8.13,6.146 c -0.026182,-0.130441 -0.099002,0.1231971 0,0 z M 9.123,3.183 C 9.0078137,2.9695966 8.8926203,2.7367939 8.6947373,2.5758677 8.6452193,2.5132116 8.4866805,2.4199213 8.487,2.38 8.4759787,2.3612354 8.45143,2.3544495 8.461,2.373 8.370493,2.3229108 8.1816655,2.2032784 8.103,2.146 8.1102669,2.1380274 8.0693385,2.0826076 8.073,2.127 7.9174741,1.9921762 7.5650519,1.9681868 7.376,2.068 7.159237,2.0803847 6.9429528,2.2000066 6.906,2.333 6.7482399,2.1958231 6.5339787,2.3427709 6.3742073,2.4098328 6.1867762,2.448848 6.1952737,2.6770246 6.092,2.608 5.9618144,2.8218287 6.0006351,3.1217525 5.928,3.33 5.8877923,3.5018009 5.904436,3.6764756 5.8479724,3.8549243 5.7423136,4.1320882 5.7908486,4.4278518 5.8144844,4.7151563 5.8457689,4.8976021 5.9190758,5.2662805 5.918978,5.546604 5.9609753,5.8595592 5.9289789,6.1833237 6.018,6.487 6.1328948,6.7644152 6.2354949,7.1112779 6.5749375,7.1621934 6.9043127,7.2714403 7.2556042,7.3068526 7.578,7.442 7.2902838,7.7638698 7.1083323,8.1659169 6.8059063,8.4741875 6.6922175,8.7259122 6.9393326,8.9680006 6.8791218,9.2419126 6.867375,9.3949906 6.8544133,9.5712205 6.9907813,9.5315313 7.0570706,9.734521 7.1175197,9.8248338 7.2575444,9.6114934 7.576744,9.2689425 7.9506849,8.9765628 8.236,8.604 8.425627,8.3555297 8.4270842,8.0045786 8.554,7.745 8.718869,7.6217549 8.5175085,7.5586904 8.589625,7.3975 8.4682469,7.2871133 8.6896339,7.1133846 8.647125,7.016375 8.7004514,6.9514596 8.5431402,6.8969511 8.611,7.007375 8.5901106,7.0762649 8.435056,6.9666371 8.5232187,6.8877344 8.5571035,6.7888963 8.2986392,6.5553064 8.408,6.651 8.5044239,6.6832606 8.5404669,6.5836956 8.597875,6.6865 8.6238864,6.6654198 8.7352785,6.7744233 8.688,6.885 8.7530243,6.6912395 8.8809719,6.2930614 8.74225,6.189 8.6300436,6.2502377 8.7342363,6.3818723 8.775125,6.375 8.6762471,6.4241017 8.4158323,6.2622927 8.5116562,6.2017187 8.569509,6.0831838 8.7468945,6.2116548 8.615875,6.093625 8.5263489,6.0690051 8.5117036,6.0919422 8.5030312,6.0311406 8.3697692,6.0331887 8.470676,5.9587203 8.376,5.942 8.4978524,5.9216138 8.4891494,5.6821883 8.6445,5.746125 8.7253388,5.8120184 8.8674045,5.8158565 8.8296875,5.9499219 8.7710197,5.9648943 8.8695782,6.0667335 8.851,5.901 c 0.1534459,0.073711 0.023693,-0.1465581 0.011,-0.155 0.015346,-0.083503 0.041408,-0.1461485 0.082467,-0.2817434 0.075571,-0.08017 0.1350069,-0.40533 -0.029101,-0.4526331 0.026834,0.071733 0.050409,0.118759 -0.0019,0.1944854 C 8.8133863,5.1418526 8.8019857,5.0426469 8.834,4.975 8.9724463,5.1005407 8.8233124,4.7906283 8.78025,4.82275 8.8201513,4.6135362 8.564526,4.3335693 8.488625,4.0863594 8.3849081,3.8190719 8.1286442,3.5051033 8.4623477,3.300416 8.5396237,3.1265202 8.7340612,3.1756355 8.8407553,3.2729692 8.974558,3.3048352 9.1770267,3.3494576 9.083,3.544 9.1068974,3.6921093 9.332103,3.3077631 9.1512344,3.233375 L 9.122,3.187 Z M 5.834,4.085 c -0.049265,-0.036127 0.0345,-0.031897 0,0 z M 5.999,3.53 6.004,3.526 Z M 6.006,3.297 c -0.058057,-0.037243 0.030157,-0.024506 0,0 z M 6.132,3.029 c -0.082597,-0.068101 0.056828,-0.089328 0,0 z M 6.13,2.808 c -0.2112955,0.00739 0.058227,-0.145662 0,0 z M 6.137,2.669 c -0.013562,-0.033242 0.033991,-0.045329 0,0 z m 2.565,3.586 c 0.043871,-0.014314 0.047,0.045986 0,0 z m 0.037,-0.04 c 0.066834,0.037036 -0.035818,0.043684 0,0 z m 0.008,0.071 c 0.037888,-0.048835 0.06692,0.020365 0,0 z m 0.026,0.322 c 5.044e-4,0.065281 -0.08833,-0.015395 0,0 z M 8.731,6.634 c 0.037262,0.041129 -0.017752,0.062674 0,0 z M 8.692,6.617 c 0.074001,0.00488 -0.036476,0.050098 0,0 z M 8.679,6.642 c 0.070621,0.074582 -0.057827,0.090813 0,0 z M 8.556,6.367 c 0.085081,0.045072 -0.027322,0.094513 0,0 z M 8.45,6.072 c 0.076946,0.094076 -0.06553,-0.00238 0,0 z M 8.903,5.33 c 0.017543,0.04142 -0.062747,0.031108 0,0 z M 8.48,5.075 c 0.1257621,-0.1370095 0.031672,0.1392391 0,0 z M 8.459,5.029 c 0.088042,-0.07794 0.032952,0.074709 0,0 z M 8.495,4.898 c 0.0628,0.09214 -0.094785,0.013175 0,0 z M 7.897,2.699 c 0.037758,0.02115 -0.045905,0.026651 0,0 z m 0.516,2.079 c -0.0068,0.058171 -0.085384,0.00587 0,0 z M 8.04,3.873 c 0.050688,-0.00194 -0.00848,0.035219 0,0 z m 0.212,1.013 c 0.050311,-0.00234 -0.00893,0.036847 0,0 z m 0.037,0.08 c 0.016434,0.082106 -0.061676,0.02405 0,0 z m 0.023,0.175 c 0.087186,0.06677 -0.08848,0.056953 0,0 z m 0.055,0.14 c 0.00395,0.052728 -0.06983,0.029344 0,0 z M 7.694,2.833 c -0.027726,0.091243 -0.057607,-0.031464 0,0 z m 0.518,2.408 c -0.076315,0.030774 -0.130711,-0.062324 0,0 z m 0.026,0.132 c -0.085564,0.050593 -0.00495,-0.08122 0,0 z M 8.022,4.96 c -0.00656,0.059448 -0.034301,-0.026103 0,0 z m 0.052,0.274 c 0.1471641,0.056238 -0.072913,0.1489229 0,0 z m 0.242,0.917 c 0.076741,-0.068659 0.040256,0.057794 0,0 z m 0.063,0.111 c -0.02787,0.037073 -0.024758,-0.030991 0,0 z M 8.285,6.014 c -0.057531,-0.058787 0.071944,-0.037773 0,0 z m 0.037,0.713 c -0.095613,-0.039647 0.036625,-0.038028 0,0 z M 8.382,6.8 c -0.032485,0.049914 -0.075721,-0.061897 0,0 z M 8.308,7.023 c -0.074543,0.010392 0.018358,-0.097101 0,0 z M 8.262,6.963 C 8.1796149,6.8839229 8.3151695,6.8008072 8.279875,6.92825 l -0.00158,0.017937 z M 8.269,6.825 C 8.2151856,6.9300901 8.19327,6.6872986 8.307,6.823 8.3065027,6.8527755 8.2694354,6.8457766 8.269,6.825 Z M 7.973,6.249 c 0.1717721,0.00819 0.00384,0.1437562 0,0 z m 0.316,0.394 c -0.079603,0.00158 -0.029697,-0.060374 0,0 z M 8.234,6.603 c -0.067819,-0.051214 0.053259,-0.046684 0,0 z M 8.221,6.527 c 0.056331,-0.026787 0.041591,0.051261 0,0 z M 8.199,6.38 c -0.078098,0.015123 0.01933,-0.055938 0,-0.00913 z m 0.043,0.275 c 0.08143,0.043381 -0.058371,0.07182 0,0 z m -0.1,-0.272 c -0.041752,-0.042024 0.057764,-0.034022 0,0 z m 0.057,0.188 c -0.067385,0.058159 -0.038549,-0.1125724 0,0 z M 8.053,6.512 c 0.023353,-0.035566 0.063672,0.04151 0,0 z m 0.136,0.412 c -0.026447,0.032995 -0.028883,-0.042874 0,0 z M 8.056,6.478 c -0.065973,-0.085363 0.080652,-0.034856 0,0 z M 8.021,6.337 c 0.063312,-0.051646 0.1088291,0.017389 0,0 z m 0.046,0.079 c 0.051502,-0.040396 0.024171,0.046908 0,0 z m 0.075,0.067 c -0.043159,0.048261 -0.037017,-0.038984 0,0 z M 8.061,6.292 c 0.052193,-0.060836 0.038108,0.035326 0,0 z m 0.09,0.643 c 0.098663,0.018169 -0.010181,0.1010767 0,0 z m 0.03,0.128 c -0.013568,-0.036051 0.027619,-0.025893 0,0 z m 0.051,0.064 c -0.057627,0.1238042 -0.083237,-0.061245 0,0 z m 0.071,0.354 c 0.05847,0.015492 0.0031,0.08503 0,0 z M 8.204,7.038 c -0.052892,-0.1353805 0.1225878,0.01945 0,0 z M 8.134,6.603 c 0.092772,0.017413 -0.030015,0.057259 0,0 z m 0.199,0.261 c 0.037538,0.023316 -0.045263,0.026392 0,0 z M 8.312,6.827 c 0.036918,-0.021682 0.020175,0.066763 0,0 z M 8.243,6.393 c 0.084108,-0.1230631 0.1183789,0.076559 0,0 z M 8.302,6.337 C 8.1027535,6.3563063 8.2849611,6.1051676 8.322,6.266625 l -0.00306,0.032422 z M 8.205,6.123 c 0.00743,0.031697 -0.047389,0.012064 0,0 z M 8.072,5.486 c 0.051885,-0.00571 -0.013484,0.056467 0,0 z M 8.004,5.18 c -0.080317,-0.033893 0.03556,-0.053415 0,0 z m 0.178,0.687 c 0.064462,0.060397 -0.073454,0.043209 0,0 z m 0.066,0.168 c -0.040415,0.022584 -0.00813,-0.045578 0,0 z M 7.899,4.614 c 0.038223,0.046091 -0.047323,0.015126 0,0 z m 0.082,0.291 c -0.042707,0.085984 -0.072415,-0.033583 0,0 z m 0.025,0.204 c -0.082525,0.064682 -0.056142,-0.058084 0,0 z m 0.076,0.477 c -0.042592,0.036621 -0.041571,-0.064237 0,0 z m 0.053,0.383 c -0.046087,0.058735 -0.082343,-0.062796 0,0 z M 7.897,5.219 c -0.026331,-0.055846 0.050177,-0.026867 0,0 z M 7.551,3.764 c 0.051425,0.025774 -0.047289,0.031069 0,0 z m 0.058,0.207 c -0.063623,0.041165 -0.048339,-0.051464 0,0 z M 7.897,5.4 c 0.1075972,-0.035278 -0.00482,0.079764 0,0 z m 0.13,0.508 c -0.032653,0.072038 -0.072437,-0.064993 0,0 z M 7.914,5.742 c 0.038494,0.044842 -0.045034,0.026061 0,0 z m 0,0.1 c -0.017449,0.098747 -0.067082,-0.025764 0,0 z M 7.782,5.396 c 0.052032,0.025054 -0.050538,0.031965 0,0 z m 0.069,0.416 c 0.07612,0.027016 -0.034523,0.057976 0,0 z M 7.343,3.794 c 0.021009,0.023844 -0.027387,0.040531 0,0 z M 7.907,6.071 C 7.983191,5.9862669 7.9743078,6.1843991 7.9793594,6.0176094 8.0682328,5.8365141 8.0295022,6.1336831 8.111,6.047 8.0085412,5.9970895 8.3138618,6.0572692 8.137,6.088 8.239311,6.1981218 8.0155829,6.2212216 7.9652344,6.1716094 7.8434709,6.3011962 7.8779255,6.0473392 7.907,6.071 Z m 0.05,0.146 c -0.073148,0.035273 -0.025451,-0.059128 0,0 z M 7.923,6.385 c 0.030099,-0.033454 0.035391,0.029706 0,0 z m 0.043,0.093 c -0.044127,0.030929 -0.023159,-0.036061 0,0 z M 7.818,5.819 c 0.015628,0.059118 -0.061334,0.013094 0,0 z M 7.78,5.83 c -0.048915,-0.065785 0.048751,-0.079572 0,0 z M 7.757,5.927 c -0.1239338,-0.085982 0.1333065,-0.052347 0,0 z m 0.112,0.327 c -0.044833,0.018997 -0.0026,-0.048616 0,0 z M 7.78,6.011 c 0.047275,0.094471 -0.081803,0.052453 0,0 z M 7.639,5.485 c 0.021055,0.026234 -0.025784,0.037581 0,0 z m 0.159,0.606 c -0.06452,0.00695 0.023652,-0.061135 0,0 z m 0,0.081 c -0.041402,-0.056047 0.061077,-0.038716 0,0 z M 7.305,3.806 c 0.035817,0.055597 -0.1487067,0.015043 0,0 z M 7.652,5.47 c -0.042137,0.054937 -0.020165,-0.032498 0,0 z M 7.558,5.212 c -0.1051738,0.095059 -0.052143,-0.1259855 0,0 z M 7.53,5.324 c 0.039637,0.060381 -0.071958,0.065406 0,0 z M 7.412,5.063 c -0.061698,-0.038529 0.074113,-0.063212 0,0 z M 7.451,5.08 c 0.049198,0.00276 0.010644,0.037503 0,0 z m 0.272,0.944 c -0.076061,0.032888 -0.041305,-0.060972 0,0 z m 0.066,0.168 c -0.017825,0.1196006 -0.1095663,-0.090754 0,0 z M 7.456,4.884 c 0.00132,0.1149819 -0.1537853,-0.031562 0,0 z M 7.302,4.401 c 0.021484,0.060909 -0.034973,0.011384 0,0 z M 7.36,4.789 c 0.1279251,0.017978 -0.040949,0.1047308 0,0 z m 0.004,0.157 c 0.053687,0.016671 -0.04898,0.047158 0,0 z M 7.62,6.058 c 0.037843,0.021433 -0.04509,0.025448 0,0 z M 7.591,6.049 c -0.070539,-0.015759 0.059948,-0.059737 0,0 z M 7.312,4.782 c -0.051663,0.040488 -0.021441,-0.047149 0,0 z M 7.046,3.762 c 0.018641,0.037968 -0.052612,0.010045 0,0 z M 6.861,3.214 c 0.021055,0.026234 -0.025784,0.037581 0,0 z m 0.021,0.037 c 0.028464,0.068529 -0.065114,0.096224 0,0 z m 0.092,0.5 c 0.034621,0.023553 -0.04382,0.017401 0,0 z m 0.122,0.89 c -0.023123,0.048961 -0.040496,-0.048577 0,0 z M 6.784,3.489 c -0.03435,-0.028165 0.041855,-0.011534 0,0 z M 7.06,4.59 c 0.010664,-0.1122687 0.1498691,0.080816 0,0 z M 6.588,2.632 c 0.1665165,0.1556227 -0.1095192,0.025519 0,0 z m -0.272,-0.1 c 0.032744,0.041148 -0.030781,0.024507 0,0 z M 6.203,2.747 c -0.013625,-0.036972 0.027788,-0.02504 0,0 z m 0.168,0.479 c -0.025071,-0.038834 0.044267,-0.011629 0,0 z M 6.225,2.612 c -0.065106,-0.068731 0.112383,-0.0601 0,0 z M 6.383,2.9 c -0.032026,-0.045716 0.065496,-0.035489 0,0 z M 6.38,2.471 c -0.029218,-0.028177 0.015462,-0.048827 0,0 z M 6.39,2.48 c 0.077182,-0.087667 0.087266,0.067375 0,0 z m 0.096,0.214 c 0.041972,-0.022329 0.00554,0.04651 0,0 z m 0.499,2.028 c -0.037944,-0.023325 0.036503,-0.038426 0,0 z M 6.627,3.121 c -0.00568,-0.045565 0.039635,-0.016837 0,0 z M 6.52,2.707 c 0.048648,-0.1054695 0.1026454,0.1033746 0,0 z m 0.081,0.091 c -0.038808,0.017632 -0.038247,-0.038471 0,0 z m 0.074,0.42 c 0.02184,-0.074989 0.059267,0.034031 0,0 z m 0.184,0.71 c 0.028203,-0.070182 0.05731,0.078642 0,0 z m 0.209,0.733 c 0.065751,0.022563 -0.037251,0.033122 0,0 z m 0.044,0.122 c 0.019903,-0.042193 0.039298,0.020137 0,0 z m 0.033,0.074 c -0.03002,-0.042835 0.038332,-0.059959 0,0 z M 7.23,5.124 c -0.00468,-0.03097 0.047046,0.00638 0,0 z M 7.134,4.658 c -0.049217,-0.0331 0.045524,-0.030431 0,0 z m 0.183,0.591 c -0.018286,-0.044609 0.048071,-0.00213 0,0 z M 7.258,5.032 c -0.00664,-0.06385 0.064541,-0.047003 0,0 z M 6.923,3.587 c 0.023042,-0.028053 0.037779,0.039446 0,0 z M 7.362,5.28 c 0.047944,-0.047638 0.071063,0.06729 0,0 z m 0.344,1.145 c 0.01002,0.1111247 -0.1068542,-0.027871 0,0 z M 7.703,6.549 c 0.077699,0.031043 -0.038384,0.042295 0,0 z M 7.775,6.85 c -0.030782,-0.04489 0.067979,-0.019199 0,0 z M 7.695,6.497 c 0.04148,-0.034184 0.044557,0.040941 0,0 z M 7.72,6.238 c -0.1306878,-0.036878 -0.010161,-0.1165827 0,0 z M 7.754,6.241 C 7.8690167,6.2772331 7.799648,6.3911721 7.737625,6.27075 Z M 7.84,6.346 c -0.039985,0.016077 -1.97e-4,-0.042647 0,0 z m -0.017,0.23 c -0.048527,-0.037817 0.032655,-0.034307 0,0 z m 0.028,0.079 c 0.04696,-0.032492 0.037421,0.064348 0,0 z M 7.808,6.381 c -0.1985265,-0.123143 0.1335309,0.0046 0,0 z m 0.067,0.097 c 0.1133101,0.026895 -0.027733,0.1069808 0,0 z M 7.993,6.92 c -0.033889,-0.1206644 0.1020999,-0.044481 0,0 z M 8.17,7.587 c 0.040346,-0.057654 0.019692,0.033736 0,0 z M 8.065,7.03 c -0.053546,-0.061281 0.032381,-0.072232 0,0 z M 7.959,6.536 c 0.1201491,-0.165287 0.046125,0.1119701 0,0 z m 0.218,0.632 c -0.040867,0.022844 -0.013376,-0.064451 0,0 z M 8.258,7.53 c -0.037319,0.00232 -0.019227,-0.052805 0,0 z M 8.215,7.437 c 0.044312,-0.1553782 0.100748,0.094473 0,0 z m 0.184,0.248 c -0.048339,0.040686 -0.063965,-0.054312 0,0 z M 8.266,7.139 c -0.1010862,-0.098229 0.200159,-0.099448 0,0 z m 0.047,0.079 c 0.046817,0.022517 -0.029729,0.030435 0,0 z M 8.37,7.396 c 0.054434,-0.01153 -0.043266,0.018343 0,0 z m 0.084,0.329 c -0.097137,-0.067831 0.061945,-0.047132 0,0 z M 8.422,7.489 c -0.058304,0.010293 0.0126,-0.067995 0,0 z M 8.354,7.092 c -0.022533,0.047291 -0.029316,-0.030999 0,0 z m 0.163,0.564 c -0.09228,-0.03352 0.052681,-0.047496 0,0 z M 8.522,7.569 c -0.051793,-0.025395 0.049759,-0.028961 0,0 z m 0.03,-0.335 c -0.017597,-0.062508 0.048737,-0.00918 0,0 z M 8.557,7.139 c 0.1409292,0.030689 -0.023688,0.091449 0,0 z M 8.512,7.098 c 0.058634,-0.076559 0.1398928,0.028619 0.019375,0.029859 C 8.4760242,7.165422 8.4896836,7.1703826 8.527375,7.2615 8.452985,7.246852 8.4666986,7.2067182 8.41575,7.263875 8.3551831,7.2106915 8.4929619,7.1708562 8.4366406,7.1000469 8.4856343,7.099652 8.4752259,7.0369837 8.512,7.098 Z M 8.452,7.054 c 0.046746,0.023716 -0.028875,0.028815 0,0 z M 8.442,6.945 c -0.17113,-0.073459 0.1310519,-0.027368 0,0 z M 8.507,6.903 c -0.032485,0.039288 -0.04338,-0.043859 0,0 z M 8.455,6.82 c 0.00556,0.04863 -0.056663,-0.01276 0,0 z M 8.434,6.783 c -0.02697,0.013265 -0.018948,-0.053698 0,0 z M 8.391,6.871 C 8.4416178,7.1108909 8.2857963,6.8139881 8.433,6.864 L 8.41275,6.878375 Z M 8.343,6.592 c -0.1300393,-0.070179 0.1077558,-0.050949 0,0 z m 0.099,0.072 c -7.404e-4,-0.032084 0.036037,0.01987 0,0 z M 8.393,6.347 c -0.2206979,-0.055801 0.1090905,-0.080157 0,0 z M 8.404,6.094 c -0.07697,0.040811 -0.02826,-0.058164 0,0 z m 0.083,0.51 c 0.048629,-0.026287 0.037117,0.037973 0,0 z M 8.429,6.397 c 0.070397,-0.1093183 0.074916,0.0795 0,0 z M 8.26,5.62 C 8.1043942,5.4277955 8.4366879,5.5689117 8.289625,5.614625 l -0.015234,-0.00327 z m 0.128,0.16 c -0.026155,0.032204 -0.029083,-0.042659 0,0 z M 8.299,5.637 c 0.039107,-0.01818 0.012953,0.059532 0,0 z m 0.077,0.287 c -0.028568,-0.1071234 0.1257409,-0.010328 0,0 z M 8.25,5.149 c -0.098568,0.00459 -0.041513,-0.1024324 0,0 z M 8.184,4.961 c -0.084819,-0.056691 0.077461,-0.041492 0,0 z M 7.607,2.518 c 0.045474,-0.03417 0.043686,0.042242 0,0 z m 0.727,2.86 c 0.037285,-0.082949 0.07465,0.06344 0,0 z m 0.084,0.158 c 0.046022,0.068309 -0.072635,0.027971 0,0 z m 0.055,0.24 c 0.031743,-0.2224202 0.1500241,-0.00797 0,0 z M 8.534,5.658 C 8.4965804,5.6593841 8.3780262,5.5512599 8.492125,5.580875 8.5024765,5.5996701 8.6264729,5.6212231 8.534,5.658 Z M 8.528,5.544 c 0.049498,-0.030116 0.026533,0.035104 0,0 z M 8.513,5.44 c -0.075409,-0.00746 0.055326,-0.060872 0,0 z M 8.57,5.428 c -0.053644,0.033897 -0.01348,-0.050561 0,0 z M 8.534,5.296 c -0.03957,-0.069123 0.1014179,-0.070887 0,0 z M 8.603,5.24 c -0.079216,0.03287 0.00773,-0.077596 0,0 z m 0.152,0.555 c 0.039932,-0.040737 0.032386,0.035277 0,0 z M 8.583,5.032 c -0.073346,-0.098297 0.1037302,-0.04261 0,0 z M 8.537,4.982 c -0.026669,-0.08388 0.1368256,-0.026376 0,0 z M 8.675,4.97 c -0.059858,0.09897 -0.0608,-0.1257782 0,0 z m 0.127,0.532 c -0.010984,0.070507 -0.103046,-0.011097 0,0 z m 0.02,0.118 c -0.043159,0.048261 -0.037017,-0.038984 0,0 z m 0.003,0.057 c -0.1054534,-0.017897 0.062613,-0.087528 0,0 z M 8.883,5.593 c -0.043884,0.055793 0.012197,-0.060485 0,0 z M 8.785,5.069 c 0.012796,0.035321 -0.052338,0.00687 0,0 z M 8.754,5.023 c 0.04693,0.010394 -0.03192,0.044704 0,0 z m 0.061,0.254 c 0.02725,0.04917 -0.040466,0.039614 0,0 z m 0.022,0.166 c -0.06274,0.010087 -0.01149,-0.039922 0,0 z M 8.787,5.388 c -0.097815,-0.1388018 0.053568,-0.00915 0,0 z M 8.614,4.806 c 0.1756764,0.049814 -0.08563,0.1413686 0,0 z M 8.326,3.82 c 0.071659,0.048108 -0.02573,0.043594 0,0 z M 8.109,2.153 c 0.00126,0.00312 -0.00535,-0.00193 0,0 z m 0.011,0.62 c -0.035782,-0.02259 0.034569,-0.040765 0,0 z m 0.184,0.529 c 6.178e-4,-0.041722 0.052355,0.020238 0,0 z M 8.283,2.844 C 8.1550188,2.8458054 8.1149176,2.6783185 8.2738949,2.7515894 8.3049333,2.7801916 8.3021292,2.8082453 8.283,2.844 Z M 8.344,2.767 c -0.058187,0.014682 0.021943,-0.070139 0,0 z m 0.598,0.431 c -0.015597,-0.032428 0.051622,-0.00788 0,0 z M 8.953,3.045 c -0.1400018,-0.025901 0.076392,-0.167883 0,0 z" id="path_3"/><path fill="@color/yellow" d="M 8.593,6.065 C 8.585,6.054 8.59,6.043 8.577,6.032 8.56,6.042 8.591,6.072 8.593,6.065 Z" id="path_4"/><path fill="@color/yellow" d="M 8.617,6.269 C 8.623,6.283 8.651,6.276 8.64,6.263 8.633,6.269 8.625,6.264 8.617,6.269 Z" id="path_5"/><path fill="@color/yellow" d="M 8.601,6.317 C 8.604,6.314 8.607,6.31 8.61,6.307 8.604,6.301 8.609,6.295 8.6,6.289 8.596,6.292 8.593,6.295 8.59,6.299 8.596,6.305 8.591,6.311 8.601,6.317 Z" id="path_6"/><path fill="@color/yellow" d="M 8.57,6.743 C 8.596,6.751 8.62,6.73 8.645,6.72 8.619,6.711 8.594,6.725 8.57,6.743 Z" id="path_7"/><path fill="@color/yellow" d="m 2.759,8.909 c 0,10e-4 0.002,0.004 0,0.004 C 2.758,8.913 2.757,8.91 2.757,8.909 L 2.755,8.91 v 10e-4 c 0,0.001 -10e-4,0.002 -0.002,0.002 0,0 -0.001,-10e-4 -0.001,-0.002 L 2.75,8.912 c 0,0.002 -0.003,0.003 0,0.006 L 2.752,8.917 c 0.001,0 0.003,-0.002 0.004,10e-4 C 2.76,8.917 2.765,8.914 2.761,8.907 Z" id="path_8"/><path fill="@color/yellow" d="M 2.745,8.722 C 2.744,8.722 2.742,8.724 2.741,8.721 L 2.739,8.722 2.741,8.728 c -10e-4,0.003 0,0.005 -0.002,0.006 L 2.74,8.737 C 2.747,8.736 2.74,8.724 2.749,8.725 L 2.748,8.722 Z" id="path_9"/><path fill="@color/yellow" d="M 2.741,8.92 C 2.739,8.92 2.739,8.917 2.738,8.916 H 2.736 c 10e-4,10e-4 0,0.002 0,0.003 C 2.736,8.918 2.735,8.918 2.735,8.917 2.731,8.918 2.733,8.926 2.727,8.925 2.728,8.926 2.728,8.928 2.727,8.929 2.726,8.928 2.726,8.926 2.725,8.925 L 2.721,8.926 c 0,0.003 0.002,0.005 10e-4,0.006 C 2.721,8.932 2.721,8.929 2.72,8.927 L 2.717,8.928 2.718,8.93 c 0,10e-4 -10e-4,0.002 -10e-4,0.002 L 2.718,8.936 2.72,8.935 c 10e-4,-0.001 0.002,0 0.002,0.002 L 2.724,8.936 c 10e-4,0 0.003,-0.002 0.004,10e-4 C 2.731,8.935 2.731,8.929 2.737,8.929 L 2.738,8.926 C 2.743,8.924 2.744,8.919 2.747,8.916 L 2.746,8.913 C 2.744,8.914 2.742,8.917 2.741,8.92 Z" id="path_10"/><path fill="@color/yellow" d="m 2.914,8.581 c 0,0 -0.001,-10e-4 -0.002,-0.002 L 2.909,8.58 c 0.001,10e-4 0,0.002 0,0.002 -10e-4,0 -0.002,-0.002 -0.002,-0.002 0,0 0,-0.002 10e-4,-0.002 L 2.907,8.574 C 2.904,8.575 2.902,8.576 2.9,8.579 L 2.901,8.581 C 2.901,8.583 2.899,8.583 2.898,8.583 2.897,8.584 2.894,8.585 2.894,8.581 L 2.892,8.582 c 0,10e-4 10e-4,0.003 10e-4,0.004 L 2.889,8.583 C 2.88,8.58 2.887,8.593 2.881,8.595 l 0.001,0.002 c 0,0.001 0,0.002 -0.001,0.002 L 2.882,8.602 H 2.883 C 2.885,8.603 2.885,8.607 2.886,8.61 H 2.888 C 2.89,8.61 2.89,8.613 2.89,8.614 L 2.893,8.613 c 0.001,0 0.001,0.002 0.002,0.003 L 2.897,8.615 c 0.001,0 0.003,-0.002 0.004,10e-4 L 2.903,8.615 c -10e-4,-10e-4 0,-0.002 0,-0.003 0.002,0 0.002,0.003 0.003,0.004 0.004,0 10e-4,-0.008 0.006,-0.007 L 2.911,8.607 c -10e-4,0 -0.002,0 -0.002,-10e-4 0,-10e-4 0,-0.002 0.001,-10e-4 L 2.909,8.601 C 2.908,8.601 2.907,8.6 2.907,8.6 2.908,8.599 2.908,8.594 2.911,8.595 L 2.91,8.591 c -0.002,0 -0.004,0.002 -0.006,0 C 2.904,8.589 2.906,8.59 2.907,8.589 2.906,8.586 2.904,8.582 2.904,8.579 2.906,8.581 2.907,8.586 2.908,8.59 2.912,8.59 2.909,8.584 2.913,8.583 2.914,8.584 2.915,8.584 2.915,8.585 L 2.917,8.584 2.916,8.58 Z" id="path_11"/><path fill="@color/yellow" d="m 3.172,9.672 c -0.001,0 -0.002,0 -0.002,-0.001 0,-10e-4 0,-0.002 10e-4,-0.002 L 3.17,9.666 c -10e-4,0 -10e-4,0 -0.002,-0.001 0,0 0,-0.002 10e-4,-0.002 C 3.168,9.66 3.168,9.654 3.165,9.655 c 0,-10e-4 0,-0.002 10e-4,-0.002 L 3.163,9.645 C 3.16,9.64 3.157,9.644 3.154,9.643 3.154,9.64 3.158,9.639 3.155,9.635 3.151,9.636 3.149,9.637 3.148,9.639 3.147,9.639 3.147,9.638 3.146,9.637 L 3.144,9.639 3.145,9.642 c 10e-4,0.002 0,0.003 -10e-4,0.003 L 3.145,9.648 C 3.147,9.651 3.146,9.654 3.143,9.654 L 3.144,9.658 C 3.144,9.66 3.143,9.66 3.142,9.66 L 3.143,9.663 3.145,9.662 C 3.145,9.661 3.143,9.658 3.144,9.657 l 10e-4,10e-4 c 0.003,0.004 0,0.006 10e-4,0.009 0,0 -0.002,-10e-4 -0.002,-0.002 L 3.143,9.666 3.144,9.669 c 10e-4,0 10e-4,0 0.002,10e-4 0,10e-4 0,0.002 -10e-4,0.002 L 3.148,9.68 3.15,9.679 c -10e-4,-10e-4 0,-0.002 0,-0.003 0,0 0.002,-10e-4 0.003,0 0,0.005 -0.004,0.006 -0.002,0.012 0.001,-0.001 0.002,0 0.002,0 0,0.003 -0.004,0.004 -10e-4,0.008 0.003,0 0.006,-0.003 0.01,-0.002 L 3.163,9.696 3.165,9.695 3.163,9.694 c 0,-0.002 0.001,-0.002 0.002,-0.002 10e-4,10e-4 0.002,0.002 0.002,0.003 H 3.17 L 3.168,9.691 c -0.001,0 -0.002,0.002 -0.004,0 0,-0.002 0.002,-0.002 0.003,-0.002 0,-0.002 -0.002,-0.005 -10e-4,-0.006 10e-4,0 0.002,-10e-4 0.003,0 0,10e-4 0,0.002 0,0.002 V 9.689 L 3.173,9.688 3.172,9.683 C 3.171,9.681 3.172,9.68 3.174,9.68 L 3.172,9.677 c 0,-10e-4 0,-0.002 10e-4,-0.002 z" id="path_12"/><path fill="@color/yellow" d="M 2.989,9.009 C 2.991,9.008 2.993,9.007 2.995,9.008 2.994,9.011 2.991,9.01 2.99,9.011 l 10e-4,0.004 h 10e-4 c 0.002,0 0.002,0.003 0.003,0.004 10e-4,10e-4 0,0.003 -10e-4,0.003 L 2.995,9.025 3.003,9.022 2.999,9.014 c -10e-4,0 -0.002,0.001 -0.003,0 0,-0.002 10e-4,-0.002 0.002,-0.002 L 2.997,9.006 c -10e-4,0 -0.002,10e-4 -0.003,-10e-4 0,-0.002 10e-4,-0.001 0.002,-0.002 L 2.995,9.001 H 2.992 v 0.001 c 0,0.003 -0.003,0.003 -0.005,0.003 z" id="path_13"/><path fill="@color/yellow" d="m 2.972,8.501 c 10e-4,0.001 0,0.002 0,0.002 C 2.971,8.503 2.97,8.501 2.97,8.5 2.97,8.498 2.971,8.499 2.972,8.498 L 2.971,8.495 2.969,8.496 V 8.497 C 2.969,8.499 2.968,8.498 2.967,8.499 2.966,8.499 2.965,8.496 2.965,8.495 2.96,8.494 2.96,8.5 2.958,8.502 2.958,8.502 2.957,8.501 2.957,8.5 L 2.954,8.501 2.955,8.503 C 2.956,8.504 2.957,8.508 2.96,8.506 2.961,8.505 2.964,8.505 2.964,8.508 2.967,8.507 2.97,8.505 2.972,8.506 L 2.973,8.507 2.977,8.506 2.975,8.501 Z" id="path_14"/><path fill="@color/yellow" d="M 3.487,9.631 C 3.478,9.623 3.465,9.618 3.456,9.618 3.443,9.618 3.434,9.623 3.429,9.631 3.42,9.644 3.412,9.653 3.412,9.671 c 0,0.013 0.009,0.022 0.018,0.035 0.005,0.009 0.014,0.013 0.027,0.013 0.009,0 0.022,-0.005 0.031,-0.014 C 3.497,9.692 3.502,9.684 3.501,9.67 3.501,9.653 3.497,9.644 3.487,9.631 Z" id="path_15"/><path fill="@color/yellow" d="m 2.776,8.718 c -10e-4,0 -0.002,-0.002 -0.002,-0.003 0,0 0,-0.002 10e-4,-0.002 L 2.774,8.71 2.772,8.711 c 0,10e-4 0,0.002 0,0.003 C 2.77,8.711 2.769,8.707 2.768,8.703 2.763,8.704 2.759,8.707 2.754,8.706 V 8.704 L 2.751,8.705 c 10e-4,10e-4 10e-4,0.005 0.003,0.004 0.002,0 10e-4,0.003 0.002,0.004 0.001,0.002 0.002,0.005 0,0.005 l 0.001,0.003 c 0.002,0 0.005,-0.003 0.008,-10e-4 0,10e-4 0,0.002 -0.001,0.002 L 2.765,8.725 2.767,8.724 c 0.002,0 0.002,0.003 0.003,0.004 10e-4,0 0.003,-0.002 0.004,0 0,0.002 0,0.003 -10e-4,0.003 L 2.774,8.734 2.776,8.733 c 0.001,0 0.001,0 0.001,0.002 L 2.78,8.734 c -0.002,-0.005 0,-0.006 0,-0.009 L 2.779,8.717 Z" id="path_16"/><path fill="@color/yellow" d="M 7.053,9.765 C 7.054,9.772 7.046,9.768 7.042,9.769 7.042,9.772 7.037,9.771 7.039,9.775 H 7.043 V 9.774 C 7.044,9.772 7.045,9.773 7.047,9.773 c 0,10e-4 0.001,10e-4 0.001,0.002 H 7.06 V 9.771 H 7.059 C 7.056,9.77 7.057,9.767 7.057,9.765 Z" id="path_17"/><path fill="@color/yellow" d="M 7.426,9.644 C 7.421,9.642 7.423,9.648 7.419,9.647 v 0.004 c 0.001,0 0.003,0 0.003,10e-4 0,0.002 -0.002,0.001 -0.003,0.001 v 0.004 c 0,0 -10e-4,0.002 -0.003,0.002 V 9.663 H 7.422 V 9.659 C 7.42,9.653 7.425,9.652 7.428,9.653 V 9.649 H 7.427 C 7.425,9.648 7.426,9.645 7.426,9.644 Z" id="path_18"/><path fill="@color/yellow" d="M 7.526,9.567 C 7.527,9.564 7.529,9.566 7.531,9.565 7.532,9.557 7.528,9.554 7.526,9.548 c 0,0 0.001,-10e-4 0.002,-10e-4 V 9.543 C 7.523,9.541 7.524,9.549 7.519,9.546 V 9.549 C 7.518,9.549 7.517,9.55 7.516,9.55 V 9.554 H 7.52 c 0,-0.002 -10e-4,-0.003 0.001,-0.004 0.001,0 0.003,0 0.004,0.002 -0.001,0 -0.002,0.001 -0.003,0 v 0.004 c 10e-4,0 10e-4,0.001 0.003,0.002 -0.004,0 -0.002,0.006 -0.006,0.004 C 7.516,9.567 7.524,9.565 7.525,9.569 7.524,9.57 7.523,9.571 7.522,9.571 v 0.004 h 0.002 c 0,-0.002 0.005,-0.002 0.003,-0.006 0,-0.001 -0.001,-0.002 -0.001,-0.002 z" id="path_19"/><path fill="@color/yellow" d="M 7.406,9.641 V 9.637 C 7.397,9.634 7.4,9.65 7.389,9.644 V 9.648 H 7.39 C 7.392,9.649 7.391,9.652 7.391,9.653 H 7.394 V 9.649 C 7.395,9.647 7.397,9.647 7.397,9.647 V 9.645 C 7.4,9.645 7.4,9.644 7.401,9.644 7.402,9.645 7.402,9.647 7.403,9.648 H 7.406 V 9.644 C 7.405,9.644 7.402,9.645 7.401,9.643 7.402,9.641 7.405,9.642 7.406,9.641 Z" id="path_20"/><path fill="@color/yellow" d="M 7.41,9.656 H 7.407 v 10e-4 c -0.003,0.002 -0.009,0.002 -0.013,0 V 9.656 H 7.391 c 0,10e-4 0,0.002 -0.001,0.003 C 7.388,9.658 7.387,9.657 7.387,9.656 H 7.384 c 0,0.003 10e-4,0.004 0.002,0.005 -0.001,0.003 -0.007,0.003 -0.005,0.008 10e-4,-0.001 0.002,0 0.002,0 0,10e-4 0,0.002 -0.002,0.002 v 0.004 h 0.014 c 0,-0.002 0,-0.003 0.001,-0.004 0.002,0.001 0.001,0.004 0.001,0.006 H 7.4 V 9.675 C 7.401,9.673 7.403,9.674 7.405,9.674 V 9.671 C 7.406,9.67 7.406,9.669 7.408,9.67 7.411,9.667 7.415,9.664 7.414,9.657 H 7.41 c 0,0 -0.001,0 0,-10e-4 z" id="path_21"/><path fill="@color/yellow" d="M 4.337,9.004 C 4.348,8.994 4.33,8.97 4.35,8.964 4.326,8.959 4.331,8.926 4.319,8.918 4.315,8.923 4.313,8.93 4.31,8.936 L 4.316,8.998 C 4.317,8.998 4.319,8.997 4.32,8.997 4.319,9.001 4.318,9.005 4.317,9.009 L 4.323,9.067 C 4.342,9.071 4.36,9.062 4.374,9.04 4.364,9.024 4.351,9.013 4.337,9.004 Z" id="path_22"/><path fill="@color/yellow" d="M 7.246,7.599 7.269,7.59 7.286,7.523 6.557,7.313 6.578,7.246 6.354,7.232 6.404,7.254 6.319,7.264 6.139,7.187 5.862,6.638 H 5.884 L 5.896,6.505 5.797,6.497 5.769,6.44 5.862,6.337 5.737,6.387 5.643,6.323 C 5.641,6.32 5.639,6.315 5.637,6.313 H 5.636 C 5.635,6.313 5.635,6.312 5.634,6.311 L 5.631,6.313 c -0.001,0 -0.001,0 -0.002,0 L 5.628,6.312 c 0,0 0,0 -0.001,-0.001 v 0 L 5.574,6.275 4.99,7.375 4.016,7.57 4.012,7.624 4.494,8.125 4.699,8.365 4.615,8.92 C 4.619,8.919 4.623,8.918 4.628,8.919 4.627,8.926 4.627,8.932 4.62,8.936 4.626,8.954 4.635,8.945 4.63,8.961 4.621,8.962 4.618,8.952 4.61,8.953 L 4.603,8.997 C 4.607,8.999 4.611,9.001 4.615,9.002 4.613,9.019 4.622,9.04 4.613,9.054 4.643,9.073 4.679,9.032 4.673,9.003 4.692,9.008 4.692,9.022 4.71,9.047 4.709,9.019 4.73,8.99 4.71,8.968 4.727,8.958 4.719,8.96 4.737,8.944 4.741,8.954 4.743,8.969 4.753,8.967 4.754,8.981 4.748,8.983 4.736,8.98 4.742,8.99 4.752,8.99 4.766,8.983 4.775,8.995 4.756,9.01 4.78,9 4.795,9.035 4.787,9.059 4.8,9.093 4.776,9.099 4.756,9.096 4.736,9.095 4.747,9.121 4.72,9.165 4.683,9.186 4.671,9.17 4.686,9.166 4.678,9.152 4.664,9.147 4.661,9.171 4.633,9.168 4.618,9.149 4.596,9.123 4.588,9.1 L 4.499,9.685 4.562,9.728 5.141,9.391 C 5.141,9.387 5.14,9.382 5.14,9.376 5.153,9.362 5.173,9.385 5.172,9.364 5.175,9.366 5.178,9.368 5.18,9.369 L 5.292,9.304 C 5.276,9.306 5.266,9.296 5.26,9.275 5.281,9.271 5.278,9.255 5.302,9.252 5.312,9.271 5.313,9.285 5.305,9.296 L 5.356,9.266 5.451,9.309 5.473,9.291 5.502,9.158 5.559,9.104 6.647,9.694 6.709,9.662 6.596,8.342 Z M 4.627,9.249 C 4.614,9.243 4.6,9.21 4.626,9.206 4.636,9.22 4.655,9.241 4.627,9.249 Z M 4.763,9.285 C 4.759,9.264 4.744,9.27 4.751,9.254 4.757,9.252 4.764,9.249 4.77,9.247 4.773,9.263 4.787,9.256 4.788,9.276 4.78,9.279 4.771,9.282 4.763,9.285 Z M 5.083,8.81 C 5.094,8.811 5.102,8.82 5.107,8.836 5.092,8.837 5.074,8.827 5.083,8.81 Z M 4.709,8.904 C 4.702,8.888 4.711,8.881 4.71,8.868 4.721,8.877 4.725,8.892 4.745,8.905 4.747,8.933 4.719,8.913 4.709,8.904 Z M 4.744,8.862 C 4.727,8.865 4.734,8.838 4.749,8.839 4.75,8.848 4.742,8.853 4.744,8.862 Z M 4.873,8.98 C 4.856,8.981 4.838,8.986 4.824,8.984 4.826,8.972 4.82,8.957 4.842,8.955 4.835,8.941 4.816,8.951 4.812,8.93 4.831,8.92 4.84,8.93 4.854,8.929 4.849,8.961 4.876,8.951 4.873,8.98 Z M 4.942,9.169 C 4.937,9.157 4.933,9.144 4.928,9.131 4.937,9.128 4.945,9.125 4.953,9.122 4.96,9.143 4.958,9.159 4.942,9.169 Z M 4.93,9.038 C 4.928,9.033 4.927,9.029 4.925,9.025 4.931,9.024 4.93,9.02 4.929,9.016 4.933,9.014 4.937,9.013 4.942,9.011 4.943,9.018 4.947,9.017 4.95,9.016 4.952,9.02 4.953,9.024 4.955,9.028 4.949,9.029 4.95,9.033 4.951,9.037 4.947,9.039 4.943,9.04 4.938,9.042 4.937,9.036 4.934,9.037 4.93,9.038 Z M 4.971,9.151 C 5.005,9.136 5.002,9.08 5.04,9.083 5.048,9.1 5.031,9.107 5.015,9.114 5.02,9.125 5.027,9.134 5.037,9.135 5.024,9.149 5.026,9.171 5.004,9.182 5,9.158 4.978,9.171 4.971,9.151 Z M 5.023,9.233 C 5.004,9.215 5.032,9.193 5.015,9.193 5.033,9.169 5.049,9.201 5.07,9.187 5.075,9.206 5.07,9.222 5.059,9.234 5.044,9.241 5.036,9.231 5.023,9.233 Z M 5.071,9.266 C 5.065,9.24 5.084,9.226 5.101,9.211 5.104,9.234 5.102,9.275 5.071,9.266 Z M 5.064,9.11 C 5.05,9.088 5.084,9.078 5.097,9.084 5.095,9.097 5.083,9.105 5.064,9.11 Z M 5.092,9.05 C 5.067,9.054 5.089,9.027 5.064,9.031 5.061,9.007 5.079,9.025 5.099,9.011 5.115,9.032 5.093,9.037 5.092,9.05 Z M 5.152,8.92 C 5.141,8.926 5.118,8.925 5.131,8.942 5.115,8.947 5.103,8.942 5.096,8.926 5.101,8.918 5.141,8.912 5.114,8.898 5.12,8.878 5.15,8.896 5.152,8.92 Z M 5.237,9.042 C 5.219,9.013 5.248,9.005 5.261,8.99 5.255,9.008 5.269,9.036 5.237,9.042 Z M 5.425,6.813 C 5.415,6.785 5.421,6.758 5.414,6.745 5.45,6.743 5.444,6.797 5.425,6.813 Z m 0.89,2.426 C 6.302,9.245 6.293,9.241 6.289,9.227 6.298,9.231 6.313,9.22 6.315,9.239 Z" id="path_23"/><path fill="@color/yellow" d="M 4.641,9.151 C 4.67,9.138 4.688,9.12 4.71,9.104 4.693,9.088 4.658,9.111 4.634,9.11 4.646,9.128 4.63,9.133 4.641,9.151 Z" id="path_24"/><path fill="@color/yellow" d="M 6.086,6.733 6.088,6.732 V 6.731 c 0,-0.002 0.001,-0.002 0.001,-0.002 10e-4,0 0.002,0.001 0.002,0.002 L 6.114,6.723 6.113,6.72 6.111,6.721 C 6.11,6.72 6.11,6.718 6.11,6.717 6.11,6.715 6.111,6.715 6.112,6.715 L 6.109,6.707 6.107,6.708 C 6.105,6.706 6.104,6.702 6.104,6.7 6.103,6.7 6.102,6.701 6.1,6.7 6.1,6.699 6.1,6.698 6.101,6.699 L 6.1,6.696 c -10e-4,0 -0.003,-0.005 -0.005,-0.002 0,0.002 0.002,0.004 0.001,0.005 0,0 -0.001,-10e-4 -0.002,-0.002 -0.004,0.001 -0.01,0 -0.011,0.005 0.002,0.005 -0.002,0.006 10e-4,0.011 0.001,0 0.002,-0.002 0.003,0 0,0.002 -0.002,0.002 -0.003,0.002 l 0.001,0.004 c 0,0.002 -0.001,0.002 -0.002,0.002 l 10e-4,0.003 c 0.002,0 0.004,-0.002 0.006,0 0,0.002 -0.003,10e-4 -0.004,0.002 0,0.002 -0.003,0.004 0,0.007 z" id="path_25"/><path fill="@color/yellow" d="m 2.888,9.672 c 0,-0.002 0.003,-0.003 0,-0.007 0,0.001 -10e-4,0 -0.002,0 0,-10e-4 0,-0.002 10e-4,-0.002 L 2.886,9.659 C 2.882,9.661 2.876,9.66 2.875,9.665 c 0,0 -10e-4,-10e-4 -10e-4,-0.002 L 2.871,9.664 C 2.872,9.669 2.867,9.667 2.865,9.669 2.867,9.676 2.857,9.672 2.857,9.678 c 0,0 -0.001,-0.001 -0.001,-0.002 -0.005,0 -0.003,0.005 -0.007,0.005 L 2.85,9.685 H 2.851 C 2.853,9.686 2.853,9.69 2.854,9.692 2.856,9.696 2.861,9.695 2.858,9.689 2.859,9.689 2.86,9.69 2.86,9.691 L 2.862,9.69 c 0,-0.005 0.007,-0.004 0.01,-0.006 L 2.871,9.681 c 0,-0.002 10e-4,-0.002 0.002,-0.002 10e-4,0 0.002,0.002 0.002,0.003 l 0.002,-0.001 0,-0.002 c 0,-0.002 0.001,-0.002 0.001,-0.002 0.002,0 0.002,0.002 0.003,0.003 0.003,0 0,-0.01 0.007,-0.008 z" id="path_26"/><path fill="@color/yellow" d="M 4.175,2.854 C 4.17,2.85 4.165,2.846 4.159,2.842 4.149,2.853 4.151,2.862 4.163,2.87 4.167,2.865 4.171,2.859 4.175,2.854 Z" id="path_27"/><path fill="@color/yellow" d="m 7.547,9.592 c 0,0.002 -0.002,10e-4 -0.003,10e-4 0,0 -10e-4,-10e-4 -10e-4,-0.003 0,-10e-4 10e-4,-0.002 0.002,-10e-4 V 9.583 H 7.542 c 0,0.002 0.001,0.003 -10e-4,0.004 C 7.539,9.583 7.54,9.577 7.539,9.572 7.532,9.569 7.537,9.581 7.531,9.577 V 9.581 H 7.534 C 7.536,9.583 7.535,9.586 7.535,9.59 h 0.002 c 0,0 0.001,10e-4 0.001,0.003 H 7.542 C 7.544,9.594 7.543,9.597 7.543,9.599 H 7.546 V 9.596 c 0,-0.002 0.002,-0.002 0.003,-0.002 V 9.59 H 7.546 Z" id="path_28"/><path fill="@color/yellow" d="M 2.931,8.539 2.917,8.543 2.92,8.55 2.922,8.549 2.921,8.547 C 2.923,8.545 2.928,8.543 2.931,8.544 2.931,8.546 2.928,8.546 2.926,8.547 L 2.927,8.55 2.93,8.549 C 2.933,8.548 2.933,8.552 2.934,8.554 2.94,8.556 2.933,8.547 2.938,8.549 2.938,8.546 2.943,8.544 2.939,8.538 2.936,8.539 2.933,8.543 2.931,8.539 Z" id="path_29"/><path fill="@color/yellow" d="M 2.91,9.654 C 2.909,9.654 2.909,9.653 2.908,9.652 L 2.906,9.653 C 2.905,9.653 2.903,9.655 2.902,9.652 2.896,9.651 2.898,9.659 2.892,9.658 l 10e-4,0.003 c 0.002,0 0.004,-0.002 0.006,0 0,0.002 -10e-4,0.001 -0.002,0.002 l 0.001,0.003 c 0,10e-4 0,0.002 -0.001,0.002 L 2.898,9.671 H 2.899 C 2.9,9.671 2.9,9.673 2.901,9.674 2.904,9.673 2.908,9.671 2.911,9.672 V 9.673 L 2.913,9.672 c 0.002,0 0,-0.002 0.002,-0.003 0,0 0.002,10e-4 0.002,0.002 C 2.923,9.673 2.915,9.665 2.919,9.664 2.917,9.662 2.915,9.655 2.912,9.654 Z" id="path_30"/><path fill="@color/yellow" d="m 5.693,5.159 c -0.002,0 -0.002,-0.003 -0.002,-0.004 -0.005,0 -0.005,0.005 -0.007,0.007 0,0 -0.001,-0.001 -0.001,-0.002 L 5.68,5.161 v 0.002 c 0.002,0 0.003,0.005 0.005,0.003 C 5.687,5.165 5.689,5.164 5.69,5.168 5.693,5.167 5.696,5.165 5.698,5.166 L 5.699,5.167 5.703,5.166 5.7,5.161 H 5.698 c 0,0 0,0.001 0,0.002 -0.001,0 -0.002,-0.002 -0.002,-0.003 0,-0.002 0.001,-0.002 0.002,-0.002 L 5.697,5.155 5.694,5.156 v 0.001 c 0.001,0.002 0,0.002 -0.001,0.002 z" id="path_31"/><path fill="@color/yellow" d="m 5.898,6.332 c -10e-4,0 -10e-4,0 -0.002,-10e-4 0,-0.001 0,-0.002 0.001,-0.002 L 5.896,6.326 c -0.001,0 -0.001,0 -0.002,-10e-4 0,0 0,-0.002 10e-4,-0.002 C 5.893,6.32 5.893,6.314 5.89,6.315 c 0,-0.001 0,-0.002 0.001,-0.002 L 5.889,6.305 C 5.886,6.3 5.883,6.304 5.88,6.303 5.88,6.3 5.884,6.299 5.881,6.295 5.877,6.295 5.875,6.297 5.873,6.299 5.872,6.299 5.872,6.298 5.871,6.297 L 5.869,6.298 5.87,6.301 c 0.001,0.002 0,0.003 -0.001,0.003 L 5.87,6.308 C 5.871,6.311 5.871,6.314 5.868,6.314 L 5.87,6.318 C 5.87,6.32 5.869,6.32 5.869,6.32 V 6.324 L 5.871,6.323 C 5.871,6.322 5.869,6.319 5.87,6.318 l 0.001,0.001 c 0.003,0.004 0,0.006 10e-4,0.009 -10e-4,0 -10e-4,-0.001 -10e-4,-0.001 H 5.868 L 5.869,6.33 c 0.001,0 0.002,0 0.002,0.001 0,0 0,0.002 -0.001,10e-4 L 5.873,6.34 5.875,6.339 c 0,-0.001 0,-0.002 0,-0.002 0.001,-10e-4 0.002,-0.002 0.003,0 0,0.005 -0.004,0.006 -0.002,0.012 H 5.878 C 5.878,6.352 5.874,6.353 5.877,6.357 5.88,6.356 5.884,6.354 5.887,6.355 L 5.888,6.357 H 5.89 L 5.889,6.354 C 5.889,6.353 5.89,6.352 5.891,6.352 5.892,6.353 5.893,6.354 5.893,6.356 L 5.895,6.355 5.894,6.351 c -0.001,0 -0.002,0.002 -0.004,0 C 5.89,6.349 5.892,6.349 5.893,6.349 5.892,6.347 5.891,6.344 5.892,6.343 c 10e-4,0 0.002,-0.001 0.003,0 0,0.001 0,0.002 -10e-4,0.001 L 5.895,6.348 5.899,6.347 5.897,6.343 C 5.896,6.341 5.897,6.34 5.899,6.34 L 5.898,6.337 c 0,-10e-4 0,-0.002 0.001,-0.002 z" id="path_32"/><path fill="@color/yellow" d="M 5.653,5.21 5.655,5.209 C 5.657,5.208 5.658,5.212 5.659,5.214 5.664,5.216 5.658,5.207 5.663,5.209 c 0,-0.003 0.005,-0.005 10e-4,-0.01 -0.003,0 -0.006,0.004 -0.008,0 L 5.643,5.203 5.645,5.21 5.647,5.209 l 0,-0.002 c 0.002,-0.003 0.007,-0.004 0.01,-0.004 0,0.003 -0.003,0.003 -0.005,0.004 z" id="path_33"/><path fill="@color/yellow" d="M 5.714,5.669 C 5.716,5.668 5.718,5.667 5.72,5.668 5.719,5.671 5.717,5.67 5.715,5.671 l 0.001,0.004 h 10e-4 c 0.001,0 0.002,0.003 0.003,0.004 0.001,10e-4 0,0.003 -10e-4,0.003 L 5.72,5.685 5.728,5.682 5.725,5.674 c -10e-4,0 -0.002,10e-4 -0.003,0 0,-0.002 10e-4,-0.001 0.002,-0.002 L 5.722,5.666 C 5.721,5.666 5.72,5.667 5.719,5.665 5.719,5.663 5.72,5.664 5.721,5.663 L 5.72,5.661 H 5.718 V 5.662 C 5.717,5.665 5.715,5.665 5.713,5.665 Z" id="path_34"/><path fill="@color/yellow" d="m 4.594,9.061 v 0 0 c 0,0 0,0 0,0 z" id="path_35"/><path fill="@color/yellow" d="M 5.477,5.571 H 5.475 c 0,0.002 -0.003,0.003 0,0.007 L 5.477,5.577 C 5.478,5.577 5.48,5.575 5.481,5.578 5.485,5.577 5.49,5.574 5.486,5.567 L 5.484,5.569 C 5.485,5.57 5.486,5.572 5.485,5.573 5.483,5.573 5.483,5.57 5.483,5.569 L 5.48,5.57 v 10e-4 c 0,0.002 -0.001,0.002 -0.002,0.002 0,0 -10e-4,-0.001 -10e-4,-0.002 z" id="path_36"/><path fill="@color/yellow" d="m 5.639,5.242 c 0,0.001 10e-4,0.001 10e-4,0.002 L 5.642,5.243 5.641,5.24 5.639,5.241 C 5.638,5.241 5.638,5.24 5.637,5.239 L 5.635,5.24 c 0.001,10e-4 0,0.002 0,0.002 -10e-4,0 -0.002,-0.002 -0.002,-0.002 0,0 0,-0.002 0.001,-0.002 L 5.633,5.234 C 5.63,5.235 5.628,5.236 5.626,5.239 L 5.627,5.241 C 5.627,5.243 5.625,5.243 5.624,5.243 5.623,5.244 5.62,5.245 5.62,5.241 L 5.617,5.242 c 0,0.001 0.001,0.003 0.001,0.004 L 5.615,5.243 C 5.605,5.241 5.613,5.253 5.607,5.255 l 10e-4,0.002 c 0,0.001 0,0.002 -10e-4,0.001 L 5.608,5.261 H 5.609 C 5.61,5.263 5.611,5.267 5.612,5.27 L 5.614,5.269 c 0.002,0 0.002,0.003 0.002,0.005 L 5.619,5.273 c 0.001,0 0.001,0.002 0.002,0.003 L 5.623,5.275 c 10e-4,0 0.003,-0.002 0.004,10e-4 L 5.629,5.275 c -10e-4,-0.001 0,-0.002 0,-0.003 0.002,0 0.002,0.003 0.003,0.004 0.004,0 0.001,-0.008 0.006,-0.007 L 5.637,5.267 c -10e-4,0 -0.002,-0.001 -0.002,-0.001 0,-0.001 0,-0.002 0.001,-0.002 L 5.635,5.261 c -10e-4,0 -0.002,0 -0.002,-0.001 C 5.634,5.258 5.634,5.254 5.637,5.255 L 5.636,5.251 c -0.002,0 -0.004,0.002 -0.006,0 C 5.63,5.249 5.632,5.25 5.633,5.249 5.631,5.246 5.629,5.242 5.63,5.239 c 0.002,0.002 0.003,0.007 0.004,0.01 0.004,0 10e-4,-0.006 0.005,-0.007 z" id="path_37"/><path fill="@color/yellow" d="M 5.472,5.573 C 5.469,5.574 5.467,5.577 5.467,5.58 5.465,5.58 5.465,5.577 5.464,5.576 l -0.002,0 c 0,0 0,0.002 0,0.003 C 5.462,5.578 5.461,5.578 5.46,5.577 5.457,5.578 5.459,5.586 5.453,5.584 c 10e-4,0.002 10e-4,0.003 0,0.004 -0.001,0 -0.001,-0.002 -0.002,-0.003 L 5.447,5.586 c 0,0.003 0.002,0.005 0.001,0.006 -0.002,0 -0.001,-0.003 -0.003,-0.005 L 5.443,5.588 5.444,5.59 c 0,0.001 0,0.002 -0.001,0.002 L 5.444,5.595 5.446,5.594 c 0.001,-0.001 0.002,0 0.002,0.002 L 5.45,5.595 c 10e-4,0 0.003,-0.002 0.004,0.001 C 5.457,5.593 5.457,5.588 5.463,5.588 L 5.464,5.586 C 5.468,5.584 5.47,5.58 5.473,5.577 Z" id="path_38"/><path fill="@color/yellow" d="M 3.497,9.342 C 3.51,9.342 3.519,9.337 3.528,9.328 3.532,9.319 3.537,9.31 3.536,9.297 3.536,9.288 3.531,9.275 3.527,9.271 3.518,9.263 3.509,9.258 3.495,9.258 3.486,9.258 3.482,9.263 3.473,9.272 3.469,9.276 3.46,9.29 3.46,9.298 c 0,0.013 0.009,0.022 0.014,0.03 0.009,0.01 0.014,0.014 0.023,0.014 z" id="path_39"/><path fill="@color/yellow" d="M 5.821,5.16 C 5.821,5.158 5.82,5.155 5.819,5.155 5.816,5.154 5.818,5.151 5.818,5.151 5.816,5.147 5.816,5.141 5.813,5.142 c 0,-0.001 0,-0.002 0.001,-0.002 L 5.813,5.136 H 5.812 C 5.81,5.136 5.81,5.133 5.809,5.132 L 5.807,5.133 C 5.808,5.134 5.81,5.137 5.809,5.138 5.806,5.137 5.807,5.132 5.804,5.133 c 0,0 0,-0.002 10e-4,-0.001 L 5.804,5.128 H 5.803 C 5.801,5.127 5.801,5.125 5.8,5.122 L 5.798,5.123 c 0,10e-4 0.001,0.003 0.001,0.004 -0.002,0 -0.002,-0.002 -0.002,-0.003 L 5.794,5.125 c 0,0 -10e-4,-0.001 -10e-4,-0.002 L 5.79,5.124 C 5.789,5.125 5.788,5.123 5.788,5.122 L 5.777,5.126 c -0.002,0.003 0,0.007 10e-4,0.011 C 5.775,5.138 5.78,5.146 5.774,5.144 L 5.784,5.172 5.789,5.17 C 5.791,5.176 5.795,5.175 5.796,5.182 L 5.798,5.181 C 5.799,5.184 5.8,5.188 5.801,5.19 L 5.807,5.188 C 5.806,5.186 5.804,5.182 5.804,5.18 5.807,5.182 5.807,5.187 5.809,5.19 L 5.819,5.187 C 5.82,5.184 5.819,5.179 5.825,5.179 L 5.824,5.177 c 0,-10e-4 0,-0.002 0.001,-0.002 L 5.822,5.167 5.82,5.168 c 10e-4,10e-4 0,0.002 0,0.003 C 5.815,5.166 5.821,5.164 5.821,5.16 Z" id="path_40"/><path fill="@color/yellow" d="M 2.987,3.889 2.766,4.308 2.78,4.325 C 2.688,4.51 2.606,4.696 2.528,4.885 2.506,4.939 2.507,4.991 2.531,5.043 2.541,5.065 2.551,5.087 2.551,5.108 2.592,5.348 2.615,5.593 2.623,5.834 2.629,5.964 2.638,6.092 2.649,6.22 2.659,6.23 2.66,6.241 2.652,6.254 2.663,6.377 2.676,6.5 2.691,6.623 2.694,6.627 2.695,6.632 2.693,6.637 2.716,6.821 2.743,7.004 2.775,7.186 2.776,7.185 2.777,7.185 2.778,7.184 2.796,7.209 2.782,7.216 2.818,7.231 2.813,7.233 2.807,7.236 2.801,7.243 2.795,7.236 2.789,7.232 2.783,7.23 2.79,7.27 2.797,7.31 2.805,7.349 2.836,7.537 2.867,7.721 2.889,7.904 2.889,7.939 2.894,7.97 2.9,8.001 2.903,8.018 2.906,8.035 2.909,8.052 2.913,8.047 2.919,8.043 2.924,8.043 2.937,8.058 2.923,8.062 2.912,8.072 2.913,8.081 2.914,8.09 2.916,8.099 2.923,8.089 2.93,8.079 2.937,8.07 2.982,8.098 3.044,8.116 3.032,8.167 3.009,8.174 2.997,8.108 2.974,8.156 2.96,8.15 2.969,8.141 2.975,8.132 2.958,8.144 2.938,8.132 2.918,8.115 2.92,8.129 2.921,8.143 2.922,8.157 2.93,8.16 2.939,8.162 2.945,8.16 2.954,8.175 2.957,8.19 2.952,8.207 2.944,8.198 2.939,8.204 2.933,8.21 2.93,8.206 2.928,8.204 2.925,8.201 c 0.001,0.013 0.002,0.026 0.002,0.04 0,0.013 0.005,0.026 0.015,0.044 0.048,0.061 0.068,0.13 0.064,0.209 L 3.023,8.389 C 3.094,8.427 3.119,8.471 3.115,8.537 L 3.086,8.529 3.093,8.527 C 3.095,8.525 3.094,8.519 3.099,8.519 L 3.098,8.517 c 0,-10e-4 0,-0.002 0.001,-0.002 L 3.096,8.507 3.094,8.508 c 0.001,0.001 0,0.002 0,0.003 C 3.09,8.505 3.095,8.504 3.096,8.5 3.096,8.499 3.095,8.495 3.094,8.495 3.091,8.494 3.094,8.491 3.093,8.49 3.091,8.488 3.091,8.481 3.088,8.482 c 0,-10e-4 0,-0.002 0,-0.002 V 8.476 H 3.087 C 3.085,8.476 3.085,8.473 3.084,8.471 L 3.082,8.473 c 0,0.002 0.002,0.004 0.001,0.005 C 3.08,8.477 3.081,8.472 3.079,8.473 c 0,0 0,-0.002 10e-4,-0.001 L 3.078,8.468 H 3.077 C 3.076,8.467 3.076,8.465 3.075,8.462 L 3.072,8.463 C 3.073,8.464 3.073,8.466 3.073,8.467 3.072,8.467 3.071,8.465 3.071,8.464 L 3.068,8.465 c 0,0 -10e-4,-10e-4 -10e-4,-0.002 L 3.065,8.464 C 3.064,8.465 3.062,8.463 3.062,8.462 L 3.051,8.466 c -0.003,0.002 0,0.007 10e-4,0.011 C 3.05,8.478 3.054,8.486 3.049,8.484 L 3.059,8.512 3.064,8.51 C 3.065,8.517 3.069,8.516 3.07,8.523 L 3.072,8.522 C 3.073,8.523 3.074,8.524 3.074,8.526 L 3.035,8.516 3.145,8.637 C 3.122,8.659 3.122,8.69 3.16,8.729 c 0,0.004 0,0.004 0.005,0.009 L 3.142,8.778 C 3.161,8.795 3.152,8.804 3.124,8.813 3.114,8.817 3.114,8.817 3.11,8.821 H 3.101 C 3.091,8.826 3.091,8.83 3.086,8.835 L 3.129,8.856 C 3.163,8.904 3.168,8.952 3.141,9.009 L 3.117,9.023 3.127,9.04 3.208,9.061 3.214,9.149 C 3.228,9.166 3.238,9.157 3.247,9.14 L 3.237,9.1 3.246,9.074 l 0.1,0.029 c -0.009,0.013 0,0.022 0.019,0.017 L 3.393,9.085 3.392,9.041 C 3.439,9.053 3.473,9.092 3.483,9.153 L 3.601,9.147 3.46,9.224 3.546,9.284 3.535,9.46 C 3.493,9.504 3.436,9.522 3.366,9.523 L 3.352,9.541 V 9.563 L 3.324,9.585 C 3.329,9.607 3.343,9.607 3.367,9.593 L 3.386,9.602 3.484,9.57 C 3.47,9.544 3.493,9.543 3.55,9.56 H 3.559 L 3.642,9.432 3.711,9.598 3.608,9.625 3.589,9.647 C 3.556,9.634 3.528,9.644 3.519,9.666 L 3.524,9.688 3.689,9.699 3.739,9.584 3.748,9.536 3.776,9.5 3.766,9.474 3.784,9.377 3.85,9.359 3.84,9.31 3.868,9.275 3.892,9.292 3.905,9.244 3.876,9.227 3.946,9.2 4.009,9.278 4.042,9.29 4.065,9.255 4.05,9.225 4.14,9.228 4.159,9.223 4.173,9.196 c 0.014,-0.009 0.024,0 0.024,0.022 L 4.225,9.222 4.262,9.187 C 4.262,9.112 4.261,9.041 4.265,8.967 4.265,8.959 4.269,8.949 4.274,8.939 4.268,8.93 4.268,8.917 4.272,8.906 4.285,8.9 4.295,8.903 4.306,8.901 v 0 0 C 4.312,8.9 4.318,8.899 4.325,8.894 4.314,8.887 4.3,8.888 4.295,8.869 4.315,8.834 4.363,8.871 4.355,8.897 4.36,8.902 4.365,8.906 4.372,8.905 4.377,8.899 4.373,8.888 4.386,8.885 4.388,8.92 4.391,8.951 4.395,8.98 4.398,8.968 4.4,8.954 4.401,8.939 4.414,8.851 4.432,8.768 4.449,8.68 4.467,8.61 4.471,8.54 4.47,8.469 4.469,8.43 4.455,8.399 4.426,8.378 4.359,8.33 4.297,8.27 4.249,8.209 4.201,8.148 4.148,8.096 4.091,8.049 4.089,8.047 4.086,8.046 4.084,8.043 4.079,8.055 4.058,8.063 4.046,8.057 4.036,8.04 4.05,8.033 4.066,8.028 4.042,8.006 4.018,7.986 4,7.963 3.851,7.807 3.735,7.642 3.638,7.46 3.638,7.429 3.666,7.411 3.718,7.411 3.756,7.397 3.779,7.401 3.794,7.41 L 3.789,7.471 3.836,7.483 3.841,7.509 3.907,7.526 3.861,7.483 3.883,7.408 C 3.921,7.421 3.944,7.416 3.968,7.394 V 7.385 C 3.939,7.381 3.949,7.376 4.001,7.376 4.081,7.375 4.161,7.352 4.236,7.316 4.25,7.306 4.269,7.302 4.288,7.297 4.49,7.246 4.688,7.177 4.876,7.1 4.92,6.911 5.022,6.747 5.171,6.601 L 5.142,6.57 5.169,6.5 c 0,-0.022 0.014,-0.022 0.038,-0.009 L 5.287,6.472 5.244,6.42 5.309,6.358 5.391,6.173 5.353,6.129 5.407,5.953 5.397,5.931 5.354,5.901 C 5.339,5.84 5.362,5.8 5.419,5.782 c 0.009,0 0.019,0 0.028,-0.005 L 5.442,5.76 5.399,5.752 5.421,5.646 5.406,5.616 5.388,5.612 5.368,5.577 C 5.372,5.559 5.387,5.559 5.396,5.577 5.457,5.559 5.485,5.51 5.484,5.44 5.55,5.373 5.563,5.302 5.529,5.228 L 5.505,5.22 5.604,5.183 C 5.643,4.933 5.673,4.722 5.704,4.564 5.735,4.397 5.743,4.292 5.733,4.244 L 5.746,4.23 C 5.735,4.125 5.71,4.016 5.675,3.911 5.641,3.82 5.616,3.733 5.6,3.636 5.565,3.47 5.53,3.313 5.485,3.147 5.47,3.073 5.459,2.994 5.467,2.924 5.476,2.862 5.456,2.81 5.423,2.758 5.408,2.741 5.394,2.724 5.37,2.711 5.27,2.669 5.166,2.618 5.066,2.566 5.027,2.54 4.984,2.515 4.951,2.476 4.825,2.358 4.694,2.252 4.552,2.158 4.547,2.158 4.543,2.157 4.537,2.149 V 2.148 C 4.522,2.138 4.507,2.128 4.491,2.118 4.459,2.093 4.416,2.071 4.368,2.055 4.33,2.042 4.292,2.017 4.268,1.978 L 4.315,1.942 c 0.014,-0.005 0.014,-0.009 0,-0.026 L 4.186,1.869 C 4.195,1.864 4.195,1.856 4.205,1.851 4.125,1.848 4.049,1.827 3.982,1.784 L 3.902,1.807 C 3.883,1.772 3.901,1.733 3.947,1.692 3.975,1.67 4.004,1.652 4.041,1.63 L 3.966,1.657 4.087,1.563 C 3.993,1.595 3.914,1.649 3.849,1.725 3.825,1.747 3.797,1.769 3.769,1.783 3.755,1.787 3.746,1.792 3.732,1.796 H 3.727 V 1.792 L 3.732,1.796 V 1.774 c 0,-0.004 0,-0.004 0.005,-0.004 L 3.66,1.74 3.549,1.873 3.497,1.843 C 3.337,1.92 3.197,2.014 3.067,2.125 2.986,2.193 2.907,2.26 2.823,2.327 L 2.787,2.434 c 0,0 -10e-4,0 -10e-4,-0.001 H 2.784 C 2.783,2.434 2.781,2.433 2.781,2.432 L 2.77,2.436 C 2.767,2.438 2.77,2.442 2.771,2.447 2.769,2.448 2.773,2.455 2.768,2.454 L 2.773,2.468 C 2.63,2.6 2.506,2.754 2.397,2.916 2.337,3.009 2.277,3.097 2.221,3.19 2.208,3.269 2.233,3.343 2.285,3.399 V 3.403 L 2.314,3.438 2.337,3.407 2.308,3.351 C 2.335,3.276 2.386,3.214 2.461,3.169 2.569,3.106 2.677,3.069 2.795,3.055 2.842,3.054 2.899,3.058 2.946,3.075 2.96,3.079 2.974,3.083 2.984,3.088 L 3.186,3.339 2.996,3.871 M 4.342,8.666 C 4.345,8.681 4.33,8.686 4.319,8.681 4.317,8.672 4.333,8.67 4.342,8.666 Z M 5.57,3.575 C 5.574,3.592 5.61,3.604 5.582,3.626 5.559,3.612 5.552,3.595 5.57,3.575 Z M 5.557,3.615 C 5.543,3.623 5.512,3.593 5.532,3.58 5.56,3.589 5.541,3.604 5.557,3.615 Z M 5.346,2.808 c -0.014,0.056 -0.006,-0.019 0,0 z m 0.03,0.107 C 5.374,2.917 5.357,2.916 5.356,2.908 5.352,2.891 5.399,2.9 5.376,2.915 Z M 5.532,3.681 C 5.526,3.694 5.518,3.692 5.511,3.698 5.501,3.693 5.505,3.686 5.499,3.681 c 0.008,-0.016 0.02,-0.012 0.033,0 z M 4.526,3.193 C 4.534,3.189 4.541,3.188 4.55,3.195 4.544,3.208 4.535,3.199 4.526,3.193 Z m 0.028,0.03 C 4.55,3.216 4.549,3.208 4.556,3.199 4.569,3.205 4.56,3.214 4.554,3.223 Z M 4.572,3.076 C 4.551,3.065 4.555,3.05 4.552,3.036 4.573,3.029 4.591,3.062 4.572,3.076 Z M 4.63,3.145 C 4.652,3.137 4.653,3.111 4.668,3.106 4.687,3.128 4.631,3.136 4.661,3.16 4.65,3.173 4.631,3.158 4.63,3.145 Z M 4.677,3.206 C 4.66,3.185 4.689,3.181 4.705,3.202 4.699,3.227 4.684,3.191 4.677,3.206 Z M 4.868,3.434 C 4.881,3.421 4.91,3.431 4.913,3.451 4.896,3.476 4.867,3.456 4.868,3.434 Z M 4.754,3.171 C 4.735,3.159 4.733,3.145 4.743,3.129 4.77,3.147 4.79,3.126 4.813,3.115 4.832,3.123 4.828,3.135 4.841,3.145 4.815,3.174 4.781,3.147 4.754,3.171 Z M 4.704,2.89 c 0.046,-0.012 0.031,0.059 0,0 z M 4.928,3.319 C 4.918,3.319 4.908,3.315 4.897,3.304 4.918,3.288 4.895,3.279 4.911,3.264 4.937,3.28 4.949,3.297 4.928,3.319 Z M 5.06,3.368 C 5.041,3.344 5.03,3.379 5.014,3.384 4.995,3.355 5.01,3.32 5.038,3.284 5.062,3.294 5.086,3.328 5.06,3.368 Z M 4.956,3.138 c -0.027,-0.031 0.038,-0.011 0,0 z M 5.024,3.08 C 5.038,3.088 5.051,3.087 5.066,3.103 5.062,3.136 5.027,3.141 5.024,3.147 5.002,3.144 4.986,3.095 5.024,3.08 Z M 5.126,3.291 C 5.116,3.296 5.104,3.293 5.091,3.282 5.105,3.266 5.119,3.253 5.137,3.266 5.131,3.275 5.119,3.284 5.126,3.291 Z M 5.379,3.65 C 5.353,3.633 5.329,3.615 5.338,3.593 5.354,3.585 5.371,3.584 5.391,3.6 5.372,3.618 5.4,3.631 5.379,3.65 Z M 5.23,3.007 C 5.212,3.055 5.14,2.996 5.177,2.967 5.204,2.966 5.216,2.981 5.23,3.007 Z M 5.153,2.898 C 5.139,2.892 5.148,2.883 5.154,2.874 5.157,2.878 5.155,2.883 5.161,2.888 5.158,2.891 5.155,2.895 5.153,2.898 Z M 5.141,2.847 C 5.128,2.839 5.127,2.83 5.136,2.819 5.149,2.827 5.15,2.836 5.141,2.847 Z M 5.083,2.711 C 5.095,2.717 5.105,2.71 5.118,2.721 5.112,2.746 5.097,2.743 5.091,2.768 5.084,2.762 5.076,2.757 5.069,2.752 5.075,2.738 5.067,2.726 5.083,2.711 Z m 0.023,0.16 C 5.119,2.878 5.11,2.887 5.104,2.896 5.099,2.888 5.098,2.88 5.106,2.871 Z M 5.078,2.885 C 5.097,2.895 5.087,2.909 5.074,2.924 5.052,2.903 5.075,2.907 5.078,2.885 Z M 5.009,2.731 c 0.022,0.008 0.012,0.021 0,0.034 C 5.003,2.761 4.998,2.757 4.993,2.753 4.998,2.746 5.003,2.738 5.009,2.731 Z m 0.044,0.412 c 0.011,-0.004 0.021,-0.011 0.034,0 -0.01,0.016 -0.022,0.012 -0.034,0 z M 5.023,2.936 C 5.018,2.929 5.017,2.921 5.025,2.912 5.038,2.918 5.029,2.927 5.023,2.936 Z M 4.929,2.68 C 4.95,2.681 4.944,2.695 4.965,2.699 4.96,2.711 4.967,2.721 4.956,2.734 4.944,2.73 4.932,2.72 4.921,2.724 4.905,2.712 4.922,2.695 4.929,2.68 Z M 4.942,2.943 C 4.938,2.93 4.954,2.915 4.956,2.902 5.009,2.91 4.959,2.964 4.942,2.943 Z M 4.878,2.625 C 4.868,2.65 4.85,2.63 4.835,2.626 4.847,2.609 4.863,2.618 4.878,2.625 Z M 4.859,2.829 C 4.892,2.84 4.879,2.873 4.856,2.878 4.853,2.862 4.836,2.849 4.859,2.829 Z M 4.694,2.343 C 4.707,2.349 4.698,2.359 4.693,2.367 4.688,2.36 4.687,2.352 4.694,2.343 Z M 4.856,2.945 C 4.875,2.981 4.828,2.951 4.818,2.984 4.838,2.978 4.833,2.983 4.84,3 4.859,3.007 4.852,2.996 4.861,2.982 4.899,3.019 4.925,2.975 4.94,3.025 4.964,3.025 4.984,3 5.008,3.001 5.036,3.036 5.003,3.084 4.963,3.094 4.943,3.084 4.941,3.072 4.929,3.06 4.926,3.116 4.879,3.077 4.847,3.115 4.815,3.105 4.818,3.091 4.807,3.068 4.83,3.041 4.837,3.046 4.854,3.028 4.84,3.02 4.815,3.018 4.825,2.997 4.81,3.002 4.794,3.007 4.775,2.985 4.779,2.96 4.785,2.945 4.81,2.927 4.834,2.93 4.844,2.962 4.856,2.945 Z M 4.671,2.419 C 4.665,2.41 4.679,2.413 4.684,2.402 4.694,2.409 4.69,2.417 4.701,2.424 4.694,2.438 4.682,2.428 4.675,2.447 4.667,2.438 4.67,2.428 4.681,2.417 4.677,2.413 4.674,2.415 4.671,2.419 Z M 4.78,2.879 C 4.773,2.884 4.762,2.872 4.764,2.867 4.767,2.851 4.793,2.869 4.78,2.879 Z M 4.735,2.803 C 4.715,2.806 4.722,2.789 4.703,2.779 4.711,2.777 4.718,2.771 4.725,2.762 4.748,2.773 4.746,2.787 4.735,2.803 Z M 4.628,2.386 C 4.619,2.4 4.607,2.396 4.597,2.405 4.592,2.399 4.598,2.397 4.601,2.4 4.605,2.393 4.595,2.388 4.589,2.382 4.601,2.373 4.613,2.368 4.628,2.386 Z M 4.55,2.277 C 4.552,2.283 4.555,2.289 4.562,2.294 4.559,2.3 4.554,2.305 4.55,2.311 4.545,2.305 4.54,2.305 4.536,2.308 4.522,2.292 4.54,2.288 4.55,2.277 Z M 4.562,2.362 C 4.576,2.376 4.567,2.393 4.578,2.408 4.566,2.431 4.55,2.435 4.536,2.442 4.52,2.418 4.541,2.377 4.562,2.362 Z M 4.541,2.446 C 4.562,2.457 4.546,2.48 4.531,2.482 4.52,2.472 4.53,2.46 4.541,2.446 Z m 0.04,0.115 C 4.576,2.568 4.57,2.575 4.565,2.583 4.555,2.576 4.559,2.568 4.548,2.561 c 0.008,-0.015 0.02,-0.012 0.033,0 z M 4.63,2.876 C 4.637,2.881 4.644,2.887 4.651,2.892 4.636,2.907 4.647,2.922 4.627,2.924 4.61,2.911 4.614,2.88 4.63,2.876 Z M 4.638,2.932 C 4.641,2.929 4.643,2.925 4.646,2.921 4.677,2.936 4.635,2.958 4.638,2.932 Z M 4.598,2.953 C 4.625,2.97 4.628,2.97 4.66,2.982 4.646,2.957 4.679,2.969 4.692,2.939 4.711,2.949 4.704,2.963 4.725,2.973 4.711,2.992 4.691,2.976 4.675,2.985 4.672,3.001 4.708,2.996 4.72,3.003 4.725,3.01 4.726,3.018 4.719,3.027 4.687,2.994 4.721,3.039 4.731,3.045 4.706,3.082 4.673,3.062 4.645,3.081 4.628,3.069 4.642,3.052 4.615,3.042 4.641,3.003 4.598,2.993 4.598,2.953 Z M 4.572,2.908 C 4.578,2.912 4.583,2.916 4.589,2.92 4.585,2.926 4.58,2.931 4.576,2.936 4.571,2.932 4.566,2.928 4.56,2.924 4.564,2.919 4.568,2.914 4.572,2.908 Z M 4.487,2.642 C 4.479,2.647 4.471,2.643 4.464,2.65 4.444,2.629 4.486,2.614 4.487,2.642 Z m 0,0.278 C 4.508,2.926 4.512,2.94 4.538,2.942 4.536,2.958 4.551,2.972 4.526,2.992 4.496,2.971 4.509,2.952 4.478,2.955 4.495,2.942 4.465,2.935 4.487,2.92 Z M 4.414,2.772 C 4.421,2.777 4.428,2.783 4.435,2.788 4.42,2.812 4.412,2.804 4.407,2.826 4.393,2.838 4.422,2.78 4.388,2.795 4.377,2.779 4.41,2.796 4.414,2.772 Z M 4.205,2.076 C 4.209,2.061 4.234,2.078 4.221,2.088 4.214,2.093 4.203,2.082 4.205,2.076 Z M 4.439,2.951 C 4.45,2.964 4.422,2.981 4.412,2.965 4.419,2.947 4.431,2.962 4.439,2.951 Z M 3.791,4.998 C 3.788,4.994 3.79,4.989 3.785,4.985 3.787,4.981 3.79,4.978 3.793,4.974 3.805,4.99 3.813,4.977 3.824,4.989 3.815,5.01 3.801,4.99 3.791,4.998 Z M 3.631,4.339 C 3.642,4.309 3.69,4.336 3.667,4.358 3.655,4.348 3.644,4.355 3.631,4.339 Z M 3.785,4.783 C 3.783,4.784 3.767,4.784 3.765,4.776 3.761,4.759 3.808,4.769 3.785,4.783 Z m 0.567,1.564 c 0,-0.013 -0.018,-0.023 -0.005,-0.038 0.018,0.01 0.02,0.023 0.005,0.038 z M 3.973,4.276 c -0.016,-0.009 -0.012,-0.021 0,-0.034 0.015,0.01 0.012,0.021 0,0.034 z M 3.756,2.875 C 3.761,2.867 3.766,2.86 3.772,2.853 3.808,2.868 3.802,2.882 3.813,2.91 3.788,2.919 3.779,2.889 3.756,2.875 Z M 3.821,2.966 C 3.81,2.954 3.837,2.945 3.844,2.958 3.837,2.964 3.828,2.96 3.821,2.966 Z M 4.706,6.335 C 4.682,6.336 4.683,6.31 4.659,6.308 4.671,6.297 4.658,6.289 4.674,6.277 4.687,6.285 4.7,6.284 4.715,6.3 4.699,6.314 4.722,6.321 4.706,6.335 Z M 4.698,6.278 C 4.702,6.273 4.706,6.268 4.71,6.262 4.728,6.265 4.72,6.27 4.741,6.277 4.73,6.302 4.713,6.282 4.698,6.278 Z M 4.476,5.286 C 4.481,5.29 4.487,5.294 4.492,5.298 4.489,5.302 4.487,5.305 4.484,5.309 4.472,5.303 4.468,5.295 4.476,5.286 Z M 3.893,2.826 C 3.903,2.804 3.917,2.811 3.927,2.792 3.929,2.811 3.912,2.825 3.942,2.828 3.937,2.835 3.933,2.84 3.929,2.845 3.913,2.844 3.915,2.831 3.893,2.826 Z m 0.07,0.087 C 3.968,2.917 3.974,2.921 3.979,2.925 3.976,2.928 3.973,2.932 3.971,2.936 3.959,2.929 3.955,2.922 3.963,2.913 Z M 4.059,2.986 C 4.049,2.981 4.052,2.974 4.056,2.967 4.045,2.961 4.035,2.968 4.022,2.957 4.033,2.944 4.036,2.932 4.032,2.922 4.044,2.931 4.078,2.953 4.059,2.986 Z M 4.075,2.82 C 4.058,2.849 4.034,2.828 4.011,2.814 4.031,2.803 4.023,2.793 4.043,2.771 4.069,2.786 4.045,2.807 4.075,2.82 Z M 4.018,2.794 C 4.003,2.782 3.989,2.77 4.007,2.753 4.012,2.773 4.045,2.765 4.018,2.794 Z M 4.484,4.436 C 4.494,4.418 4.512,4.427 4.513,4.442 4.505,4.45 4.495,4.447 4.484,4.436 Z M 4.566,4.573 C 4.544,4.584 4.557,4.55 4.547,4.543 4.568,4.532 4.556,4.566 4.566,4.573 Z M 4.563,3.861 C 4.556,3.856 4.549,3.85 4.541,3.845 4.549,3.836 4.543,3.829 4.552,3.819 4.575,3.817 4.587,3.843 4.563,3.861 Z M 4.368,3.091 C 4.374,3.079 4.398,3.102 4.38,3.109 4.37,3.103 4.374,3.097 4.368,3.091 Z M 4.308,2.701 C 4.34,2.716 4.323,2.737 4.335,2.755 4.319,2.77 4.298,2.743 4.281,2.748 4.27,2.728 4.286,2.7 4.308,2.701 Z M 4.146,2.132 c 0.006,0.012 0,0.029 -0.015,0.031 -0.006,-0.012 0,-0.029 0.015,-0.031 z M 4.12,2.155 C 4.121,2.172 4.114,2.161 4.104,2.176 4.099,2.173 4.093,2.169 4.088,2.165 4.098,2.156 4.107,2.143 4.12,2.155 Z M 4.255,2.737 C 4.266,2.76 4.264,2.774 4.239,2.792 4.233,2.78 4.248,2.765 4.224,2.756 4.233,2.742 4.245,2.745 4.255,2.737 Z M 4.734,4.641 C 4.724,4.663 4.711,4.659 4.699,4.665 4.682,4.653 4.671,4.64 4.669,4.626 4.598,4.634 4.58,4.588 4.569,4.525 4.644,4.487 4.711,4.569 4.734,4.641 Z M 4.194,2.75 C 4.171,2.746 4.157,2.707 4.124,2.731 4.076,2.666 4.226,2.696 4.194,2.75 Z M 4.161,2.817 C 4.172,2.807 4.161,2.801 4.153,2.794 4.176,2.8 4.209,2.815 4.221,2.838 4.186,2.867 4.195,2.858 4.186,2.896 4.169,2.896 4.18,2.89 4.165,2.879 4.157,2.897 4.177,2.91 4.162,2.928 4.133,2.925 4.127,2.903 4.1,2.932 4.097,2.923 4.091,2.914 4.077,2.906 4.103,2.873 4.044,2.853 4.084,2.819 4.103,2.825 4.12,2.826 4.139,2.835 4.145,2.814 4.117,2.816 4.132,2.788 4.158,2.803 4.131,2.813 4.161,2.817 Z M 4.088,2.645 C 4.101,2.661 4.077,2.682 4.1,2.696 4.085,2.698 4.088,2.722 4.068,2.739 4.055,2.727 4.059,2.715 4.044,2.738 4.017,2.735 4.034,2.702 4.021,2.712 4.018,2.7 4.028,2.686 4.025,2.673 4.051,2.638 4.06,2.681 4.088,2.645 Z M 4.049,2.607 C 4.071,2.626 4.043,2.647 4.023,2.63 4.031,2.616 4.042,2.626 4.049,2.607 Z M 4.014,2.53 C 4.004,2.525 4.008,2.518 4.002,2.513 4.008,2.501 4.033,2.524 4.014,2.53 Z M 3.921,2.207 C 3.926,2.211 3.931,2.215 3.937,2.22 3.931,2.234 3.921,2.22 3.914,2.228 3.908,2.222 3.917,2.214 3.921,2.207 Z M 4.014,2.598 C 4.017,2.612 4.024,2.635 4,2.638 3.999,2.624 3.998,2.6 4.014,2.598 Z M 3.979,2.588 C 3.962,2.6 3.984,2.607 3.993,2.615 3.979,2.636 3.987,2.614 3.973,2.608 3.954,2.64 4.019,2.636 3.991,2.673 3.968,2.65 3.981,2.647 3.947,2.631 3.954,2.617 3.962,2.603 3.942,2.593 3.954,2.59 3.964,2.573 3.979,2.588 Z M 3.938,2.599 c 0.014,0.006 0,0.016 0.008,0.023 C 3.933,2.634 3.925,2.607 3.938,2.599 Z M 4.78,6.113 C 4.78,6.127 4.788,6.141 4.772,6.157 4.765,6.152 4.758,6.147 4.75,6.141 4.763,6.123 4.743,6.11 4.753,6.093 4.765,6.097 4.764,6.125 4.78,6.113 Z M 3.928,2.735 c 0.008,0 0.015,-0.008 0.024,0.001 C 3.954,2.747 3.944,2.76 3.933,2.773 3.928,2.769 3.923,2.765 3.917,2.761 3.935,2.74 3.924,2.747 3.909,2.738 3.915,2.725 3.924,2.726 3.931,2.72 3.936,2.724 3.93,2.73 3.928,2.735 Z M 3.849,2.415 C 3.843,2.427 3.835,2.426 3.828,2.432 3.818,2.427 3.822,2.42 3.816,2.415 c 0.009,-0.016 0.02,-0.013 0.033,0 z M 3.912,2.79 C 3.903,2.81 3.891,2.799 3.882,2.818 3.867,2.804 3.892,2.779 3.912,2.79 Z M 3.928,3.004 C 3.917,2.986 3.941,3.004 3.939,3.012 3.929,3.013 3.922,3.031 3.91,3.016 3.913,3.006 3.941,3.019 3.928,3.004 Z M 3.902,3.027 C 3.929,3.038 3.937,3.05 3.933,3.075 3.92,3.086 3.905,3.082 3.893,3.095 3.887,3.09 3.895,3.082 3.899,3.075 3.909,3.058 3.872,3.047 3.902,3.027 Z M 3.835,2.859 C 3.825,2.853 3.83,2.846 3.823,2.841 3.829,2.829 3.853,2.852 3.835,2.859 Z M 3.749,2.76 C 3.785,2.773 3.795,2.806 3.809,2.78 3.819,2.786 3.815,2.795 3.827,2.802 3.802,2.799 3.79,2.812 3.777,2.823 3.766,2.793 3.738,2.81 3.729,2.821 3.722,2.794 3.75,2.79 3.749,2.76 Z M 3.721,2.798 C 3.712,2.803 3.702,2.799 3.691,2.793 3.7,2.784 3.71,2.787 3.721,2.798 Z m 0.047,0.44 C 3.739,3.252 3.74,3.276 3.709,3.295 3.699,3.289 3.702,3.275 3.693,3.283 3.721,3.26 3.712,3.223 3.75,3.207 3.764,3.216 3.76,3.228 3.768,3.238 Z M 3.644,2.866 C 3.638,2.88 3.628,2.871 3.62,2.865 3.627,2.86 3.635,2.859 3.644,2.866 Z M 3.697,3.142 C 3.701,3.146 3.698,3.151 3.704,3.155 3.7,3.159 3.695,3.157 3.69,3.163 3.687,3.158 3.689,3.153 3.684,3.149 3.688,3.145 3.693,3.148 3.697,3.142 Z M 3.521,2.538 C 3.537,2.545 3.539,2.555 3.525,2.566 3.524,2.557 3.506,2.549 3.521,2.538 Z M 3.688,3.177 C 3.708,3.174 3.701,3.191 3.72,3.201 3.714,3.207 3.714,3.212 3.717,3.216 3.692,3.223 3.68,3.218 3.701,3.238 3.691,3.248 3.676,3.221 3.668,3.238 3.647,3.213 3.684,3.208 3.688,3.177 Z m 0.177,1.15 c -0.027,-0.031 0.038,-0.011 0,0 z M 3.61,3.237 C 3.619,3.245 3.615,3.255 3.605,3.266 3.596,3.258 3.599,3.248 3.61,3.237 Z M 3.51,3.078 C 3.501,3.071 3.492,3.064 3.483,3.058 3.496,3.041 3.532,3.059 3.51,3.078 Z M 3.803,4.536 C 3.808,4.54 3.813,4.544 3.819,4.548 3.816,4.551 3.814,4.555 3.811,4.558 3.799,4.552 3.795,4.545 3.803,4.536 Z M 3.194,2.611 3.221,2.591 3.292,2.578 3.222,2.682 3.179,2.672 Z M 4.187,6.846 C 4.183,6.851 4.179,6.856 4.175,6.862 L 4.159,6.849 C 4.164,6.839 4.171,6.844 4.177,6.837 4.18,6.84 4.183,6.843 4.187,6.846 Z M 3.311,3.332 C 3.299,3.336 3.287,3.333 3.285,3.321 3.297,3.316 3.309,3.319 3.311,3.332 Z M 3.192,3.377 C 3.202,3.366 3.2,3.394 3.219,3.397 3.21,3.413 3.198,3.409 3.185,3.397 3.192,3.39 3.198,3.383 3.192,3.377 Z M 3.213,3.561 C 3.207,3.575 3.198,3.566 3.189,3.56 3.197,3.555 3.204,3.554 3.213,3.561 Z M 3.945,6.764 C 3.923,6.754 3.94,6.731 3.954,6.729 3.959,6.74 3.956,6.752 3.945,6.764 Z M 3.131,3.559 C 3.143,3.596 3.149,3.573 3.178,3.586 3.172,3.596 3.163,3.592 3.157,3.603 3.14,3.587 3.125,3.583 3.11,3.576 3.116,3.566 3.125,3.57 3.131,3.559 Z M 3.644,5.62 C 3.628,5.625 3.614,5.638 3.599,5.645 3.588,5.635 3.585,5.617 3.568,5.631 3.554,5.574 3.651,5.564 3.644,5.62 Z m 0.13,1.058 C 3.793,6.685 3.782,6.696 3.797,6.704 3.789,6.705 3.782,6.712 3.775,6.721 3.76,6.709 3.755,6.695 3.774,6.678 Z m 0.038,0.203 c 0.015,0.009 0.012,0.021 0,0.034 -0.004,-0.011 -0.011,-0.021 0,-0.034 z M 3.77,6.885 C 3.789,6.895 3.79,6.908 3.775,6.923 3.765,6.912 3.763,6.899 3.77,6.885 Z M 3.744,7.076 C 3.739,7.069 3.738,7.061 3.745,7.052 3.758,7.058 3.749,7.068 3.744,7.076 Z M 3.427,5.651 C 3.417,5.646 3.422,5.639 3.415,5.633 3.421,5.621 3.445,5.644 3.427,5.651 Z M 3.254,5.007 C 3.273,4.996 3.277,5.025 3.258,5.035 3.245,5.028 3.264,5.015 3.254,5.007 Z M 3.341,5.35 C 3.365,5.363 3.352,5.381 3.338,5.398 3.314,5.386 3.328,5.368 3.341,5.35 Z M 3.804,7.462 H 3.799 c 0.004,-0.027 0.004,-0.027 0.005,0 z M 3.255,5.218 C 3.256,5.228 3.274,5.235 3.259,5.246 3.247,5.239 3.246,5.229 3.255,5.218 Z M 3.081,8.528 C 3.08,8.525 3.078,8.522 3.079,8.519 3.081,8.521 3.082,8.525 3.083,8.528 Z M 3.102,7.705 C 3.111,7.713 3.107,7.723 3.097,7.735 3.076,7.728 3.096,7.716 3.102,7.705 Z M 2.909,7.089 C 2.902,7.083 2.895,7.078 2.888,7.072 2.899,7.048 2.929,7.071 2.909,7.089 Z m 0.19,0.9 C 3.125,7.998 3.105,8.014 3.095,8.028 3.089,8.016 3.084,8.004 3.099,7.989 Z M 2.858,7.067 C 2.846,7.055 2.874,7.046 2.881,7.059 2.875,7.073 2.865,7.059 2.858,7.067 Z m 0.194,0.66 C 3.071,7.737 3.072,7.75 3.057,7.765 3.039,7.754 3.037,7.742 3.052,7.727 Z M 2.741,6.574 C 2.751,6.579 2.746,6.586 2.753,6.592 2.748,6.595 2.743,6.593 2.739,6.598 2.734,6.591 2.733,6.583 2.741,6.574 Z M 2.809,6.718 C 2.825,6.746 2.807,6.766 2.781,6.79 2.762,6.78 2.769,6.766 2.747,6.756 2.765,6.722 2.788,6.73 2.809,6.718 Z M 2.715,6.597 C 2.73,6.606 2.72,6.619 2.715,6.631 2.71,6.62 2.704,6.61 2.715,6.597 Z M 2.793,6.908 C 2.798,6.912 2.803,6.916 2.809,6.92 2.803,6.927 2.798,6.934 2.792,6.942 2.777,6.933 2.78,6.921 2.793,6.908 Z M 3.028,7.893 C 3.04,7.882 3.056,7.908 3.036,7.916 3.022,7.91 3.036,7.9 3.028,7.893 Z M 2.846,7.218 C 2.836,7.213 2.84,7.205 2.834,7.2 2.839,7.188 2.864,7.211 2.846,7.218 Z M 2.958,8.043 C 2.948,8.027 2.963,7.992 2.984,7.986 2.994,8.012 2.968,8.014 2.958,8.043 Z M 3.185,8.121 C 3.187,8.161 3.126,8.156 3.119,8.13 3.112,8.129 3.106,8.128 3.1,8.133 3.1,8.141 3.108,8.148 3.099,8.157 3.055,8.099 3.02,8.052 2.979,8.025 2.984,8.018 2.99,8.011 2.995,8.004 3.024,8.026 3.05,8.032 3.076,8.031 3.073,8.046 3.1,8.056 3.087,8.073 3.11,8.063 3.123,8.094 3.138,8.095 3.138,8.081 3.133,8.067 3.137,8.052 3.159,8.039 3.179,8.057 3.184,8.079 3.172,8.096 3.157,8.094 3.146,8.117 3.159,8.117 3.17,8.108 3.185,8.121 Z M 3.172,8.027 C 3.161,8.022 3.165,8.015 3.169,8.008 3.173,8.013 3.176,8.01 3.178,8.007 3.184,8.012 3.175,8.02 3.172,8.027 Z M 3.256,8.318 C 3.245,8.307 3.254,8.294 3.267,8.292 3.273,8.299 3.261,8.309 3.256,8.318 Z M 3.193,8.043 C 3.17,8.028 3.199,8.03 3.204,8.018 3.21,8.025 3.198,8.035 3.193,8.043 Z M 2.653,4.796 C 2.656,4.8 2.659,4.797 2.662,4.795 2.668,4.8 2.659,4.808 2.655,4.815 2.645,4.81 2.648,4.803 2.653,4.796 Z M 2.74,5.075 C 2.731,5.089 2.721,5.102 2.71,5.103 2.701,5.088 2.721,5.06 2.74,5.075 Z M 2.807,6.127 C 2.825,6.11 2.819,6.083 2.844,6.079 2.853,6.091 2.853,6.103 2.859,6.116 2.847,6.124 2.833,6.121 2.823,6.14 2.818,6.135 2.812,6.131 2.807,6.127 Z M 3.261,7.74 C 3.265,7.745 3.262,7.75 3.268,7.754 3.265,7.758 3.262,7.761 3.259,7.765 3.246,7.759 3.255,7.749 3.261,7.74 Z M 3.519,8.853 C 3.5,8.842 3.51,8.828 3.523,8.813 3.542,8.825 3.541,8.849 3.519,8.853 Z M 2.814,6.04 C 2.832,6.037 2.818,6.028 2.834,6.013 2.845,6.012 2.858,6.021 2.87,6.032 2.855,6.059 2.835,6.051 2.814,6.04 Z M 2.794,5.596 C 2.805,5.607 2.796,5.62 2.783,5.622 2.772,5.605 2.784,5.609 2.794,5.596 Z M 3.389,8.107 C 3.385,8.102 3.388,8.097 3.382,8.093 3.386,8.09 3.388,8.086 3.391,8.082 3.396,8.088 3.401,8.088 3.406,8.085 3.419,8.097 3.391,8.089 3.389,8.107 Z M 3.33,7.649 C 3.342,7.632 3.354,7.611 3.371,7.629 3.348,7.635 3.372,7.651 3.346,7.661 3.34,7.657 3.335,7.653 3.33,7.649 Z M 3.525,8.352 C 3.516,8.343 3.52,8.333 3.53,8.322 3.536,8.326 3.541,8.33 3.547,8.334 3.54,8.347 3.532,8.346 3.525,8.352 Z M 2.994,6.058 C 2.958,6.077 2.971,6.085 2.946,6.122 2.939,6.117 2.931,6.111 2.924,6.106 2.953,6.076 2.924,6.055 2.941,6.027 2.959,6.011 2.978,6.008 3,6.028 2.985,6.04 3.002,6.047 2.994,6.058 Z M 3.002,5.466 C 3.006,5.469 3.009,5.471 3.013,5.474 3.008,5.478 3.011,5.48 3.014,5.483 3.008,5.495 2.984,5.473 3.002,5.466 Z M 3.267,6.625 C 3.258,6.617 3.262,6.606 3.272,6.595 3.292,6.602 3.273,6.614 3.267,6.625 Z M 3.283,6.738 C 3.264,6.728 3.262,6.715 3.277,6.7 3.296,6.71 3.298,6.723 3.283,6.738 Z M 2.979,5.474 C 2.964,5.476 2.952,5.457 2.951,5.444 2.966,5.416 3.005,5.455 2.979,5.474 Z M 2.983,5.535 C 2.972,5.525 2.981,5.512 2.994,5.51 3,5.517 2.988,5.527 2.983,5.535 Z M 3.117,5.973 C 3.135,5.989 3.121,6.027 3.097,6.033 3.076,6.008 3.091,5.981 3.117,5.973 Z M 3.096,6.135 C 3.101,6.139 3.107,6.143 3.112,6.147 3.107,6.149 3.101,6.151 3.095,6.159 3.082,6.153 3.091,6.143 3.096,6.135 Z m 0.478,1.95 C 3.58,8.064 3.592,8.079 3.601,8.072 3.611,8.085 3.583,8.101 3.574,8.085 Z M 3.872,9.182 C 3.894,9.189 3.882,9.162 3.91,9.168 3.912,9.174 3.915,9.181 3.917,9.187 3.898,9.195 3.876,9.206 3.872,9.182 Z M 3.826,8.713 C 3.821,8.709 3.815,8.705 3.81,8.701 3.808,8.688 3.822,8.67 3.834,8.669 3.856,8.68 3.838,8.697 3.826,8.713 Z M 4.024,9.148 C 4.023,9.142 4.028,9.139 4.026,9.133 4.03,9.131 4.034,9.13 4.038,9.128 4.046,9.141 4.034,9.144 4.024,9.148 Z M 3.948,8.688 C 3.931,8.703 3.93,8.684 3.918,8.685 3.917,8.668 3.949,8.67 3.948,8.688 Z M 4.113,8.785 C 4.109,8.787 4.105,8.789 4.1,8.79 4.099,8.782 4.095,8.779 4.09,8.78 4.085,8.763 4.104,8.784 4.115,8.77 4.116,8.776 4.111,8.779 4.113,8.785 Z M 4.106,8.494 C 4.118,8.487 4.124,8.492 4.134,8.491 4.137,8.503 4.128,8.509 4.113,8.513 4.111,8.507 4.109,8.5 4.106,8.494 Z M 4.222,8.946 C 4.221,8.937 4.236,8.935 4.245,8.931 4.257,8.956 4.233,8.939 4.222,8.946 Z M 4.247,8.973 C 4.246,8.967 4.242,8.968 4.238,8.969 4.236,8.961 4.248,8.959 4.255,8.956 4.261,8.966 4.254,8.969 4.247,8.973 Z" id="path_41"/><path fill="@color/yellow" d="M 8.888,3.503 8.871,3.478 8.867,3.481 C 8.863,3.475 8.86,3.478 8.857,3.471 L 8.856,3.472 C 8.853,3.471 8.852,3.468 8.851,3.465 L 8.846,3.469 C 8.847,3.471 8.85,3.474 8.85,3.476 8.847,3.475 8.845,3.47 8.843,3.468 L 8.834,3.473 C 8.833,3.476 8.835,3.481 8.83,3.482 l 10e-4,0.002 c 0,10e-4 0,0.002 0,0.002 L 8.836,3.493 8.838,3.492 C 8.837,3.491 8.837,3.49 8.837,3.489 8.843,3.493 8.838,3.496 8.839,3.5 8.84,3.501 8.841,3.505 8.842,3.504 c 0.003,0 10e-4,0.003 0.002,0.004 0.003,0.002 0.004,0.008 0.007,0.007 0,10e-4 0,0.002 -0.001,0.002 L 8.852,3.52 h 10e-4 c 0.002,0 0.003,0.003 0.004,0.004 L 8.859,3.523 C 8.858,3.521 8.856,3.519 8.857,3.518 c 0.002,0 0.003,0.005 0.005,0.004 0,0 0,0.002 -10e-4,0.002 l 0.002,0.003 h 0.001 c 0.002,0 0.003,0.003 0.004,0.005 L 8.87,3.531 c 0,-0.003 -10e-4,-0.004 -10e-4,-0.006 0.002,0 0.002,0.002 0.003,0.003 L 8.874,3.527 c 0,0 10e-4,0 0.002,10e-4 L 8.878,3.527 c 10e-4,-0.001 0.003,0 0.003,10e-4 L 8.891,3.522 C 8.893,3.519 8.89,3.515 8.887,3.512 8.888,3.509 8.882,3.503 8.888,3.503 Z" id="path_42"/><path fill="@color/yellow" d="m 9.016,3.368 c 0.01,0 0,-0.01 0.005,-0.014 L 9.02,3.352 c 0,-10e-4 0,-0.002 0.001,-0.002 L 9.019,3.347 H 9.018 C 9.015,3.346 9.014,3.343 9.012,3.341 L 9.011,3.342 C 9.009,3.342 9.008,3.339 9.008,3.338 L 9.005,3.339 C 9.004,3.339 9.003,3.338 9.002,3.336 L 9,3.338 C 8.999,3.339 8.997,3.34 8.996,3.338 L 8.994,3.339 C 8.995,3.34 8.995,3.341 8.995,3.342 8.993,3.342 8.993,3.34 8.992,3.339 8.988,3.339 8.993,3.347 8.987,3.347 L 8.989,3.35 c 10e-4,-10e-4 0.002,0 0.002,0 0,10e-4 0,0.002 -10e-4,0.002 l 0.002,0.003 c 10e-4,-10e-4 0.002,0 0.003,0 -10e-4,0.002 0,0.006 -0.003,0.006 L 8.994,3.364 C 8.996,3.364 8.997,3.361 9,3.362 9,3.364 8.998,3.364 8.998,3.365 9,3.368 9.003,3.371 9.004,3.375 9,3.373 8.998,3.369 8.996,3.366 8.992,3.367 8.996,3.372 8.993,3.374 8.993,3.373 8.992,3.373 8.991,3.372 L 8.989,3.374 8.991,3.377 8.993,3.376 c 10e-4,0 10e-4,0 0.002,0.002 L 8.997,3.376 c 0,-0.002 0,-0.002 0,-0.003 10e-4,0 0.002,0.002 0.003,0.003 0,0 0,0.002 0,0.002 L 9.002,3.381 C 9.005,3.379 9.006,3.377 9.008,3.374 L 9.005,3.372 C 9.004,3.37 9.007,3.37 9.007,3.369 9.008,3.368 9.011,3.367 9.012,3.37 L 9.014,3.369 C 9.014,3.368 9.012,3.367 9.013,3.365 Z" id="path_43"/><path fill="@color/yellow" d="M 9.521,3.36 9.518,3.361 C 9.512,3.357 9.515,3.352 9.512,3.347 L 9.511,3.348 C 9.509,3.347 9.507,3.344 9.506,3.341 9.502,3.343 9.498,3.338 9.493,3.336 9.489,3.336 9.494,3.34 9.49,3.341 l 0.002,0.003 c 0,0 10e-4,-0.002 0.003,0 C 9.494,3.347 9.494,3.351 9.496,3.355 9.498,3.355 9.5,3.359 9.502,3.356 9.501,3.355 9.501,3.354 9.501,3.353 9.504,3.36 9.509,3.354 9.512,3.362 9.516,3.363 9.521,3.366 9.524,3.372 L 9.526,3.371 9.525,3.369 c 0,-0.001 0,-0.002 10e-4,-0.002 z" id="path_44"/><path fill="@color/yellow" d="m 9.481,3.343 c 0,-0.002 10e-4,-0.002 0.002,-0.002 L 9.48,3.338 c -0.004,0 -0.002,0.005 -0.005,0.006 -10e-4,0.001 -0.003,0.002 -0.004,0 L 9.468,3.345 c 0,0 10e-4,10e-4 10e-4,0.003 0,0 -0.002,-10e-4 -0.002,-0.002 L 9.465,3.348 C 9.464,3.348 9.463,3.347 9.463,3.347 H 9.461 c 0,10e-4 -0.002,0 -0.003,-10e-4 C 9.453,3.348 9.454,3.353 9.456,3.358 9.459,3.362 9.454,3.361 9.453,3.363 9.454,3.365 9.457,3.368 9.457,3.371 9.456,3.371 9.455,3.369 9.454,3.368 L 9.452,3.369 9.458,3.378 9.46,3.377 C 9.458,3.376 9.459,3.375 9.459,3.374 c 0.002,0 0.003,0.003 0.004,0.005 L 9.465,3.378 C 9.463,3.373 9.462,3.374 9.459,3.372 c 0,-0.003 0.004,-0.003 0.006,-0.005 0,-10e-4 -0.002,-0.002 -10e-4,-0.003 0.002,0.004 0.005,0 0.007,0.006 0.004,0 10e-4,-0.005 10e-4,-0.007 0.001,0 0.001,0 0.002,0.002 L 9.476,3.364 C 9.47,3.355 9.481,3.356 9.477,3.349 c 0.002,0 0.003,0.003 0.004,0.004 0.004,0 10e-4,-0.005 10e-4,-0.007 0.001,0 0.002,10e-4 0.002,0.002 L 9.486,3.346 9.484,3.343 c -10e-4,0 -0.002,10e-4 -0.003,0 z" id="path_45"/><path fill="@color/yellow" d="M 8.968,3.46 C 8.967,3.461 8.965,3.462 8.964,3.459 8.961,3.46 8.959,3.463 8.956,3.462 L 8.955,3.461 8.952,3.463 8.955,3.468 8.957,3.467 c -0.001,-10e-4 0,-10e-4 0,-0.002 10e-4,0 0.002,0.001 0.003,0.002 0,0.002 -0.001,0.002 -0.002,0.002 l 0.002,0.004 0.002,-0.002 0,-10e-4 c 0,-0.001 10e-4,-0.002 0.002,-0.002 10e-4,0 0.002,0.002 0.003,0.003 0.004,0 0.003,-0.005 0.004,-0.008 10e-4,0 0.002,0 0.002,10e-4 L 8.975,3.463 8.974,3.461 C 8.972,3.461 8.97,3.457 8.968,3.46 Z" id="path_46"/><path fill="@color/yellow" d="m 8.902,3.748 c 0,10e-4 -10e-4,0 -0.002,0 0,-0.001 0,-0.002 10e-4,-0.002 L 8.898,3.742 8.896,3.744 c 10e-4,10e-4 10e-4,0.002 10e-4,0.003 -10e-4,0 -10e-4,0 -0.002,-0.002 L 8.893,3.746 8.895,3.75 c 0,0 0.001,-0.002 0.003,0 0,10e-4 -10e-4,0.002 -10e-4,0.002 L 8.899,3.756 8.9,3.754 c 10e-4,0 0.002,0.002 0.003,0.003 L 8.905,3.756 8.903,3.753 c 0,-0.001 0,-0.002 10e-4,-0.002 z" id="path_47"/><path fill="@color/yellow" d="m 9.404,3.199 v 0 C 9.402,3.199 9.401,3.196 9.4,3.195 L 9.398,3.197 C 9.399,3.198 9.399,3.199 9.398,3.2 9.396,3.197 9.394,3.2 9.393,3.196 L 9.389,3.198 c 0,0.004 0,0.009 0.002,0.013 L 9.392,3.21 c 0.001,0 0.002,0.002 0.003,0.003 L 9.397,3.212 c 0,-0.001 -0.002,-0.003 -10e-4,-0.004 10e-4,0 0.002,0.002 0.003,0.003 L 9.408,3.205 9.405,3.204 c 0,-0.001 0,-0.002 0.001,-0.002 z" id="path_48"/><path fill="@color/yellow" d="M 8.603,7.289 C 8.614,7.3 8.589,7.301 8.584,7.29 8.589,7.275 8.599,7.261 8.587,7.247 8.575,7.27 8.571,7.292 8.58,7.314 8.594,7.287 8.611,7.312 8.625,7.303 c 0,-0.001 0,-0.001 0,-0.002 C 8.618,7.295 8.61,7.284 8.603,7.289 Z" id="path_49"/><path fill="@color/yellow" d="M 8.993,3.408 8.995,3.41 C 8.993,3.413 8.989,3.416 8.986,3.416 8.986,3.413 8.989,3.413 8.99,3.411 L 8.988,3.408 8.986,3.41 C 8.984,3.412 8.982,3.407 8.981,3.406 8.975,3.405 8.984,3.412 8.978,3.412 8.979,3.415 8.975,3.418 8.98,3.422 8.983,3.422 8.984,3.417 8.988,3.42 L 8.999,3.412 8.995,3.407 Z" id="path_50"/><path fill="@color/yellow" d="M 9.447,3.389 9.441,3.381 9.439,3.383 H 9.44 c 0,0.002 -10e-4,0.002 -0.002,0.003 -0.001,0 -0.001,0 -0.002,-0.001 L 9.434,3.386 C 9.432,3.385 9.432,3.383 9.43,3.381 9.428,3.382 9.428,3.387 9.424,3.387 c 0.002,0.004 0,0.008 -10e-4,0.011 -10e-4,0 -10e-4,0 -0.002,-0.002 L 9.42,3.398 c -10e-4,0.004 0,0.006 0.004,0.01 C 9.428,3.406 9.431,3.402 9.436,3.401 L 9.438,3.404 9.44,3.403 C 9.439,3.402 9.439,3.401 9.439,3.4 9.44,3.4 9.441,3.401 9.441,3.402 L 9.443,3.4 C 9.441,3.396 9.446,3.396 9.448,3.394 L 9.446,3.391 c 0,0 0,-0.002 10e-4,-0.002 z" id="path_51"/><path fill="@color/yellow" d="M 8.748,5.943 C 8.72,5.945 8.741,5.905 8.741,5.891 8.72,5.893 8.727,5.91 8.704,5.921 8.69,5.918 8.675,5.906 8.66,5.9 8.672,5.864 8.716,5.88 8.743,5.848 8.753,5.858 8.742,5.87 8.74,5.881 8.75,5.892 8.758,5.865 8.768,5.86 8.761,5.854 8.755,5.848 8.748,5.842 8.72,5.851 8.692,5.86 8.662,5.838 8.645,5.851 8.667,5.863 8.645,5.877 8.651,5.91 8.662,5.943 8.655,5.976 8.662,5.981 8.669,5.971 8.664,5.966 8.706,5.982 8.761,5.974 8.789,5.988 8.813,5.976 8.784,5.966 8.801,5.954 8.797,5.926 8.748,5.923 8.748,5.943 Z" id="path_52"/><path fill="@color/yellow" d="m 7.624,9.411 c 0,-0.002 0.001,-0.003 0.002,-0.003 V 9.404 H 7.623 c 0,10e-4 0,0.002 -0.001,0.002 C 7.62,9.406 7.621,9.403 7.62,9.401 H 7.616 c 0,0 0,-0.002 0,-0.003 H 7.612 C 7.61,9.407 7.618,9.408 7.615,9.418 H 7.618 V 9.416 C 7.62,9.414 7.622,9.415 7.624,9.415 Z" id="path_53"/><path fill="@color/yellow" d="M 7.769,9.396 H 7.765 C 7.765,9.397 7.766,9.399 7.764,9.4 7.763,9.399 7.763,9.397 7.763,9.396 H 7.755 V 9.398 C 7.75,9.402 7.742,9.398 7.74,9.403 7.739,9.402 7.738,9.401 7.738,9.4 7.732,9.398 7.733,9.404 7.728,9.403 7.724,9.403 7.726,9.399 7.725,9.397 7.719,9.393 7.724,9.403 7.718,9.401 V 9.407 H 7.722 C 7.721,9.405 7.722,9.405 7.723,9.404 7.725,9.405 7.724,9.408 7.724,9.41 L 7.736,9.408 C 7.737,9.406 7.738,9.407 7.74,9.407 c 0,0 10e-4,10e-4 10e-4,0.003 H 7.747 C 7.747,9.408 7.746,9.406 7.748,9.405 7.749,9.406 7.749,9.406 7.749,9.408 H 7.752 C 7.755,9.409 7.754,9.406 7.755,9.405 7.757,9.406 7.756,9.409 7.757,9.41 H 7.76 c -10e-4,-0.002 0,-0.002 0,-0.002 0.001,0 0.002,0.001 0.002,0.002 C 7.768,9.407 7.77,9.403 7.777,9.403 V 9.399 H 7.774 C 7.771,9.4 7.767,9.399 7.769,9.396 Z" id="path_54"/><path fill="@color/yellow" d="m 7.828,9.399 c -0.001,0.005 -0.01,0 -0.011,0.005 0,0 -0.001,-10e-4 -0.001,-0.002 C 7.813,9.401 7.81,9.403 7.807,9.4 7.808,9.4 7.809,9.399 7.81,9.399 V 9.395 H 7.806 c 0,0.001 0,0.003 -0.001,0.004 -10e-4,0 -10e-4,-0.002 -10e-4,-0.003 H 7.8 V 9.398 C 7.8,9.399 7.798,9.4 7.797,9.4 7.795,9.399 7.796,9.397 7.796,9.396 H 7.79 V 9.4 c 0.001,0 0.004,-0.001 0.004,10e-4 0,0.002 -0.003,10e-4 -0.004,0.002 v 0.004 c 0.002,0 0.006,-10e-4 0.008,10e-4 C 7.797,9.409 7.796,9.409 7.794,9.409 L 7.796,9.418 C 7.799,9.417 7.805,9.42 7.805,9.415 L 7.807,9.417 C 7.814,9.419 7.815,9.415 7.82,9.415 7.821,9.414 7.823,9.416 7.823,9.417 c 0.005,0 0.008,0 0.012,-0.002 V 9.411 C 7.835,9.41 7.836,9.408 7.837,9.409 7.838,9.404 7.833,9.403 7.831,9.4 Z" id="path_55"/><path fill="@color/yellow" d="m 8.738,2.321 c 0,10e-4 0,0.002 -10e-4,0.002 L 8.74,2.326 C 8.743,2.323 8.749,2.322 8.749,2.317 c 0,0 10e-4,0 0.002,0.002 L 8.753,2.318 C 8.751,2.313 8.756,2.313 8.758,2.311 8.753,2.304 8.764,2.306 8.762,2.3 8.763,2.3 8.763,2.3 8.764,2.302 8.769,2.301 8.766,2.297 8.77,2.295 L 8.768,2.293 H 8.767 C 8.765,2.292 8.764,2.289 8.763,2.287 8.759,2.284 8.754,2.285 8.759,2.291 8.758,2.291 8.757,2.29 8.757,2.289 L 8.755,2.291 C 8.756,2.296 8.749,2.297 8.747,2.3 l 10e-4,0.002 c 0,10e-4 -10e-4,0.002 -10e-4,0.002 -10e-4,0 -0.002,-0.002 -0.003,-0.002 L 8.742,2.303 8.743,2.305 C 8.744,2.306 8.742,2.307 8.742,2.307 8.741,2.307 8.74,2.305 8.739,2.304 8.736,2.306 8.741,2.314 8.735,2.314 8.736,2.316 8.733,2.317 8.736,2.32 c 0,0 10e-4,0.001 0.002,0.001 z" id="path_56"/><path fill="@color/yellow" d="m 9.072,3.004 c 0.002,0 0.002,0.002 0.003,0.003 L 9.077,3.006 c -10e-4,0 0,-10e-4 -10e-4,-0.002 10e-4,10e-4 0.002,10e-4 0.002,10e-4 0.004,-10e-4 0,-0.008 0.006,-0.008 C 9.083,2.995 9.083,2.993 9.083,2.992 c 0.002,0 0.002,0.002 0.003,0.003 L 9.089,2.993 C 9.088,2.99 9.086,2.989 9.087,2.987 c 0.002,0 0.002,0.003 0.004,0.005 L 9.093,2.991 9.091,2.988 c 0,-10e-4 0,-0.002 0.001,-0.002 L 9.09,2.983 9.088,2.985 C 9.087,2.986 9.086,2.985 9.085,2.984 L 9.083,2.985 C 9.082,2.986 9.08,2.987 9.079,2.985 9.077,2.988 9.078,2.994 9.072,2.995 L 9.073,2.997 C 9.069,3 9.069,3.005 9.067,3.009 L 9.069,3.012 C 9.071,3.01 9.072,3.007 9.072,3.004 Z" id="path_57"/><path fill="@color/yellow" d="M 9.058,3.019 C 9.057,3.018 9.055,3.016 9.056,3.015 9.057,3.014 9.058,3.017 9.058,3.019 L 9.061,3.017 V 3.016 c -10e-4,-0.002 0,-0.002 0,-0.002 0.002,0 0.003,0 0.003,0.001 L 9.066,3.014 C 9.065,3.012 9.068,3.011 9.064,3.008 L 9.062,3.009 C 9.061,3.01 9.059,3.011 9.058,3.009 9.054,3.011 9.05,3.014 9.056,3.021 Z" id="path_58"/><path fill="@color/yellow" d="M 8.707,2.33 C 8.71,2.332 8.713,2.338 8.717,2.338 L 8.718,2.337 c 10e-4,0 10e-4,0 0.002,10e-4 L 8.722,2.337 c 0.001,-0.001 0.003,-0.002 0.004,0 0.007,0 0.002,-0.007 0.009,-0.008 L 8.733,2.326 C 8.731,2.327 8.729,2.329 8.727,2.328 8.727,2.326 8.728,2.326 8.729,2.326 L 8.727,2.323 c 0,-10e-4 0,-0.002 0,-0.002 L 8.725,2.318 H 8.724 C 8.723,2.318 8.722,2.316 8.721,2.315 8.718,2.317 8.716,2.321 8.712,2.32 V 2.319 L 8.71,2.321 c -0.002,0 0,0.002 -0.001,0.004 0,0 -0.002,-0.001 -0.002,-0.002 -0.006,-10e-4 0.003,0.005 0,0.007 z" id="path_59"/><path fill="@color/yellow" d="M 8.586,2.069 8.587,2.068 C 8.591,2.069 8.592,2.07 8.595,2.072 8.596,2.074 8.593,2.074 8.593,2.075 L 8.595,2.078 8.597,2.077 8.595,2.075 C 8.601,2.073 8.593,2.063 8.601,2.063 L 8.6,2.061 C 8.6,2.059 8.603,2.059 8.604,2.057 L 8.603,2.054 8.602,2.055 C 8.6,2.055 8.6,2.052 8.599,2.051 8.592,2.053 8.593,2.059 8.591,2.062 L 8.593,2.065 C 8.594,2.065 8.595,2.063 8.596,2.064 8.597,2.067 8.592,2.066 8.595,2.07 8.592,2.067 8.588,2.062 8.587,2.058 L 8.588,2.057 8.585,2.052 8.581,2.055 c 0,0.003 0.002,0.005 0.001,0.007 z" id="path_60"/><path fill="@color/yellow" d="m 8.152,2.065 c 0.001,0 0.002,0.002 0.003,0.003 0,10e-4 -10e-4,0.002 -10e-4,0.002 L 8.158,2.078 8.16,2.076 c 0.002,10e-4 0.004,0.004 0.005,0.006 0.001,0 0.002,-0.002 0.004,-10e-4 0,0 0,0.002 -0.001,0.002 l 0.001,0.002 c 10e-4,0 0.004,0.004 0.006,10e-4 C 8.174,2.085 8.172,2.084 8.173,2.083 c 10e-4,0 10e-4,0 0.002,10e-4 C 8.178,2.081 8.185,2.081 8.184,2.075 8.18,2.071 8.185,2.069 8.181,2.065 8.18,2.066 8.179,2.067 8.178,2.066 8.177,2.064 8.179,2.064 8.18,2.063 L 8.177,2.06 c 0,-0.002 0.001,-0.002 0.001,-0.002 L 8.177,2.055 C 8.175,2.055 8.174,2.058 8.171,2.057 8.171,2.055 8.173,2.055 8.175,2.053 8.174,2.051 8.177,2.049 8.173,2.047 L 8.171,2.048 8.172,2.049 C 8.172,2.05 8.171,2.051 8.171,2.051 8.17,2.051 8.169,2.05 8.169,2.049 L 8.149,2.062 8.15,2.066 Z" id="path_61"/></svg>