<svg id="vector" xmlns="http://www.w3.org/2000/svg" width="11.338989d" height="11.338989d" viewBox="0 0 11.339 11.339"><path fill="#000000" d="M6.222,5.269l-1.104,0l-0.019,0l-0.205,0.188l0.259,0.055l0.072,-0.122l0.89,0l0.071,0.122l0.259,-0.055l-0.205,-0.188z" id="path_0"/><path fill="#000000" d="M6.011,4.627l-0.033,0l-0.617,0l-0.033,0l0.342,0.364z" id="path_1"/><path fill="#000000" d="M4.598,5.558l0.315,0.22l-0.157,-0.266l-0.069,-0.266z" id="path_2"/><path fill="#000000" d="M5.935,5.567l-0.047,0l-0.044,0l-0.349,0l-0.044,0l-0.047,0l-0.044,0l-0.274,0.302l0.322,-0.132l0.106,-0.026l0.156,-0.002l0.156,0.002l0.106,0.026l0.322,0.132l-0.274,-0.302z" id="path_3"/><path fill="#000000" d="M6.584,5.512l-0.157,0.266l0.315,-0.22l-0.09,-0.312z" id="path_4"/><path fill="#000000" d="M7.343,7.033l0.345,-1.518l0.481,-0.89L7.912,5.869l0.082,1.356L7.343,7.593l0.345,0.802L6.918,8.924L6.567,8.443L5.67,10.241L4.772,8.443l-0.35,0.481L3.652,8.396l0.344,-0.802L3.345,7.225l0.082,-1.356L3.171,4.624l0.482,0.89l0.344,1.518l1.673,1.41L7.343,7.033zM5.445,3.781L5.278,3.315L3.863,3.273L3.756,3.078l0.249,-0.123L4.05,2.697L5.436,1.99L5.67,1.825L5.903,1.99l1.386,0.706l0.046,0.258l0.249,0.123L7.477,3.273L6.062,3.315L5.894,3.781L6.347,3.93l-0.1,-0.2l0.473,-0.106l0.406,0.089l-0.1,0.216l0.41,-0.121l0.142,0.259L6.931,4.751L6.484,4.616l0.442,0.418v0.699L7.335,5.11L7.227,5.834l-0.614,0.54L6.389,6.083L6.411,6.44L6.305,6.555h-1.27L4.928,6.44L4.95,6.083L4.727,6.374l-0.615,-0.54L4.005,5.11l0.41,0.624V5.035l0.442,-0.418L4.409,4.751L3.761,4.068l0.142,-0.259l0.41,0.121l-0.1,-0.216l0.406,-0.089l0.473,0.106l-0.1,0.2L5.445,3.781zM5.67,1.344l0.578,0.349l0.508,-0.217l0.587,0.122l0.812,1.064l-0.09,0.561L7.704,2.894V2.546L5.67,1.649L3.636,2.546v0.348L3.275,3.222l-0.09,-0.561l0.812,-1.064l0.588,-0.122l0.502,0.217L5.67,1.344zM5.67,0.982L3.803,1.43L2.915,2.594L2.552,8.434l3.118,2.105l3.118,-2.104V8.429L8.426,2.622L8.424,2.594L7.537,1.43L5.67,0.982z" id="path_5"/></svg>