<svg id="vector" xmlns="http://www.w3.org/2000/svg" width="11.338989d" height="11.338989d" viewBox="0 0 11.339 11.339"><path fill="#000000" d="M9.158,5.996l0.492,-0.4l-0.492,-0.4l0.358,-0.447L8.922,4.435l0.204,-0.451l-0.41,-0.196L8.502,3.481l0.37,-0.508L8.27,2.29H7.599L6.785,1.616L6.467,1.829L5.669,1.134L4.872,1.829L4.554,1.616L3.74,2.29H3.069L2.467,2.973l0.37,0.508L2.623,3.788l-0.41,0.196l0.204,0.451L1.824,4.749l0.358,0.447l-0.492,0.4l0.492,0.4L1.824,6.443l0.578,0.314L2.213,7.207l0.43,0.205C2.76,7.836 2.932,8.182 3.13,8.465c0.594,0.907 1.559,1.158 1.814,1.21c0.008,0.002 0.015,0.003 0.021,0.004c0.002,0 0.003,0.001 0.004,0.001c0.025,0.005 0.039,0.007 0.039,0.007l0.661,0.519L6.33,9.686c0,0 0.014,-0.002 0.039,-0.007c0.001,0 0.003,-0.001 0.004,-0.001C6.38,9.677 6.387,9.676 6.394,9.674c0.256,-0.052 1.22,-0.303 1.814,-1.21c0.199,-0.282 0.37,-0.628 0.487,-1.052l0.43,-0.205L8.937,6.757l0.578,-0.314L9.158,5.996zM5.669,2.759h2.455L8.051,3.195H5.669H3.288L3.214,2.759H5.669zM7.969,3.805l-0.37,2.886l-1.93,1.022L3.74,6.691L3.37,3.805l0.707,0.244l1.593,-0.386l1.593,0.386L7.969,3.805zM5.669,9.073C4.646,9.07 3.744,8.556 3.203,7.772l0.663,-0.481c0.391,0.579 1.053,0.96 1.803,0.963C6.42,8.251 7.082,7.87 7.473,7.291l0.663,0.481C7.595,8.556 6.693,9.07 5.669,9.073z" id="path_0"/><path fill="#000000" d="M5.669,4.284l-0.648,0l0,1.397l-0.227,0.139l0,-0.749l-0.678,0l-0.001,1.232l0,0l-0.141,0.183l1.695,0.865l1.696,-0.865l-0.141,-0.183l0,0l-0.001,-1.232l-0.678,0l0,0.749l-0.227,-0.139l0,-1.397z" id="path_1"/></svg>