<svg id="vector" xmlns="http://www.w3.org/2000/svg" width="11.338989d" height="11.338989d" viewBox="0 0 11.339 11.339"><path fill="#000000" d="STRING_TOO_LARGE" id="path_0"/><path fill="#000000" d="M8.386,8.299h0.002v0.002h-0.002z" id="path_1"/><path fill="#000000" d="M8.388,8.301C8.397,8.326 8.42,8.326 8.44,8.323c0.003,0.011 0.004,0.018 0.005,0.02c0.019,0 0.036,0 0.056,0C8.482,8.326 8.467,8.312 8.456,8.301C8.446,8.276 8.458,8.249 8.431,8.237C8.433,8.269 8.423,8.293 8.388,8.301z" id="path_2"/><path fill="#000000" d="M8.429,8.235h0.002v0.001h-0.002z" id="path_3"/><path fill="#000000" d="M2.614,3.316c-0.002,0 -0.004,-0.001 -0.005,-0.001c-0.002,0.01 -0.004,0.021 -0.006,0.031c0.003,0 0.006,0.001 0.009,0.001C2.612,3.337 2.613,3.326 2.614,3.316z" id="path_4"/><path fill="#000000" d="M3.343,8.559c0,0.008 0,0.016 0,0.024c0.002,0 0.004,-0.001 0.007,-0.001C3.348,8.574 3.347,8.566 3.347,8.558C3.345,8.558 3.344,8.559 3.343,8.559z" id="path_5"/><path fill="#000000" d="M4.168,2.078c-0.007,0 -0.015,0 -0.022,0c0,0.002 0,0.003 0,0.005c0.007,0 0.015,0.001 0.022,0.001C4.168,2.082 4.168,2.08 4.168,2.078z" id="path_6"/><path fill="#000000" d="M3.207,8.596l0.003,-0.005l0,-0.002l-0.001,0.001z" id="path_7"/><path fill="#000000" d="M2.311,3.707l-0.006,-0.001l0.002,0.009z" id="path_8"/><path fill="#000000" d="M8.4,8.363l0,-0.006l-0.008,0.002z" id="path_9"/><path fill="#000000" d="M3.055,2.781l-0.004,0.002l0.003,0.002z" id="path_10"/><path fill="#000000" d="M6.404,1.84l-0.002,0.003l0.003,0z" id="path_11"/><path fill="#000000" d="M2.614,3.283h0.003v0.003h-0.003z" id="path_12"/><path fill="#000000" d="M9.562,5.505l-0.007,-0.005l-0.001,-0.001l-0.001,0.003z" id="path_13"/><path fill="#000000" d="M3.578,6.386h0v0.002h-0z" id="path_14"/><path fill="#000000" d="M3.485,6.371C3.482,6.363 3.479,6.356 3.476,6.347c-0.01,0.006 -0.018,0.01 -0.027,0.014c0.018,0.024 0.034,0.046 0.05,0.067C3.481,6.42 3.464,6.412 3.44,6.401c-0.006,0.002 -0.019,0.007 -0.04,0.014C3.419,6.43 3.433,6.441 3.447,6.452c-0.001,0.005 -0.003,0.01 -0.005,0.017C3.428,6.463 3.414,6.457 3.397,6.45c0.014,0.046 0.01,0.072 -0.014,0.11C3.374,6.559 3.364,6.558 3.353,6.556C3.343,6.617 3.395,6.62 3.424,6.641c0.029,-0.01 0.026,-0.054 0.064,-0.047c0.023,0.021 0.05,0.039 0.07,0.063C3.605,6.712 3.668,6.723 3.73,6.73c0.014,0.02 0.027,0.038 0.04,0.057C3.765,6.788 3.76,6.79 3.759,6.79c0.008,0.014 0.016,0.028 0.026,0.045c0.014,-0.017 0.022,-0.027 0.032,-0.038c-0.01,-0.022 -0.019,-0.043 -0.028,-0.064c0.014,0.005 0.027,0.008 0.049,0.016c-0.01,-0.026 -0.017,-0.043 -0.025,-0.063c0.011,-0.016 0.023,-0.034 0.033,-0.05C3.856,6.647 3.868,6.658 3.88,6.669C3.881,6.695 3.9,6.674 3.909,6.68C3.898,6.621 3.875,6.57 3.812,6.538c0.029,0 0.049,0 0.068,0c0,-0.01 0,-0.02 0,-0.031C3.871,6.504 3.864,6.501 3.856,6.498c0.005,-0.007 0.009,-0.013 0.013,-0.019C3.852,6.46 3.835,6.44 3.818,6.42c0.003,-0.008 0.005,-0.016 0.009,-0.026C3.804,6.369 3.78,6.345 3.748,6.31C3.743,6.337 3.741,6.35 3.739,6.365C3.73,6.368 3.72,6.371 3.716,6.373c-0.011,-0.02 -0.021,-0.038 -0.031,-0.058C3.675,6.322 3.671,6.325 3.666,6.33c0.016,0.021 0.036,0.043 0,0.065C3.66,6.392 3.653,6.389 3.648,6.386c-0.011,0.015 -0.021,0.03 -0.034,0.048c-0.015,-0.02 -0.025,-0.033 -0.036,-0.046C3.564,6.388 3.549,6.387 3.535,6.387C3.525,6.363 3.502,6.374 3.485,6.371zM3.433,6.586l-0.003,0c0,-0.004 0,-0.009 0,-0.013c0.001,0 0.003,0 0.004,0C3.434,6.577 3.434,6.582 3.433,6.586zM3.799,6.491C3.792,6.487 3.784,6.482 3.777,6.478C3.778,6.476 3.779,6.474 3.78,6.472c0.008,0.003 0.016,0.007 0.024,0.01C3.802,6.485 3.801,6.488 3.799,6.491zM3.77,6.374c-0.002,0.003 -0.005,0.007 -0.007,0.01C3.764,6.38 3.764,6.376 3.765,6.372C3.766,6.373 3.768,6.374 3.77,6.374zM3.762,6.389c0.009,0.01 0.019,0.019 0.028,0.029C3.764,6.436 3.764,6.436 3.742,6.391C3.75,6.391 3.756,6.39 3.762,6.389zM3.468,6.519L3.468,6.519C3.467,6.521 3.467,6.522 3.468,6.519zM3.474,6.515C3.479,6.513 3.484,6.511 3.49,6.51c0,0.002 0.001,0.003 0.001,0.005C3.485,6.515 3.479,6.515 3.474,6.515zM3.491,6.471C3.489,6.469 3.486,6.466 3.484,6.463C3.485,6.462 3.486,6.46 3.487,6.461c0.004,0.001 0.008,0.003 0.011,0.004C3.496,6.467 3.494,6.469 3.491,6.471zM3.571,6.555C3.57,6.552 3.569,6.548 3.568,6.544c0,0 0.003,-0.001 0.004,-0.002C3.573,6.546 3.574,6.55 3.575,6.554C3.574,6.555 3.572,6.555 3.571,6.555zM3.577,6.434c-0.023,0.012 -0.04,0.037 -0.064,0.008c0.014,-0.011 0.028,-0.021 0.044,-0.033C3.563,6.416 3.569,6.424 3.577,6.434z" id="path_15"/><path fill="#000000" d="M3.979,7.91l-0.002,0.001l0,0z" id="path_16"/><path fill="#000000" d="M3.957,7.63C3.954,7.597 3.941,7.569 3.906,7.555C3.897,7.557 3.887,7.56 3.877,7.563C3.86,7.541 3.85,7.511 3.816,7.51c-0.017,0 -0.024,0.013 -0.023,0.03C3.801,7.554 3.81,7.567 3.82,7.583C3.808,7.585 3.801,7.586 3.794,7.587C3.776,7.606 3.813,7.615 3.801,7.636c-0.005,0.002 -0.013,0.005 -0.02,0.008C3.766,7.63 3.756,7.606 3.731,7.626C3.73,7.62 3.728,7.614 3.726,7.607C3.715,7.606 3.703,7.605 3.684,7.603C3.69,7.623 3.695,7.64 3.701,7.658c-0.035,0.018 -0.04,-0.025 -0.062,-0.032C3.633,7.633 3.629,7.641 3.624,7.648C3.615,7.647 3.607,7.645 3.597,7.644C3.592,7.653 3.587,7.661 3.582,7.67C3.575,7.668 3.568,7.666 3.56,7.664c0.001,0.01 0.001,0.018 0.001,0.026C3.555,7.695 3.548,7.698 3.539,7.704c0.014,0.009 0.027,0.015 0.037,0.024c0.011,0.01 0.02,0.021 0.03,0.032c-0.005,0.001 -0.011,0.001 -0.02,0.002c0.02,0.029 0.052,0.046 0.044,0.083C3.62,7.847 3.609,7.847 3.598,7.848C3.596,7.896 3.553,7.891 3.517,7.903c0.015,0.016 0.027,0.03 0.039,0.043C3.557,7.943 3.558,7.941 3.56,7.938c0.023,0.003 0.047,0.006 0.07,0.009C3.648,7.96 3.626,7.991 3.652,7.997C3.657,8.004 3.66,8.015 3.666,8.017c0.044,0.01 0.077,0.036 0.106,0.068C3.777,8.09 3.783,8.093 3.789,8.097C3.777,8.065 3.753,8.039 3.775,8.004C3.766,7.995 3.759,7.986 3.745,7.971C3.766,7.972 3.778,7.973 3.79,7.973C3.792,7.965 3.793,7.96 3.794,7.955c0.009,0.003 0.019,0.005 0.029,0.008c0.017,-0.021 0.032,-0.04 0.049,-0.061c0.004,0.033 0.025,0.06 0.046,0.057C3.923,7.949 3.929,7.936 3.932,7.93c0.018,-0.008 0.032,-0.014 0.045,-0.019C3.965,7.895 3.954,7.877 3.941,7.863C3.935,7.858 3.923,7.858 3.914,7.856C3.91,7.822 3.927,7.786 3.899,7.753C3.911,7.75 3.918,7.749 3.924,7.748c0.01,-0.011 0.022,-0.021 0.031,-0.033c0.011,-0.013 0.02,-0.028 0.029,-0.041c0.01,0.017 0.022,0.013 0.034,-0.002C3.993,7.635 3.993,7.635 3.957,7.63zM3.642,7.717c0.003,-0.013 0.004,-0.017 0.004,-0.021C3.65,7.698 3.652,7.699 3.655,7.7C3.653,7.703 3.65,7.707 3.642,7.717zM3.67,7.972C3.667,7.952 3.665,7.934 3.661,7.91C3.7,7.919 3.696,7.944 3.697,7.972C3.684,7.972 3.675,7.972 3.67,7.972zM3.745,7.648c-0.004,0 -0.008,0 -0.012,-0.001c0,-0.001 0,-0.003 0,-0.003c0.004,0 0.008,0 0.012,0.001C3.745,7.646 3.745,7.647 3.745,7.648zM3.791,7.953C3.791,7.953 3.79,7.952 3.791,7.953C3.79,7.952 3.79,7.953 3.791,7.953C3.788,7.952 3.787,7.952 3.791,7.953z" id="path_17"/><path fill="#000000" d="M2.865,4.107c0.029,0.01 0.016,0.035 0.018,0.055C2.871,4.164 2.859,4.167 2.847,4.17c0.002,0.027 0.02,0.036 0.039,0.045c0.013,0.019 0.028,0.011 0.042,0.001C2.929,4.227 2.93,4.239 2.93,4.244c0.022,0.014 0.038,0.025 0.054,0.035C3.012,4.244 2.951,4.24 2.963,4.212c0.03,-0.005 0.03,-0.005 0.04,0.015C3.02,4.256 3.036,4.285 3.052,4.312c0.011,-0.006 0.019,-0.011 0.029,-0.016c0,-0.009 0,-0.017 0,-0.026c0.007,-0.004 0.015,-0.009 0.023,-0.014c-0.015,-0.023 -0.025,-0.04 -0.036,-0.057C3.073,4.192 3.08,4.184 3.085,4.177c0.023,0.016 0.042,0.029 0.053,0.037c0.031,0.001 0.023,-0.036 0.048,-0.032C3.17,4.167 3.155,4.153 3.138,4.137C3.143,4.115 3.15,4.09 3.156,4.065c0.005,0.004 0.012,0.008 0.012,0.011C3.167,4.09 3.155,4.104 3.182,4.104c0.003,0 0.006,0.015 0.009,0.025c0.017,-0.008 0.033,-0.015 0.058,-0.027c-0.02,-0.016 -0.033,-0.026 -0.047,-0.037c0.001,-0.004 0.007,-0.017 0.003,-0.023C3.198,4.033 3.185,4.028 3.172,4.02C3.185,4.005 3.197,3.989 3.21,3.973c-0.005,-0.006 -0.008,-0.01 -0.011,-0.013C3.189,3.968 3.18,3.977 3.172,3.983C3.15,3.946 3.131,3.913 3.113,3.882C3.099,3.886 3.092,3.888 3.084,3.89C3.078,3.872 3.091,3.848 3.062,3.844C3.06,3.865 3.058,3.887 3.056,3.908C3.048,3.909 3.04,3.909 3.031,3.91C3.029,3.927 3.026,3.943 3.024,3.958C3.031,3.965 3.037,3.97 3.049,3.981c-0.032,-0.01 -0.053,-0.016 -0.075,-0.023C2.972,3.944 2.969,3.93 2.966,3.913C2.95,3.92 2.938,3.925 2.925,3.93C2.921,3.921 2.918,3.913 2.913,3.903c-0.01,0.006 -0.018,0.011 -0.034,0.02c0.014,0.014 0.024,0.025 0.037,0.038c-0.001,0.003 -0.002,0.01 -0.003,0.018C2.905,3.976 2.897,3.974 2.886,3.971c0.001,0.013 0.002,0.024 0.002,0.037c-0.006,0 -0.011,-0.001 -0.016,-0.001c-0.012,-0.016 -0.049,-0.035 -0.06,-0.025c0.009,0.01 0.018,0.02 0.028,0.031C2.837,4.025 2.834,4.038 2.833,4.042C2.847,4.069 2.856,4.088 2.865,4.107zM3.117,3.991c0.004,0 0.008,0 0.013,0c0,0.001 0,0.002 0,0.003c-0.004,0 -0.008,0 -0.013,0C3.117,3.994 3.117,3.992 3.117,3.991zM3.128,4.046c0,0.001 0,0.003 0,0.003C3.124,4.05 3.12,4.05 3.116,4.05c0,-0.001 0,-0.003 0,-0.004C3.12,4.046 3.124,4.046 3.128,4.046zM3.087,4c0.002,0 0.002,0.005 0.003,0.007C3.088,4.009 3.084,4.011 3.083,4.01C3.081,4.009 3.08,4.005 3.078,4.003C3.081,4.002 3.084,4 3.087,4zM3.055,4.236c0.002,0.017 0.004,0.027 0.006,0.045C3.046,4.269 3.038,4.263 3.026,4.254C3.036,4.248 3.043,4.244 3.055,4.236zM2.946,3.951C2.948,3.954 2.949,3.957 2.95,3.96C2.948,3.961 2.946,3.962 2.943,3.962c0,-0.003 -0.001,-0.006 -0.001,-0.008C2.942,3.953 2.945,3.952 2.946,3.951zM2.909,4.177C2.907,4.179 2.905,4.182 2.903,4.185c-0.005,-0.007 -0.01,-0.014 -0.015,-0.02C2.895,4.169 2.902,4.173 2.909,4.177zM2.873,4.009c0.003,0.01 0.006,0.02 0.011,0.037C2.862,4.031 2.863,4.021 2.873,4.009z" id="path_18"/><path fill="#000000" d="M3.312,6.338c0.009,-0.024 0.016,-0.046 0.025,-0.071c0.026,0.004 0.051,0.007 0.077,0.011c0.006,-0.02 0.01,-0.04 0.019,-0.058c0.011,-0.025 0.026,-0.048 0.039,-0.071c0.006,-0.001 0.012,-0.002 0.022,-0.003c-0.01,-0.02 -0.018,-0.036 -0.026,-0.052c0.009,-0.004 0.016,-0.007 0.028,-0.012C3.478,6.063 3.463,6.047 3.448,6.03l0,0C3.416,6 3.41,6.046 3.382,6.054C3.355,6.051 3.32,6.047 3.279,6.043c-0.003,0.02 -0.007,0.04 -0.011,0.063c-0.009,-0.003 -0.016,-0.007 -0.024,-0.01C3.239,6.112 3.233,6.129 3.229,6.143C3.218,6.141 3.213,6.14 3.209,6.139c-0.003,0.022 -0.007,0.043 -0.01,0.065C3.213,6.266 3.271,6.293 3.312,6.338zM3.468,6.147L3.468,6.147C3.465,6.147 3.463,6.146 3.468,6.147zM3.291,6.195c0.002,0.003 0.003,0.008 0.004,0.012C3.293,6.208 3.291,6.209 3.289,6.209C3.286,6.205 3.284,6.201 3.281,6.197C3.285,6.197 3.29,6.194 3.291,6.195z" id="path_19"/><path fill="#000000" d="M3.311,5.618c0.028,0.023 0.066,0.033 0.084,0.07c0.008,0.016 0.02,0.033 0.052,0.033C3.438,5.698 3.43,5.682 3.424,5.667c0.02,-0.007 0.039,-0.014 0.057,-0.02c0.009,0.004 0.016,0.008 0.024,0.012C3.506,5.656 3.508,5.654 3.51,5.652C3.503,5.637 3.496,5.623 3.485,5.601c0.016,0.007 0.027,0.012 0.039,0.017C3.524,5.605 3.523,5.597 3.523,5.587C3.545,5.58 3.567,5.573 3.589,5.566c0.027,-0.042 0.027,-0.061 0,-0.084c-0.03,-0.025 -0.056,-0.02 -0.097,0.015C3.488,5.514 3.484,5.529 3.48,5.544C3.441,5.523 3.429,5.469 3.377,5.454c0.007,0.013 0.011,0.02 0.013,0.023C3.364,5.491 3.34,5.505 3.316,5.518c-0.001,0.02 -0.001,0.036 -0.004,0.052c-0.001,0.007 -0.01,0.012 -0.015,0.018c0,0 0,0 0,0c-0.01,-0.009 -0.019,-0.013 -0.032,0.007c0.01,0.011 0.02,0.024 0.031,0.036C3.304,5.624 3.311,5.617 3.311,5.618zM3.495,5.539C3.499,5.55 3.503,5.56 3.507,5.571C3.478,5.579 3.482,5.56 3.481,5.545C3.485,5.543 3.489,5.541 3.495,5.539zM3.295,5.59L3.295,5.59C3.292,5.591 3.291,5.592 3.295,5.59z" id="path_20"/><path fill="#000000" d="M3.657,4.874C3.631,4.884 3.607,4.892 3.6,4.928c0.008,0.017 0.018,0.038 0.029,0.061c0.026,-0.009 0.046,-0.017 0.07,-0.026C3.692,4.998 3.655,5.011 3.665,5.046c0.011,0.036 0.036,0.045 0.072,0.047c0.01,-0.016 0.022,-0.034 0.035,-0.055c0.035,0.002 0.065,-0.01 0.082,-0.048c0.003,-0.008 0.015,-0.011 0.024,-0.017C3.872,4.948 3.866,4.923 3.859,4.897C3.828,4.921 3.835,4.883 3.82,4.88C3.801,4.877 3.784,4.867 3.768,4.86c-0.019,0.01 -0.037,0.02 -0.054,0.03C3.706,4.879 3.699,4.869 3.687,4.851c-0.001,0.02 -0.002,0.032 -0.003,0.043C3.675,4.887 3.665,4.88 3.657,4.874zM3.687,4.942c0.005,-0.016 0.007,-0.025 0.01,-0.034C3.707,4.917 3.711,4.927 3.687,4.942z" id="path_21"/><path fill="#000000" d="M3.542,7.521C3.544,7.517 3.547,7.511 3.55,7.504C3.56,7.508 3.569,7.513 3.578,7.517c0.045,-0.029 0.053,-0.049 0.033,-0.092C3.602,7.406 3.589,7.39 3.578,7.372C3.552,7.363 3.522,7.364 3.504,7.339C3.496,7.35 3.487,7.361 3.478,7.372c-0.01,0.012 -0.02,0.025 -0.029,0.035C3.461,7.473 3.506,7.529 3.542,7.521z" id="path_22"/><path fill="#000000" d="M3.293,6.782C3.296,6.78 3.301,6.77 3.309,6.767c0.008,-0.003 0.019,-0.001 0.029,-0.001C3.325,6.732 3.367,6.74 3.372,6.711c0.013,-0.054 -0.044,-0.069 -0.067,-0.098C3.269,6.618 3.24,6.623 3.21,6.628c0.007,0.03 0.015,0.063 0.022,0.095L3.231,6.722c0,0.001 0,0.002 0,0.003l0.001,-0.002C3.253,6.743 3.273,6.763 3.293,6.782z" id="path_23"/><path fill="#000000" d="M3.716,6.829C3.692,6.794 3.669,6.759 3.645,6.725C3.62,6.727 3.599,6.729 3.576,6.731c-0.008,-0.006 -0.019,-0.014 -0.03,-0.022C3.554,6.701 3.56,6.695 3.571,6.684C3.55,6.674 3.534,6.667 3.513,6.658c-0.012,-0.024 -0.012,-0.024 -0.042,-0.03C3.465,6.646 3.459,6.665 3.453,6.683C3.477,6.705 3.477,6.705 3.5,6.704c-0.002,-0.01 -0.004,-0.02 -0.007,-0.035c0.014,0.01 0.022,0.015 0.031,0.021c-0.003,0.01 -0.006,0.02 -0.01,0.034c0.021,0.017 0.042,0.034 0.061,0.05c0.011,-0.007 0.019,-0.012 0.032,-0.02C3.612,6.768 3.618,6.78 3.621,6.791c0.01,0.032 0.003,0.073 0.054,0.094c-0.006,-0.018 -0.01,-0.028 -0.014,-0.038C3.678,6.836 3.694,6.823 3.716,6.829z" id="path_24"/><path fill="#000000" d="M3.387,6.987c-0.012,0.034 0.016,0.05 0.038,0.071c0.051,-0.011 0.051,-0.012 0.052,-0.039c-0.019,-0.025 -0.03,-0.041 -0.045,-0.06C3.414,6.956 3.394,6.964 3.387,6.987z" id="path_25"/><path fill="#000000" d="M3.329,7.287C3.27,7.318 3.272,7.34 3.339,7.387c0.014,-0.01 0.029,-0.02 0.046,-0.032C3.375,7.317 3.356,7.299 3.329,7.287z" id="path_26"/><path fill="#000000" d="M3.174,5.83C3.133,5.767 3.114,5.764 3.082,5.815C3.096,5.842 3.109,5.868 3.14,5.869C3.163,5.87 3.172,5.851 3.174,5.83z" id="path_27"/><path fill="#000000" d="M3.39,7.885c-0.029,0.012 -0.036,0.03 -0.025,0.049c0.01,0.017 0.024,0.037 0.049,0.036c0.021,-0.001 0.034,-0.026 0.02,-0.044C3.421,7.91 3.404,7.898 3.39,7.885z" id="path_28"/><path fill="#000000" d="M3.342,3.901c0.017,-0.023 0.01,-0.045 -0.003,-0.067C3.32,3.841 3.304,3.846 3.287,3.852c-0.001,0.01 -0.003,0.019 -0.002,0.027c0,0.009 0.003,0.017 0.005,0.026C3.313,3.918 3.33,3.918 3.342,3.901z" id="path_29"/><path fill="#000000" d="M3.56,4.702c0.028,-0.015 0.036,-0.034 0.023,-0.059c-0.011,-0.021 -0.03,-0.029 -0.054,-0.016C3.514,4.673 3.516,4.678 3.56,4.702z" id="path_30"/><path fill="#000000" d="M4.106,7.585c-0.013,0.01 -0.023,0.018 -0.038,0.03c0.014,0.016 0.023,0.031 0.036,0.042c0.012,0.011 0.029,0.011 0.037,-0.003c0.005,-0.008 0.005,-0.025 0,-0.033C4.134,7.608 4.12,7.598 4.106,7.585z" id="path_31"/><path fill="#000000" d="M3.88,6.537h0.001v0.001h-0.001z" id="path_32"/><path fill="#000000" d="M3.924,6.628c0.008,0.005 0.019,0.003 0.032,0.005C3.931,6.558 3.931,6.558 3.901,6.534c-0.007,0.001 -0.013,0.003 -0.02,0.005C3.888,6.569 3.91,6.619 3.924,6.628z" id="path_33"/><path fill="#000000" d="M3.067,6.356c-0.03,0.038 -0.024,0.051 0.028,0.076C3.122,6.399 3.122,6.398 3.067,6.356z" id="path_34"/><path fill="#000000" d="M3.151,6.845c0.016,0.016 0.03,0.029 0.048,0.046C3.211,6.876 3.22,6.865 3.227,6.857c-0.014,-0.019 -0.024,-0.034 -0.04,-0.055C3.17,6.822 3.161,6.832 3.151,6.845z" id="path_35"/><path fill="#000000" d="M2.805,4.02C2.789,4.021 2.775,4.022 2.76,4.023c0.009,0.02 0.017,0.039 0.028,0.061C2.822,4.056 2.823,4.049 2.805,4.02z" id="path_36"/><path fill="#000000" d="M3.6,6.227c-0.002,0.016 0.011,0.07 0.02,0.085C3.648,6.264 3.647,6.26 3.6,6.227z" id="path_37"/><path fill="#000000" d="M3.879,8.063C3.865,8.037 3.851,8.01 3.837,7.983C3.822,8.025 3.842,8.049 3.879,8.063z" id="path_38"/><path fill="#000000" d="M3.329,4.466C3.316,4.5 3.316,4.5 3.346,4.534C3.353,4.517 3.361,4.506 3.36,4.496C3.359,4.479 3.346,4.469 3.329,4.466z" id="path_39"/><path fill="#000000" d="M3.877,3.758h0.002v0.002h-0.002z" id="path_40"/><path fill="#000000" d="M3.919,3.726C3.903,3.74 3.891,3.75 3.879,3.759c0.014,0.014 0.027,0.029 0.04,0.042C3.919,3.777 3.919,3.753 3.919,3.726z" id="path_41"/><path fill="#000000" d="M3.494,7.71c0.014,0.015 0.029,0.031 0.048,0.051C3.547,7.717 3.518,7.716 3.494,7.71z" id="path_42"/><path fill="#000000" d="M4.103,6.583C4.101,6.601 4.1,6.611 4.099,6.629c0.015,-0.009 0.024,-0.015 0.037,-0.023C4.124,6.598 4.116,6.593 4.103,6.583z" id="path_43"/><path fill="#000000" d="M3.991,7.811c-0.02,-0.023 -0.03,-0.044 -0.057,-0.039C3.946,7.79 3.957,7.808 3.991,7.811z" id="path_44"/><path fill="#000000" d="M3.594,3.684C3.587,3.694 3.582,3.7 3.574,3.712c0.017,0.003 0.028,0.005 0.05,0.01C3.61,3.704 3.603,3.695 3.594,3.684z" id="path_45"/><path fill="#000000" d="M3.479,6.764c0.004,-0.011 0.008,-0.023 0.015,-0.04C3.455,6.746 3.455,6.746 3.479,6.764z" id="path_46"/><path fill="#000000" d="M3.54,6.816C3.538,6.79 3.538,6.79 3.504,6.773C3.521,6.793 3.531,6.805 3.54,6.816z" id="path_47"/><path fill="#000000" d="M3.001,3.881C2.995,3.902 2.98,3.914 2.992,3.929C3.026,3.921 3.017,3.906 3.001,3.881z" id="path_48"/><path fill="#000000" d="M4.188,6.943C4.187,6.94 4.185,6.936 4.184,6.933C4.175,6.934 4.165,6.936 4.153,6.938C4.16,6.95 4.164,6.957 4.17,6.966C4.18,6.954 4.184,6.949 4.188,6.943z" id="path_49"/><path fill="#000000" d="M3.602,7.353c0,0 -0.008,0.005 -0.012,0.008C3.602,7.37 3.614,7.379 3.627,7.388C3.619,7.376 3.611,7.364 3.602,7.353z" id="path_50"/><path fill="#000000" d="M2.952,3.891c-0.003,-0.009 -0.006,-0.018 -0.01,-0.027c-0.003,0.001 -0.006,0.002 -0.01,0.003C2.935,3.876 2.938,3.885 2.94,3.894C2.944,3.893 2.948,3.892 2.952,3.891z" id="path_51"/><path fill="#000000" d="M2.873,4.244h0.002v0.004h-0.002z" id="path_52"/><path fill="#000000" d="M2.846,4.276c0.011,-0.013 0.018,-0.022 0.025,-0.03c-0.01,-0.001 -0.021,-0.002 -0.036,-0.004C2.84,4.255 2.842,4.262 2.846,4.276z" id="path_53"/><path fill="#000000" d="M3.814,6.322h0.002v0.001h-0.002z" id="path_54"/><path fill="#000000" d="M3.793,7.586h0.001v0h-0.001z" id="path_55"/><path fill="#000000" d="M3.762,7.566c0.001,0.008 0.001,0.015 0.002,0.025c0.011,-0.002 0.02,-0.004 0.029,-0.005C3.787,7.573 3.779,7.562 3.762,7.566z" id="path_56"/><path fill="#000000" d="M3.136,4.258c0.003,-0.001 0.006,-0.002 0.009,-0.003C3.143,4.247 3.14,4.238 3.138,4.229C3.134,4.23 3.131,4.231 3.128,4.232C3.131,4.241 3.133,4.249 3.136,4.258z" id="path_57"/><path fill="#000000" d="M3.534,4.247c0.011,-0.006 0.019,-0.011 0.028,-0.015C3.541,4.225 3.541,4.225 3.534,4.247z" id="path_58"/><path fill="#000000" d="M3.417,4.224C3.411,4.215 3.406,4.208 3.401,4.201C3.398,4.202 3.396,4.203 3.394,4.203c0.001,0.009 0.003,0.018 0.004,0.029C3.405,4.229 3.41,4.227 3.417,4.224z" id="path_59"/><path fill="#000000" d="M3.631,6.333h0.002v0.002h-0.002z" id="path_60"/><path fill="#000000" d="M3.629,6.365C3.63,6.353 3.631,6.344 3.632,6.335C3.617,6.347 3.617,6.348 3.629,6.365z" id="path_61"/><path fill="#000000" d="M4.689,8.204h0.004v0.001h-0.004z" id="path_62"/><path fill="#000000" d="M3.187,4.18h0.001v0.004h-0.001z" id="path_63"/><path fill="#000000" d="M3.19,4.183C3.195,4.192 3.201,4.2 3.209,4.212C3.216,4.184 3.203,4.184 3.19,4.183z" id="path_64"/><path fill="#000000" d="M2.809,4.1c0.002,0.011 0.004,0.019 0.005,0.028C2.831,4.115 2.831,4.115 2.809,4.1z" id="path_65"/><path fill="#000000" d="M3.735,6.776C3.719,6.77 3.713,6.768 3.707,6.766C3.705,6.772 3.702,6.777 3.696,6.789C3.71,6.784 3.717,6.782 3.735,6.776z" id="path_66"/><path fill="#000000" d="M3.458,3.746h0.002v0.005h-0.002z" id="path_67"/><path fill="#000000" d="M3.441,3.713c0.005,0.011 0.011,0.022 0.016,0.034C3.457,3.734 3.456,3.722 3.455,3.709C3.45,3.711 3.446,3.712 3.441,3.713z" id="path_68"/><path fill="#000000" d="M3.502,6.192c-0.017,-0.03 -0.027,-0.016 -0.039,0.009c0.013,0.001 0.021,0.001 0.03,0.001c0,0 -0.001,0.001 -0.001,0.001l0.001,-0.001c0.001,0.006 0.002,0.012 0.003,0.018C3.5,6.22 3.504,6.219 3.508,6.217C3.506,6.209 3.504,6.201 3.502,6.192l0.002,-0.001L3.502,6.192z" id="path_69"/><path fill="#000000" d="M4.363,7.018C4.349,7.011 4.342,7.007 4.335,7.004C4.332,7.018 4.337,7.024 4.363,7.018z" id="path_70"/><path fill="#000000" d="M4.334,7.003h0.002v0.001h-0.002z" id="path_71"/><path fill="#000000" d="M3.488,4.261C3.484,4.256 3.48,4.25 3.477,4.245C3.475,4.246 3.473,4.247 3.471,4.248C3.475,4.254 3.478,4.26 3.482,4.265C3.484,4.264 3.486,4.263 3.488,4.261z" id="path_72"/><path fill="#000000" d="M3.91,6.679h0v0.002h-0z" id="path_73"/><path fill="#000000" d="M3.93,6.668C3.923,6.672 3.917,6.677 3.911,6.681C3.925,6.687 3.934,6.688 3.93,6.668z" id="path_74"/><path fill="#000000" d="M3.716,6.829h0.004v0.003h-0.004z" id="path_75"/><path fill="#000000" d="M3.734,6.841l-0.014,-0.008l0.006,0.014z" id="path_76"/><path fill="#000000" d="M3.188,4.129h0.002v0.001h-0.002z" id="path_77"/><path fill="#000000" d="M3.172,4.142C3.178,4.137 3.184,4.134 3.189,4.13C3.18,4.126 3.171,4.122 3.152,4.114C3.164,4.13 3.167,4.135 3.172,4.142z" id="path_78"/><path fill="#000000" d="M3.739,7.545l0.002,0l-0.001,-0.001z" id="path_79"/><path fill="#000000" d="M3.741,7.545c0.001,0.012 0.005,0.022 0.02,0.02C3.763,7.549 3.755,7.544 3.741,7.545z" id="path_80"/><path fill="#000000" d="M3.761,7.565h0.001v0.001h-0.001z" id="path_81"/><path fill="#000000" d="M2.747,4.071l-0.008,-0.012l0.007,-0.004l0.008,0.012z" id="path_82"/><path fill="#000000" d="M3.687,6.754C3.693,6.757 3.699,6.76 3.705,6.763C3.702,6.758 3.698,6.752 3.695,6.747C3.692,6.749 3.69,6.751 3.687,6.754z" id="path_83"/><path fill="#000000" d="M3.708,6.765l-0.003,-0.002l0.002,0.003l0,0l0.001,-0.001z" id="path_84"/><path fill="#000000" d="M2.901,4.234C2.892,4.238 2.884,4.242 2.877,4.245C2.886,4.248 2.898,4.264 2.901,4.234z" id="path_85"/><path fill="#000000" d="M3.347,6.298h0.008v0.008h-0.008z" id="path_86"/><path fill="#000000" d="M3.576,5.899h0.003v0.002h-0.003z" id="path_87"/><path fill="#000000" d="M3.559,5.895C3.565,5.896 3.57,5.897 3.575,5.899C3.572,5.895 3.568,5.891 3.564,5.887C3.562,5.89 3.561,5.892 3.559,5.895z" id="path_88"/><path fill="#000000" d="M3.575,6.362C3.571,6.358 3.567,6.354 3.564,6.35C3.562,6.352 3.561,6.355 3.559,6.357C3.564,6.359 3.57,6.361 3.575,6.362z" id="path_89"/><path fill="#000000" d="M4.272,7.246C4.278,7.244 4.284,7.242 4.29,7.24C4.284,7.238 4.278,7.237 4.273,7.235C4.273,7.238 4.272,7.242 4.272,7.246z" id="path_90"/><path fill="#000000" d="M4.29,7.239h0.002v0.001h-0.002z" id="path_91"/><path fill="#000000" d="M3.856,4.869l0.006,0.007l-0.007,0.006l-0.006,-0.007z" id="path_92"/><path fill="#000000" d="M3.054,7.358C3.057,7.356 3.06,7.355 3.063,7.353C3.059,7.349 3.055,7.345 3.05,7.34C3.052,7.346 3.053,7.352 3.054,7.358z" id="path_93"/><path fill="#000000" d="M3.048,7.338c0.017,-0.02 -0.002,-0.039 0,-0.061C3.035,7.279 3.023,7.28 3.011,7.282c-0.003,-0.008 -0.005,-0.014 -0.007,-0.02C3,7.259 2.992,7.257 2.992,7.255c0.005,-0.025 -0.015,-0.028 -0.03,-0.036l0.001,-0.001c-0.002,0 -0.003,0 -0.005,0C2.96,7.218 2.961,7.219 2.962,7.219C2.944,7.237 2.927,7.254 2.909,7.272c-0.005,0.084 0.009,0.11 0.08,0.139C3.009,7.386 3.029,7.362 3.048,7.338C3.049,7.339 3.05,7.34 3.05,7.34c0,-0.001 -0.001,-0.003 -0.001,-0.004L3.048,7.338z" id="path_94"/><path fill="#000000" d="M3.599,6.379c-0.01,-0.006 -0.015,-0.01 -0.02,-0.013c0,0.007 0,0.013 0,0.02C3.584,6.384 3.589,6.383 3.599,6.379z" id="path_95"/><path fill="#000000" d="M3.575,6.362h0.003v0.005h-0.003z" id="path_96"/><path fill="#000000" d="M3.639,6.316C3.633,6.315 3.627,6.315 3.621,6.314C3.625,6.32 3.629,6.326 3.632,6.332C3.634,6.327 3.637,6.322 3.639,6.316z" id="path_97"/><path fill="#000000" d="M3.619,6.313h0.002v0h-0.002z" id="path_98"/><path fill="#000000" d="M3.022,7.253C3.016,7.256 3.011,7.259 3.005,7.261c0.006,0.003 0.012,0.007 0.026,0.015C3.025,7.262 3.024,7.257 3.022,7.253z" id="path_99"/><path fill="#000000" d="M3.004,7.261h0.002v0.002h-0.002z" id="path_100"/><path fill="#000000" d="M3.641,7.432l-0.009,-0.005l0.004,-0.007l0.009,0.005z" id="path_101"/><path fill="#000000" d="M2.769,4.188c0,0.006 0,0.012 0,0.018c0.003,0 0.007,0 0.01,-0.001C2.777,4.199 2.775,4.193 2.774,4.187C2.772,4.187 2.77,4.187 2.769,4.188z" id="path_102"/><path fill="#000000" d="M4.003,7.915C3.99,7.913 3.984,7.912 3.979,7.911c0,0.007 0,0.013 0,0.02C3.985,7.927 3.991,7.923 4.003,7.915z" id="path_103"/><path fill="#000000" d="M3.979,7.911l0,-0.001l-0.002,0.001z" id="path_104"/><path fill="#000000" d="M3.642,3.695c0,-0.006 -0.001,-0.012 -0.001,-0.018C3.639,3.683 3.637,3.688 3.635,3.694C3.638,3.694 3.64,3.695 3.642,3.695z" id="path_105"/><path fill="#000000" d="M3.553,3.709l0.012,0.015l-0.006,0.005l-0.012,-0.015z" id="path_106"/><path fill="#000000" d="M3.596,7.846h0.004v0.002h-0.004z" id="path_107"/><path fill="#000000" d="M3.593,7.83c0.002,0.005 0.003,0.01 0.005,0.015C3.599,7.84 3.6,7.834 3.601,7.829C3.599,7.83 3.596,7.83 3.593,7.83z" id="path_108"/><path fill="#000000" d="M4.277,7.417h0.007v0.007h-0.007z" id="path_109"/><path fill="#000000" d="M3.665,3.655C3.669,3.659 3.668,3.658 3.665,3.655L3.665,3.655z" id="path_110"/><path fill="#000000" d="M3.662,3.651h0.002v0.004h-0.002z" id="path_111"/><path fill="#000000" d="M3.665,3.655l0,0l0,0.001z" id="path_112"/><path fill="#000000" d="M3.665,3.656C3.666,3.659 3.666,3.658 3.665,3.656L3.665,3.656z" id="path_113"/><path fill="#000000" d="M3.665,3.655l0,0l0,0z" id="path_114"/><path fill="#000000" d="M4.727,8.317h0.003v0.011h-0.003z" id="path_115"/><path fill="#000000" d="M4.3,7.439h0.004v0.006h-0.004z" id="path_116"/><path fill="#000000" d="M3.665,7.454l-0.003,-0.005l-0.001,0.004z" id="path_117"/><path fill="#000000" d="M3.598,6.327l0,0.003l0.004,-0.001z" id="path_118"/><path fill="#000000" d="M3.482,7.316h0.007v0.005h-0.007z" id="path_119"/><path fill="#000000" d="M4.232,6.99l-0.002,0.003l0.003,0.001z" id="path_120"/><path fill="#000000" d="M3.179,6.222h0.006v0.004h-0.006z" id="path_121"/><path fill="#000000" d="M4.343,7.348h0.003v0.001h-0.003z" id="path_122"/><path fill="#000000" d="M4.343,7.345C4.343,7.344 4.343,7.344 4.343,7.345L4.343,7.345z" id="path_123"/><path fill="#000000" d="M4.344,7.347L4.344,7.347C4.341,7.345 4.339,7.344 4.344,7.347z" id="path_124"/><path fill="#000000" d="M4.344,7.347l0,0l-0.001,-0.002z" id="path_125"/><path fill="#000000" d="M3.429,4.214h0.003v0.005h-0.003z" id="path_126"/><path fill="#000000" d="M3.932,7.773c0,0 0.001,0 0.002,0c0,0 0,-0.001 0,-0.001C3.931,7.764 3.928,7.756 3.925,7.748l0,0c0,0 -0.001,0.001 -0.001,0.001C3.926,7.757 3.929,7.765 3.932,7.773z" id="path_127"/><path fill="#000000" d="M3.808,5.069h0.006v0.005h-0.006z" id="path_128"/><path fill="#000000" d="M3.231,6.724l0,0l-0.001,0.003z" id="path_129"/><path fill="#000000" d="M3.23,6.727C3.23,6.727 3.23,6.728 3.23,6.727L3.23,6.727z" id="path_130"/><path fill="#000000" d="M3.23,6.725l0.001,-0.001l0,0z" id="path_131"/><path fill="#000000" d="M3.23,6.725C3.229,6.727 3.228,6.727 3.23,6.725L3.23,6.725z" id="path_132"/><path fill="#000000" d="M3.471,5.505l-0.004,0.001l0.004,0.002z" id="path_133"/><path fill="#000000" d="M4.641,8.125l0.015,0.001l-0.012,-0.007z" id="path_134"/><path fill="#000000" d="M3.203,6.709h0.004v0.003h-0.004z" id="path_135"/><path fill="#000000" d="M2.842,3.92L2.842,3.92C2.841,3.916 2.841,3.917 2.842,3.92z" id="path_136"/><path fill="#000000" d="M2.842,3.92L2.842,3.92C2.838,3.917 2.84,3.918 2.842,3.92z" id="path_137"/><path fill="#000000" d="M3.973,7.94l0.006,-0.007l0,-0.002l-0.002,0.001z" id="path_138"/><path fill="#000000" d="M4.013,7.936h0.004v0.004h-0.004z" id="path_139"/><path fill="#000000" d="M4.225,7.347h0.004v0.002h-0.004z" id="path_140"/><path fill="#000000" d="M3.59,7.36l0,0l-0.001,-0.001l-0.012,0.012l0.001,0.001l0,0z" id="path_141"/><path fill="#000000" d="M3.631,7.391m-0.005,0a0.005,0.005 0,1 1,0.01 0a0.005,0.005 0,1 1,-0.01 0" id="path_142"/><path fill="#000000" d="M2.85,3.928l-0.007,-0.006l-0.001,-0.001l0,0.002z" id="path_143"/><path fill="#000000" d="M2.861,4.108h0.005v0.001h-0.005z" id="path_144"/><path fill="#000000" d="M3.788,4.045l-0.001,0.002l0.002,0.001z" id="path_145"/><path fill="#000000" d="M3.641,3.674h0.003v0.003h-0.003z" id="path_146"/><path fill="#000000" d="M3.607,4.143l-0.003,0l0.001,0.003z" id="path_147"/><path fill="#000000" d="M2.914,4.296l-0.002,0l0.001,0.003z" id="path_148"/><path fill="#000000" d="M6.983,2.874m-0.004,0a0.004,0.004 0,1 1,0.008 0a0.004,0.004 0,1 1,-0.008 0" id="path_149"/><path fill="#000000" d="M3.451,6.336h0.005v0.005h-0.005z" id="path_150"/><path fill="#000000" d="M3.414,6.279h0.003v0.001h-0.003z" id="path_151"/><path fill="#000000" d="M3.479,6.765h0.003v0.001h-0.003z" id="path_152"/><path fill="#000000" d="M3.506,6.749l0.003,0.001l-0.001,-0.003z" id="path_153"/><path fill="#000000" d="M4.156,6.867l-0.001,0.002l0.002,0z" id="path_154"/><path fill="#000000" d="M4.164,6.836l0.007,0.006l0.003,0.001l-0.001,-0.002z" id="path_155"/><path fill="#000000" d="M3.607,6.824l-0.004,0l0.002,0.003z" id="path_156"/><path fill="#000000" d="M3.585,6.804l-0.002,-0.004l-0.002,0.004z" id="path_157"/><path fill="#000000" d="M3.847,5.057h0.002v0.002h-0.002z" id="path_158"/><path fill="#000000" d="M3.879,4.972h0.002v0.002h-0.002z" id="path_159"/><path fill="#000000" d="M3.57,5.843l0.004,-0.001l-0.003,-0.002z" id="path_160"/><path fill="#000000" d="M3.195,6.124l-0.001,-0.004l-0.002,0.003z" id="path_161"/><path fill="#000000" d="M3.242,6.094h0.002v0.001h-0.002z" id="path_162"/><path fill="#000000" d="M7.514,6.782C7.442,6.759 7.388,6.725 7.383,6.638c0.011,-0.021 0.024,-0.045 0.038,-0.071c-0.005,-0.006 -0.01,-0.012 -0.016,-0.019l-0.001,0c0.002,-0.014 0.005,-0.027 0.008,-0.041c0.013,-0.036 0.044,0.028 0.056,-0.011C7.454,6.471 7.44,6.446 7.425,6.421C7.412,6.422 7.399,6.423 7.383,6.424c0.004,0.016 0.006,0.025 0.01,0.04c-0.021,-0.01 -0.039,-0.019 -0.056,-0.027C7.319,6.469 7.359,6.47 7.362,6.494c-0.002,0.002 -0.006,0.007 -0.01,0.011c-0.001,0 -0.003,0 -0.004,0c0.001,0.001 0.002,0.001 0.002,0.001l0.002,-0.001c-0.009,0.011 -0.015,0.022 -0.034,0.02C7.275,6.52 7.233,6.523 7.199,6.547C7.184,6.541 7.173,6.536 7.162,6.531c-0.003,0.004 -0.006,0.008 -0.01,0.013c0.019,0.015 0.038,0.03 0.06,0.046C7.196,6.618 7.183,6.643 7.17,6.665C7.194,6.695 7.217,6.723 7.239,6.75c0.002,0.08 0.03,0.096 0.094,0.111c0.016,0.02 0.031,0.039 0.047,0.06c0.001,-0.032 0.003,-0.059 0.004,-0.081c0.034,-0.019 0.061,-0.035 0.087,-0.05C7.486,6.801 7.5,6.813 7.519,6.828C7.517,6.808 7.515,6.794 7.514,6.782zM7.398,6.489l0,0.003L7.396,6.49L7.398,6.489zM7.356,6.748l0,0.003L7.353,6.749L7.356,6.748zM7.365,6.838C7.361,6.834 7.357,6.829 7.353,6.824C7.355,6.823 7.357,6.821 7.359,6.82C7.363,6.825 7.366,6.83 7.37,6.835C7.368,6.836 7.367,6.837 7.365,6.838zM7.391,6.549c0.001,0.009 0.002,0.018 0.003,0.033C7.373,6.567 7.368,6.557 7.391,6.549zM7.41,6.786C7.409,6.785 7.407,6.784 7.407,6.783c0,-0.001 0.001,-0.002 0.002,-0.003c0.001,0 0.002,0 0.003,0C7.411,6.782 7.41,6.784 7.41,6.786z" id="path_163"/><path fill="#000000" d="M7.437,7.251C7.434,7.23 7.435,7.215 7.429,7.204C7.416,7.18 7.382,7.177 7.374,7.201C7.364,7.232 7.335,7.234 7.315,7.258c0.006,0.021 0.013,0.044 0.02,0.067c0.004,-0.001 0.008,-0.003 0.011,-0.004c0.02,0.007 0.041,0.014 0.061,0.023c0.026,0.011 0.048,0.005 0.06,-0.017C7.482,7.3 7.478,7.278 7.455,7.261C7.447,7.255 7.438,7.252 7.437,7.251z" id="path_164"/><path fill="#000000" d="M7.913,4.84C7.928,4.777 7.87,4.685 7.807,4.672C7.803,4.698 7.799,4.723 7.796,4.741c0.024,0.027 0.042,0.048 0.061,0.07C7.872,4.828 7.885,4.849 7.913,4.84z" id="path_165"/><path fill="#000000" d="M6.886,7.09l-0.001,0l0.001,0.001z" id="path_166"/><path fill="#000000" d="M6.976,7.023c0.005,0.013 0.009,0.023 0.012,0.034c0.003,-0.001 0.006,-0.001 0.009,-0.002C6.995,7.038 6.992,7.022 6.989,7.004c-0.034,-0.008 -0.067,-0.016 -0.1,-0.024C6.879,6.993 6.87,7.004 6.858,7.018C6.867,7.042 6.876,7.066 6.886,7.09c0.03,0.002 0.057,-0.009 0.084,-0.021C6.972,7.054 6.974,7.04 6.976,7.023z" id="path_167"/><path fill="#000000" d="M7.081,7.527c-0.026,0 -0.052,-0.006 -0.087,-0.01c0.001,0.014 0.002,0.025 0.003,0.035c0.019,0.003 0.036,0.01 0.05,0.007c0.024,-0.006 0.031,0.01 0.04,0.022C7.079,7.637 7.082,7.64 7.14,7.638C7.137,7.615 7.168,7.595 7.147,7.57C7.13,7.55 7.114,7.528 7.081,7.527z" id="path_168"/><path fill="#000000" d="M7.578,7.321C7.556,7.335 7.535,7.35 7.514,7.363c0.021,0.07 0.031,0.076 0.101,0.06C7.643,7.368 7.639,7.358 7.578,7.321z" id="path_169"/><path fill="#000000" d="M7.186,7.227h0.002v0.003h-0.002z" id="path_170"/><path fill="#000000" d="M7.166,7.212c0.007,0.002 0.013,0.004 0.02,0.006C7.191,7.19 7.181,7.166 7.162,7.145C7.133,7.14 7.115,7.155 7.101,7.176l0,0C7.078,7.205 7.095,7.23 7.112,7.25C7.121,7.26 7.143,7.262 7.16,7.262c0.018,0 0.027,-0.013 0.027,-0.031C7.179,7.227 7.171,7.224 7.163,7.221C7.164,7.218 7.165,7.215 7.166,7.212z" id="path_171"/><path fill="#000000" d="M7.065,7.334C7.046,7.341 7.027,7.349 7.009,7.355C6.982,7.331 6.982,7.331 6.955,7.334c0.004,0.031 0.008,0.062 0.012,0.099C7.005,7.431 7.04,7.412 7.07,7.386C7.085,7.373 7.087,7.351 7.065,7.334z" id="path_172"/><path fill="#000000" d="M6.913,7.466C6.93,7.439 6.879,7.434 6.901,7.409c0.009,0 0.017,0 0.025,0c0.001,-0.003 0.002,-0.007 0.002,-0.01c-0.016,-0.01 -0.031,-0.021 -0.047,-0.031c-0.019,0.01 -0.035,0.019 -0.057,0.031c0.022,0.025 0.041,0.045 0.062,0.069C6.894,7.468 6.905,7.467 6.913,7.466z" id="path_173"/><path fill="#000000" d="M8.206,3.598c-0.02,0.006 -0.027,0.016 -0.013,0.034C8.266,3.63 8.279,3.626 8.313,3.6C8.307,3.59 8.301,3.579 8.296,3.57C8.262,3.581 8.234,3.59 8.206,3.598z" id="path_174"/><path fill="#000000" d="M6.924,7.622c0.01,-0.019 -0.002,-0.035 -0.014,-0.048C6.898,7.56 6.88,7.56 6.866,7.57C6.843,7.588 6.85,7.611 6.859,7.637" id="path_175"/><path fill="#000000" d="M8.17,4.485h0.002v0.002h-0.002z" id="path_176"/><path fill="#000000" d="M8.28,4.558C8.266,4.516 8.236,4.489 8.173,4.459C8.173,4.468 8.172,4.477 8.172,4.485C8.181,4.492 8.19,4.497 8.199,4.505C8.222,4.525 8.246,4.546 8.28,4.558z" id="path_177"/><path fill="#000000" d="M7.554,4.518h0.001v0.001h-0.001z" id="path_178"/><path fill="#000000" d="M7.054,7.136C7.05,7.121 7.047,7.108 7.042,7.091C6.993,7.095 6.993,7.096 7.011,7.155C7.025,7.149 7.039,7.143 7.054,7.136z" id="path_179"/><path fill="#000000" d="M6.927,7.529c0.005,0.012 0.01,0.022 0.015,0.035C6.957,7.558 6.968,7.554 6.978,7.55C6.973,7.523 6.958,7.516 6.927,7.529z" id="path_180"/><path fill="#000000" d="M7.565,6.711C7.569,6.7 7.573,6.69 7.578,6.678C7.566,6.667 7.554,6.657 7.536,6.641C7.549,6.696 7.549,6.697 7.565,6.711z" id="path_181"/><path fill="#000000" d="M6.885,7.09l0,0.002l0.001,-0.001z" id="path_182"/><path fill="#000000" d="M6.86,7.144c0.012,-0.008 0.023,-0.015 0.034,-0.022C6.89,7.11 6.888,7.101 6.885,7.092C6.85,7.099 6.849,7.1 6.86,7.144z" id="path_183"/><path fill="#000000" d="M7.5,4.828c0.012,-0.024 0.002,-0.042 -0.014,-0.06c-0.007,0.004 -0.012,0.007 -0.018,0.01C7.481,4.793 7.469,4.822 7.5,4.828z" id="path_184"/><path fill="#000000" d="M7.506,4.634C7.487,4.651 7.491,4.664 7.512,4.679C7.529,4.658 7.527,4.646 7.506,4.634z" id="path_185"/><path fill="#000000" d="M8.343,7.716h0.002v0h-0.002z" id="path_186"/><path fill="#000000" d="M8.345,7.692c0,0.012 0,0.018 0,0.025c0.014,0.001 0.027,0.003 0.042,0.004C8.386,7.685 8.363,7.699 8.345,7.692z" id="path_187"/><path fill="#000000" d="M7.951,4.539c0.001,-0.017 0,-0.031 -0.023,-0.032C7.925,4.537 7.925,4.537 7.951,4.539z" id="path_188"/><path fill="#000000" d="M7.579,6.829c-0.006,-0.014 -0.01,-0.022 -0.014,-0.031C7.557,6.797 7.548,6.795 7.533,6.792C7.542,6.817 7.552,6.828 7.579,6.829z" id="path_189"/><path fill="#000000" d="M7.763,4.503C7.753,4.49 7.747,4.481 7.736,4.467C7.736,4.499 7.736,4.499 7.763,4.503z" id="path_190"/><path fill="#000000" d="M8.096,4.554c0.002,0.01 0.005,0.02 0.007,0.03C8.108,4.583 8.113,4.582 8.118,4.58C8.115,4.57 8.112,4.56 8.109,4.55C8.105,4.551 8.101,4.553 8.096,4.554z" id="path_191"/><path fill="#000000" d="M8.268,4.386c0.003,0.009 0.006,0.017 0.009,0.026C8.281,4.41 8.284,4.409 8.288,4.408C8.284,4.399 8.281,4.39 8.278,4.382C8.274,4.383 8.271,4.384 8.268,4.386z" id="path_192"/><path fill="#000000" d="M8.292,3.931C8.294,3.94 8.296,3.948 8.298,3.957c0.004,-0.002 0.009,-0.004 0.013,-0.006C8.307,3.943 8.304,3.936 8.3,3.928C8.297,3.929 8.294,3.93 8.292,3.931z" id="path_193"/><path fill="#000000" d="M7.03,7.467c0.002,-0.002 0.004,-0.004 0.005,-0.005C7.032,7.455 7.028,7.449 7.022,7.437C7.019,7.449 7.016,7.455 7.018,7.458C7.02,7.462 7.026,7.464 7.03,7.467z" id="path_194"/><path fill="#000000" d="M8.165,4.33c0.004,0.006 0.008,0.012 0.012,0.017c0.002,-0.002 0.005,-0.004 0.007,-0.005C8.179,4.337 8.175,4.331 8.17,4.326C8.168,4.327 8.167,4.329 8.165,4.33z" id="path_195"/><path fill="#000000" d="M7.077,7.293c-0.002,0 -0.004,-0.001 -0.006,-0.001C7.068,7.299 7.066,7.307 7.064,7.315c0.003,0.001 0.007,0.001 0.01,0.002C7.075,7.309 7.076,7.301 7.077,7.293z" id="path_196"/><path fill="#000000" d="M6.854,7.536l0.009,0.011l-0.007,0.006l-0.009,-0.011z" id="path_197"/><path fill="#000000" d="M7.565,6.532l0.005,0.007l-0.007,0.005l-0.005,-0.007z" id="path_198"/><path fill="#000000" d="M7.565,6.712h0.003v0.001h-0.003z" id="path_199"/><path fill="#000000" d="M7.585,6.717C7.579,6.716 7.573,6.715 7.568,6.713C7.572,6.718 7.576,6.722 7.58,6.727C7.581,6.724 7.583,6.72 7.585,6.717z" id="path_200"/><path fill="#000000" d="M8.193,7.807l0.008,0.009l-0.004,0.003l-0.008,-0.009z" id="path_201"/><path fill="#000000" d="M7.302,6.414l0.011,0.008l-0.005,0.007l-0.011,-0.008z" id="path_202"/><path fill="#000000" d="M7.552,4.545c-0.002,0 -0.003,0 -0.005,0c0,0.007 0,0.014 0,0.021c0.002,0 0.003,0 0.005,0C7.552,4.559 7.552,4.552 7.552,4.545z" id="path_203"/><path fill="#000000" d="M7.551,6.771l0.008,0.003l0,-0.007z" id="path_204"/><path fill="#000000" d="M7.313,6.865h0.005v0.007h-0.005z" id="path_205"/><path fill="#000000" d="M7.57,6.796C7.572,6.796 7.572,6.796 7.57,6.796L7.57,6.796z" id="path_206"/><path fill="#000000" d="M7.565,6.797h0.004v0.001h-0.004z" id="path_207"/><path fill="#000000" d="M7.569,6.796l-0.001,0.001l0,0z" id="path_208"/><path fill="#000000" d="M7.57,6.796l-0.001,0.001l-0.001,0z" id="path_209"/><path fill="#000000" d="M7.569,6.796C7.571,6.795 7.572,6.794 7.569,6.796L7.569,6.796z" id="path_210"/><path fill="#000000" d="M7.026,7.32L7.026,7.32C7.027,7.323 7.027,7.326 7.026,7.32z" id="path_211"/><path fill="#000000" d="M7.026,7.32L7.026,7.32C7.029,7.322 7.031,7.324 7.026,7.32z" id="path_212"/><path fill="#000000" d="M8.314,7.692C8.316,7.691 8.315,7.692 8.314,7.692C8.315,7.692 8.316,7.692 8.314,7.692z" id="path_213"/><path fill="#000000" d="M6.576,8.098l0.003,-0.002l-0.001,-0.004z" id="path_214"/><path fill="#000000" d="M6.596,8.06h0.004v0.003h-0.004z" id="path_215"/><path fill="#000000" d="M7.126,6.643h0.004v0.004h-0.004z" id="path_216"/><path fill="#000000" d="M6.731,7.896l0.005,-0.001l-0.006,-0.001z" id="path_217"/><path fill="#000000" d="M8.49,3.945c0,0 0,-0.001 0,-0.003C8.489,3.943 8.489,3.944 8.49,3.945z" id="path_218"/><path fill="#000000" d="M8.489,3.942C8.491,3.948 8.49,3.945 8.489,3.942L8.489,3.942z" id="path_219"/><path fill="#000000" d="M8.49,3.945C8.49,3.946 8.49,3.946 8.49,3.945L8.49,3.945z" id="path_220"/><path fill="#000000" d="M7.188,7.221l0,0.007l0.006,-0.006z" id="path_221"/><path fill="#000000" d="M7.186,7.219h0.002v0.002h-0.002z" id="path_222"/><path fill="#000000" d="M6.97,7.069h0.005v0.001h-0.005z" id="path_223"/><path fill="#000000" d="M7.944,7.479h0.003v0.001h-0.003z" id="path_224"/><path fill="#000000" d="M7.969,7.518l0.007,0.003l-0.002,-0.007z" id="path_225"/><path fill="#000000" d="M7.977,7.522L7.976,7.521l0,0.001C7.97,7.525 7.964,7.528 7.96,7.53C7.954,7.511 7.949,7.496 7.944,7.48C7.927,7.484 7.911,7.488 7.891,7.493C7.883,7.49 7.87,7.484 7.857,7.48c-0.006,-0.002 -0.014,0 -0.021,0l0.001,-0.001L7.835,7.477l0.001,0.002C7.831,7.482 7.825,7.485 7.82,7.489C7.791,7.511 7.785,7.535 7.799,7.564c0.013,0.027 0.037,0.035 0.072,0.023C7.877,7.585 7.882,7.582 7.888,7.58c0.014,0.016 0.025,0.029 0.033,0.038c0.017,-0.015 0.031,-0.027 0.045,-0.04c0.016,-0.016 0.036,-0.032 0.01,-0.056L7.977,7.522z" id="path_226"/><path fill="#000000" d="M7.024,7.317m-0.004,0a0.004,0.004 0,1 1,0.008 0a0.004,0.004 0,1 1,-0.008 0" id="path_227"/><path fill="#000000" d="M7.454,6.435l-0.003,-0.001l0.001,0.004z" id="path_228"/><path fill="#000000" d="M7.429,6.412l-0.005,0.007l0.001,0.002l0.001,0z" id="path_229"/><path fill="#000000" d="M7.252,6.874m-0.004,0a0.004,0.004 0,1 1,0.008 0a0.004,0.004 0,1 1,-0.008 0" id="path_230"/><path fill="#000000" d="M4.301,5.587h0.002v0.002h-0.002z" id="path_231"/><path fill="#000000" d="M4.331,5.597C4.321,5.594 4.312,5.591 4.303,5.588C4.303,5.607 4.312,5.61 4.331,5.597z" id="path_232"/><path fill="#000000" d="M4.409,5.663h0.001v0.001h-0.001z" id="path_233"/><path fill="#000000" d="M4.424,5.719l0.003,0.001l-0.001,-0.005z" id="path_234"/><path fill="#000000" d="M4.627,5.134l0.004,0.001l-0.003,-0.004z" id="path_235"/><path fill="#000000" d="M4.619,5.406l0,0l0,0z" id="path_236"/><path fill="#000000" d="M4.619,5.406C4.619,5.403 4.619,5.403 4.619,5.406L4.619,5.406z" id="path_237"/><path fill="#000000" d="M4.422,5.234h0.003v0.001h-0.003z" id="path_238"/><path fill="#000000" d="M5.239,5.511l-0.004,0l0.001,0.004z" id="path_239"/><path fill="#000000" d="M5.525,6.423L5.525,6.423C5.526,6.424 5.526,6.425 5.525,6.423z" id="path_240"/><path fill="#000000" d="M5.525,6.423L5.525,6.423C5.525,6.425 5.526,6.425 5.525,6.423z" id="path_241"/><path fill="#000000" d="M5.741,6.434l0,0l0,0z" id="path_242"/><path fill="#000000" d="M5.741,6.434L5.741,6.434C5.742,6.435 5.742,6.435 5.741,6.434z" id="path_243"/><path fill="#000000" d="M5.773,6.031m-0.003,0a0.003,0.003 0,1 1,0.006 0a0.003,0.003 0,1 1,-0.006 0" id="path_244"/><path fill="#000000" d="M7.319,2.975C7.316,2.978 7.323,2.992 7.326,3.004c0.055,-0.047 0.057,-0.082 0.005,-0.13C7.336,2.914 7.348,2.948 7.319,2.975z" id="path_245"/><path fill="#000000" d="M5.657,7.482h0.004v0.004h-0.004z" id="path_246"/><path fill="#000000" d="M5.641,7.273h0.003v0.001h-0.003z" id="path_247"/><path fill="#000000" d="M5.191,7.472h0.004v0.004h-0.004z" id="path_248"/><path fill="#000000" d="M8.095,3.848l0.004,0.003l-0.002,-0.004z" id="path_249"/><path fill="#000000" d="M8.095,3.848l0.002,-0.001l-0.004,-0.001z" id="path_250"/><path fill="#000000" d="M8.619,3.604C8.618,3.603 8.617,3.602 8.615,3.6c-0.007,0 -0.014,0 -0.022,0c0.006,0.005 0.012,0.011 0.019,0.017C8.616,3.61 8.617,3.607 8.619,3.604z" id="path_251"/><path fill="#000000" d="M8.591,3.599h0.002v0.002h-0.002z" id="path_252"/><path fill="#000000" d="M3.566,3.962c0.001,0.006 0.002,0.012 0.003,0.018C3.573,3.98 3.577,3.979 3.581,3.978C3.579,3.972 3.576,3.966 3.573,3.96C3.571,3.961 3.568,3.961 3.566,3.962z" id="path_253"/><path fill="#000000" d="M9.264,6.648C9.27,6.65 9.276,6.652 9.281,6.655C9.277,6.65 9.274,6.645 9.27,6.64C9.268,6.643 9.266,6.645 9.264,6.648z" id="path_254"/><path fill="#000000" d="M9.281,6.655h0.004v0.002h-0.004z" id="path_255"/><path fill="#000000" d="M4.933,6.5C4.932,6.5 4.931,6.499 4.929,6.497c-0.007,0 -0.014,0 -0.022,0c0.006,0.005 0.013,0.01 0.02,0.016C4.93,6.506 4.932,6.503 4.933,6.5z" id="path_256"/><path fill="#000000" d="M4.905,6.496h0.002v0.002h-0.002z" id="path_257"/><path fill="#000000" d="M5.014,6.364h0.004v0.002h-0.004z" id="path_258"/><path fill="#000000" d="M5.026,6.379l-0.008,-0.012l0.001,0.014z" id="path_259"/><path fill="#000000" d="M8.7,3.468h0.004v0.002h-0.004z" id="path_260"/><path fill="#000000" d="M8.711,3.482l-0.008,-0.011l0.001,0.014z" id="path_261"/></svg>