<svg id="vector" xmlns="http://www.w3.org/2000/svg" width="11.338989d" height="11.338989d" viewBox="0 0 11.339 11.339"><path fill="@color/yellow" d="M8.177,9.469c0,-0.159 0.129,-0.288 0.288,-0.288c0.159,0 0.288,0.129 0.288,0.288c0,0.134 -0.092,0.245 -0.215,0.278h1.029L8.351,8.287c0.615,-0.653 1.002,-1.522 1.035,-2.482H8.308c-0.046,0 -0.084,-0.037 -0.084,-0.084c0,-0.046 0.037,-0.084 0.084,-0.084h1.08C9.367,3.59 7.733,1.931 5.696,1.87v1.165c0,0.046 -0.037,0.084 -0.084,0.084c-0.046,0 -0.084,-0.037 -0.084,-0.084V1.869C3.462,1.896 1.793,3.57 1.772,5.638h1.122c0.046,0 0.084,0.037 0.084,0.084c0,0.046 -0.037,0.084 -0.084,0.084H1.774c0.068,2.026 1.717,3.651 3.754,3.678V8.449c0,-0.046 0.037,-0.084 0.084,-0.084c0.046,0 0.084,0.037 0.084,0.084v1.032c0.573,-0.017 1.115,-0.16 1.597,-0.404l0.489,0.67h0.609C8.269,9.714 8.177,9.603 8.177,9.469zM5.445,8.189C4.204,8.114 3.209,7.128 3.121,5.89h0.753c0.079,0.83 0.741,1.491 1.57,1.57V8.189zM5.445,7.038C4.847,6.962 4.373,6.488 4.297,5.89h0.714C5.07,6.1 5.234,6.265 5.444,6.323L5.445,7.038L5.445,7.038zM5.445,5.122C5.235,5.18 5.07,5.345 5.012,5.555H4.297c0.076,-0.598 0.55,-1.071 1.148,-1.148L5.445,5.122L5.445,5.122zM5.445,3.984c-0.83,0.079 -1.491,0.741 -1.57,1.57H3.12c0.078,-1.247 1.077,-2.243 2.325,-2.318V3.984zM5.78,4.407c0.598,0.076 1.071,0.55 1.148,1.148H6.213C6.155,5.345 5.99,5.18 5.781,5.122L5.78,4.407L5.78,4.407zM5.78,6.323C5.99,6.265 6.155,6.1 6.213,5.891h0.714C6.852,6.488 6.377,6.962 5.78,7.038L5.78,6.323L5.78,6.323zM5.78,8.187V7.461c0.83,-0.079 1.491,-0.741 1.57,-1.57H8.07C7.983,7.117 7.006,8.096 5.78,8.187zM7.351,5.555c-0.079,-0.83 -0.741,-1.491 -1.57,-1.57V3.239c1.232,0.091 2.213,1.08 2.291,2.315H7.351z" id="path_0"/></svg>