<svg id="vector" xmlns="http://www.w3.org/2000/svg" width="11.338989d" height="11.338989d" viewBox="0 0 11.339 11.339"><defs><clipPath id="clip_path_0"><path d="M5.67,5.714m-3.869,0a3.869,3.869 0,1 1,7.738 0a3.869,3.869 0,1 1,-7.738 0"/></clipPath></defs><g id="g_0"><path fill="#000000" d="M5.669,0.058c-3.123,0 -5.655,2.532 -5.655,5.655c0,3.123 2.532,5.655 5.655,5.655c3.123,0 5.655,-2.532 5.655,-5.655C11.325,2.59 8.793,0.058 5.669,0.058M6.713,4.496l0.181,0.579L6.66,5.392L6.443,4.863L6.713,4.496zM4.626,4.496l0.27,0.367L4.679,5.392L4.445,5.075L4.626,4.496zM5.709,7.632c-0.013,0 -0.026,-0.001 -0.04,-0.001c-0.013,0 -0.026,0.001 -0.039,0.001c-0.661,0 -1.259,-0.078 -1.69,-0.204c-0.002,0 -0.003,-0.001 -0.004,-0.001C3.884,7.411 3.834,7.396 3.788,7.379C3.784,7.378 3.78,7.376 3.776,7.375C3.733,7.359 3.691,7.343 3.652,7.326C3.644,7.323 3.637,7.319 3.63,7.316C3.596,7.301 3.563,7.286 3.534,7.27c-0.01,-0.006 -0.018,-0.012 -0.028,-0.017C3.481,7.238 3.456,7.224 3.435,7.21C3.423,7.201 3.413,7.193 3.402,7.184C3.386,7.172 3.369,7.159 3.355,7.147c-0.011,-0.011 -0.02,-0.022 -0.029,-0.033c-0.01,-0.011 -0.021,-0.022 -0.029,-0.033C3.287,7.067 3.282,7.053 3.275,7.04C3.271,7.031 3.264,7.022 3.261,7.012c-0.008,-0.023 -0.012,-0.047 -0.012,-0.07c0,-0.015 0.004,-0.03 0.008,-0.045L3.255,6.894L3.26,6.878c0.001,-0.003 0.002,-0.006 0.003,-0.01l0.034,-0.109l0.634,-2.03l0.437,0.594l0.363,0.495l0.311,-0.757l0.627,-1.529l0.938,2.285l0.801,-1.089l0.676,2.165L8.081,6.9C8.085,6.914 8.09,6.928 8.09,6.942C8.09,7.323 7.024,7.632 5.709,7.632" clip-path="url(#clip_path_0)"/></g></svg>