<svg id="vector" xmlns="http://www.w3.org/2000/svg" width="11.338989d" height="11.338989d" viewBox="0 0 11.339 11.339"><path fill="#000000" d="M6.841,4.819l0.53,-1.492l-1.254,0.966l-0.448,-1.519l-0.447,1.519l-1.254,-0.966l0.53,1.492l-1.582,-0.044l1.306,0.894l2.895,0l1.306,-0.894z" id="path_0"/><path fill="#000000" d="M5.669,1.772c-2.153,0 -3.898,1.745 -3.898,3.898s1.745,3.898 3.898,3.898s3.898,-1.745 3.898,-3.898S7.822,1.772 5.669,1.772zM8.423,6.564L6.841,6.52l0.531,1.491L6.117,7.046L5.669,8.565L5.222,7.046L3.968,8.012L4.498,6.52L2.916,6.564l1.306,-0.895H2.352c0,-1.832 1.485,-3.317 3.317,-3.317c1.832,0 3.317,1.485 3.317,3.317H7.117L8.423,6.564z" id="path_1"/></svg>