<svg id="vector" xmlns="http://www.w3.org/2000/svg" width="11.338989d" height="11.338989d" viewBox="0 0 11.339 11.339"><path fill="#000000" d="M5.67,9.568c-2.149,0 -3.898,-1.749 -3.898,-3.898S3.521,1.772 5.67,1.772S9.567,3.521 9.567,5.67S7.819,9.568 5.67,9.568zM5.67,2.404c-1.801,0 -3.266,1.465 -3.266,3.266c0,1.801 1.465,3.266 3.266,3.266c1.801,0 3.266,-1.465 3.266,-3.266C8.936,3.869 7.47,2.404 5.67,2.404z" id="path_0"/><path fill="#000000" d="M5.67,4.476c-0.659,0 -1.194,0.535 -1.194,1.194c0,0.659 0.535,1.194 1.194,1.194c0.659,0 1.194,-0.535 1.194,-1.194C6.864,5.011 6.329,4.476 5.67,4.476z" id="path_1"/></svg>