<svg id="vector" xmlns="http://www.w3.org/2000/svg" width="14.169983d" height="14.169983d" viewBox="0 0 14.17 14.17"><path fill="@color/yellow" d="M6.002,3.516l2.19,0l-1.094,1.897z" id="path_0"/><path fill="@color/yellow" d="M3.38,6.263l1.094,-1.897l1.096,1.897z" id="path_1"/><path fill="@color/yellow" d="M8.6,6.263l1.095,-1.897l1.095,1.897z" id="path_2"/><path fill="@color/yellow" d="M8.168,10.715l-2.19,0.001l1.094,-1.897z" id="path_3"/><path fill="@color/yellow" d="M10.79,7.969l-1.094,1.896l-1.096,-1.896z" id="path_4"/><path fill="@color/yellow" d="M5.57,7.969l-1.095,1.896l-1.095,-1.896z" id="path_5"/><path fill="@color/yellow" d="M7.085,7.153m-0.904,0a0.904,0.904 0,1 1,1.808 0a0.904,0.904 0,1 1,-1.808 0" id="path_6"/><path fill="@color/yellow" d="M7.085,13.929c-3.716,0 -6.739,-3.023 -6.739,-6.739s3.023,-6.739 6.739,-6.739s6.739,3.023 6.739,6.739S10.801,13.929 7.085,13.929zM7.085,2.499c-2.587,0 -4.692,2.105 -4.692,4.692s2.105,4.692 4.692,4.692s4.692,-2.105 4.692,-4.692S9.672,2.499 7.085,2.499z" id="path_7"/></svg>